<mxfile host="Electron" modified="2023-06-17T00:07:11.626Z" agent="Mozilla/5.0 (Macintosh; Intel Mac OS X 10_15_7) AppleWebKit/537.36 (KHTML, like Gecko) draw.io/21.4.0 Chrome/112.0.5615.204 Electron/24.5.1 Safari/537.36" etag="_KltOdkCI9D6LjULtglf" version="21.4.0" type="device" pages="6">
  <diagram id="11srlfwfqRZhKO7teL84" name="Landscape">
    <mxGraphModel dx="1674" dy="907" grid="0" gridSize="10" guides="1" tooltips="1" connect="1" arrows="1" fold="1" page="1" pageScale="1" pageWidth="850" pageHeight="1100" background="none" math="0" shadow="0">
      <root>
        <mxCell id="0" />
        <mxCell id="1" parent="0" />
        <mxCell id="dJE9NjCEALrnBd5WtFuz-3" value="" style="rounded=0;whiteSpace=wrap;html=1;dashed=1;fontSize=12;fillColor=none;" parent="1" vertex="1">
          <mxGeometry x="29" y="590" width="706" height="70" as="geometry" />
        </mxCell>
        <mxCell id="t_AiOpjrg7VS-Y8bha-j-1" value="AWS Cloud" style="points=[[0,0],[0.25,0],[0.5,0],[0.75,0],[1,0],[1,0.25],[1,0.5],[1,0.75],[1,1],[0.75,1],[0.5,1],[0.25,1],[0,1],[0,0.75],[0,0.5],[0,0.25]];outlineConnect=0;gradientColor=none;html=1;whiteSpace=wrap;fontSize=12;fontStyle=0;container=1;pointerEvents=0;collapsible=0;recursiveResize=0;shape=mxgraph.aws4.group;grIcon=mxgraph.aws4.group_aws_cloud;strokeColor=#232F3E;fillColor=none;verticalAlign=top;align=left;spacingLeft=30;fontColor=#232F3E;dashed=0;" parent="1" vertex="1">
          <mxGeometry x="15" y="230" width="820" height="540" as="geometry" />
        </mxCell>
        <mxCell id="t_AiOpjrg7VS-Y8bha-j-3" value="" style="rounded=0;whiteSpace=wrap;html=1;fontSize=12;fillColor=none;dashed=1;" parent="t_AiOpjrg7VS-Y8bha-j-1" vertex="1">
          <mxGeometry x="13" y="100" width="317" height="224" as="geometry" />
        </mxCell>
        <mxCell id="jrG1Wz0X0aa1N14wJUdN-4" style="edgeStyle=orthogonalEdgeStyle;rounded=0;orthogonalLoop=1;jettySize=auto;html=1;exitX=0.5;exitY=0;exitDx=0;exitDy=0;entryX=0.5;entryY=1;entryDx=0;entryDy=0;" parent="t_AiOpjrg7VS-Y8bha-j-1" source="0d1ewZtaQejw4mvg3dG4-7" target="M0AJBfi1gflVqf29KibE-4" edge="1">
          <mxGeometry relative="1" as="geometry" />
        </mxCell>
        <mxCell id="jrG1Wz0X0aa1N14wJUdN-7" style="edgeStyle=orthogonalEdgeStyle;rounded=0;orthogonalLoop=1;jettySize=auto;html=1;exitX=1;exitY=0.5;exitDx=0;exitDy=0;" parent="t_AiOpjrg7VS-Y8bha-j-1" source="0d1ewZtaQejw4mvg3dG4-7" target="t_AiOpjrg7VS-Y8bha-j-11" edge="1">
          <mxGeometry relative="1" as="geometry">
            <Array as="points">
              <mxPoint x="240" y="260" />
            </Array>
          </mxGeometry>
        </mxCell>
        <mxCell id="9xn2FygULAVGwO5MP6ZO-11" style="edgeStyle=orthogonalEdgeStyle;rounded=0;orthogonalLoop=1;jettySize=auto;html=1;exitX=0.75;exitY=0;exitDx=0;exitDy=0;entryX=0.25;entryY=0;entryDx=0;entryDy=0;fontSize=14;" parent="t_AiOpjrg7VS-Y8bha-j-1" source="0d1ewZtaQejw4mvg3dG4-7" target="9xn2FygULAVGwO5MP6ZO-13" edge="1">
          <mxGeometry relative="1" as="geometry">
            <mxPoint x="268" y="171.0110000000002" as="targetPoint" />
          </mxGeometry>
        </mxCell>
        <mxCell id="0d1ewZtaQejw4mvg3dG4-7" value="&lt;b&gt;Data Science&lt;br&gt;Experiments&lt;/b&gt;" style="rounded=1;whiteSpace=wrap;html=1;fillColor=#ffe6cc;strokeColor=#d79b00;" parent="t_AiOpjrg7VS-Y8bha-j-1" vertex="1">
          <mxGeometry x="30.31" y="186" width="210" height="124.2" as="geometry" />
        </mxCell>
        <mxCell id="t_AiOpjrg7VS-Y8bha-j-2" value="" style="rounded=0;whiteSpace=wrap;html=1;dashed=1;fontSize=12;fillColor=none;" parent="t_AiOpjrg7VS-Y8bha-j-1" vertex="1">
          <mxGeometry x="13" y="450" width="707" height="70" as="geometry" />
        </mxCell>
        <mxCell id="t_AiOpjrg7VS-Y8bha-j-4" style="edgeStyle=orthogonalEdgeStyle;rounded=0;orthogonalLoop=1;jettySize=auto;html=1;fontSize=12;fontColor=#000000;strokeColor=#000000;strokeWidth=1;" parent="t_AiOpjrg7VS-Y8bha-j-1" source="t_AiOpjrg7VS-Y8bha-j-5" target="t_AiOpjrg7VS-Y8bha-j-11" edge="1">
          <mxGeometry relative="1" as="geometry">
            <Array as="points">
              <mxPoint x="533" y="89.8" />
            </Array>
          </mxGeometry>
        </mxCell>
        <mxCell id="t_AiOpjrg7VS-Y8bha-j-5" value="&lt;br&gt;&lt;br&gt;&lt;br&gt;&lt;br&gt;&lt;br&gt;ECR" style="sketch=0;outlineConnect=0;fontColor=#232F3E;gradientColor=none;strokeColor=#ffffff;fillColor=#232F3E;dashed=0;verticalLabelPosition=middle;verticalAlign=bottom;align=center;html=1;whiteSpace=wrap;fontSize=10;fontStyle=1;spacing=3;shape=mxgraph.aws4.productIcon;prIcon=mxgraph.aws4.ecr;aspect=fixed;" parent="t_AiOpjrg7VS-Y8bha-j-1" vertex="1">
          <mxGeometry x="359.71" y="40" width="50" height="62.5" as="geometry" />
        </mxCell>
        <mxCell id="t_AiOpjrg7VS-Y8bha-j-6" value="&lt;br&gt;&lt;br&gt;&lt;br&gt;&lt;br&gt;&lt;br&gt;&lt;br&gt;&lt;br&gt;&lt;br&gt;SageMaker" style="sketch=0;outlineConnect=0;fontColor=#232F3E;gradientColor=none;strokeColor=#ffffff;fillColor=#232F3E;dashed=0;verticalLabelPosition=middle;verticalAlign=bottom;align=center;html=1;whiteSpace=wrap;fontSize=10;fontStyle=1;spacing=3;shape=mxgraph.aws4.productIcon;prIcon=mxgraph.aws4.sagemaker;aspect=fixed;" parent="t_AiOpjrg7VS-Y8bha-j-1" vertex="1">
          <mxGeometry x="13" y="100" width="50" height="69" as="geometry" />
        </mxCell>
        <mxCell id="t_AiOpjrg7VS-Y8bha-j-7" style="edgeStyle=orthogonalEdgeStyle;rounded=0;orthogonalLoop=1;jettySize=auto;html=1;fontSize=12;fontColor=#000000;strokeColor=#000000;strokeWidth=1;startArrow=none;exitX=0.5;exitY=0;exitDx=0;exitDy=0;" parent="t_AiOpjrg7VS-Y8bha-j-1" source="9xn2FygULAVGwO5MP6ZO-13" target="t_AiOpjrg7VS-Y8bha-j-5" edge="1">
          <mxGeometry relative="1" as="geometry">
            <mxPoint x="285.79999999999995" y="169.41200000000003" as="sourcePoint" />
            <Array as="points">
              <mxPoint x="286" y="167" />
              <mxPoint x="286" y="90" />
            </Array>
          </mxGeometry>
        </mxCell>
        <mxCell id="t_AiOpjrg7VS-Y8bha-j-8" value="S3" style="sketch=0;outlineConnect=0;fontColor=#232F3E;gradientColor=none;strokeColor=#ffffff;fillColor=#232F3E;dashed=0;verticalLabelPosition=middle;verticalAlign=bottom;align=center;html=1;whiteSpace=wrap;fontSize=10;fontStyle=1;spacing=3;shape=mxgraph.aws4.productIcon;prIcon=mxgraph.aws4.s3;aspect=fixed;" parent="t_AiOpjrg7VS-Y8bha-j-1" vertex="1">
          <mxGeometry x="13" y="450" width="50" height="62.5" as="geometry" />
        </mxCell>
        <mxCell id="t_AiOpjrg7VS-Y8bha-j-9" value="&amp;nbsp;Lambda" style="sketch=0;outlineConnect=0;fontColor=#232F3E;gradientColor=none;strokeColor=#ffffff;fillColor=#232F3E;dashed=0;verticalLabelPosition=middle;verticalAlign=bottom;align=center;html=1;whiteSpace=wrap;fontSize=10;fontStyle=1;spacing=3;shape=mxgraph.aws4.productIcon;prIcon=mxgraph.aws4.lambda;aspect=fixed;" parent="t_AiOpjrg7VS-Y8bha-j-1" vertex="1">
          <mxGeometry x="673" y="40.000000000000036" width="50" height="62.5" as="geometry" />
        </mxCell>
        <mxCell id="t_AiOpjrg7VS-Y8bha-j-11" value="AWS Step Functions workflow" style="sketch=0;outlineConnect=0;gradientColor=none;html=1;whiteSpace=wrap;fontSize=12;fontStyle=0;shape=mxgraph.aws4.group;grIcon=mxgraph.aws4.group_aws_step_functions_workflow;strokeColor=#000000;fillColor=none;verticalAlign=top;align=left;spacingLeft=30;fontColor=#545B64;dashed=1;" parent="t_AiOpjrg7VS-Y8bha-j-1" vertex="1">
          <mxGeometry x="353" y="149.8" width="370" height="175" as="geometry" />
        </mxCell>
        <mxCell id="t_AiOpjrg7VS-Y8bha-j-13" style="edgeStyle=orthogonalEdgeStyle;rounded=0;orthogonalLoop=1;jettySize=auto;html=1;fontSize=12;fontColor=#000000;strokeColor=#000000;strokeWidth=1;" parent="t_AiOpjrg7VS-Y8bha-j-1" source="t_AiOpjrg7VS-Y8bha-j-2" edge="1">
          <mxGeometry relative="1" as="geometry">
            <mxPoint x="505" y="328" as="targetPoint" />
            <Array as="points">
              <mxPoint x="505" y="328" />
            </Array>
          </mxGeometry>
        </mxCell>
        <mxCell id="t_AiOpjrg7VS-Y8bha-j-23" value="" style="rounded=0;whiteSpace=wrap;html=1;dashed=1;fontSize=12;fillColor=none;" parent="t_AiOpjrg7VS-Y8bha-j-1" vertex="1">
          <mxGeometry x="737" y="40" width="73" height="480" as="geometry" />
        </mxCell>
        <mxCell id="t_AiOpjrg7VS-Y8bha-j-24" value="CloudWatch" style="sketch=0;outlineConnect=0;fontColor=#232F3E;gradientColor=none;strokeColor=#ffffff;fillColor=#232F3E;dashed=0;verticalLabelPosition=middle;verticalAlign=bottom;align=left;html=1;whiteSpace=wrap;fontSize=10;fontStyle=1;spacing=3;shape=mxgraph.aws4.productIcon;prIcon=mxgraph.aws4.cloudwatch;labelBackgroundColor=none;fontFamily=Helvetica;" parent="t_AiOpjrg7VS-Y8bha-j-1" vertex="1">
          <mxGeometry x="737" y="40" width="48" height="70" as="geometry" />
        </mxCell>
        <mxCell id="u6U8e-LYUB2asFhp98ut-1" value="&lt;b&gt;Processing Contrainer&lt;/b&gt;" style="rounded=1;whiteSpace=wrap;html=1;fillColor=#d5e8d4;strokeColor=#82b366;" parent="t_AiOpjrg7VS-Y8bha-j-1" vertex="1">
          <mxGeometry x="409" y="185" width="273" height="125.2" as="geometry" />
        </mxCell>
        <mxCell id="0d1ewZtaQejw4mvg3dG4-1" value="" style="outlineConnect=0;dashed=0;verticalLabelPosition=bottom;verticalAlign=top;align=center;html=1;shape=mxgraph.aws3.bucket;fillColor=#E05243;gradientColor=none;" parent="t_AiOpjrg7VS-Y8bha-j-1" vertex="1">
          <mxGeometry x="195.68" y="462.13" width="44.63" height="45.75" as="geometry" />
        </mxCell>
        <mxCell id="0d1ewZtaQejw4mvg3dG4-2" value="" style="outlineConnect=0;dashed=0;verticalLabelPosition=bottom;verticalAlign=top;align=center;html=1;shape=mxgraph.aws3.bucket;fillColor=#E05243;gradientColor=none;" parent="t_AiOpjrg7VS-Y8bha-j-1" vertex="1">
          <mxGeometry x="333" y="462.13" width="44.63" height="45.75" as="geometry" />
        </mxCell>
        <mxCell id="0d1ewZtaQejw4mvg3dG4-3" value="" style="outlineConnect=0;dashed=0;verticalLabelPosition=bottom;verticalAlign=top;align=center;html=1;shape=mxgraph.aws3.bucket;fillColor=#E05243;gradientColor=none;" parent="t_AiOpjrg7VS-Y8bha-j-1" vertex="1">
          <mxGeometry x="470" y="462.13" width="44.63" height="45.75" as="geometry" />
        </mxCell>
        <mxCell id="M0AJBfi1gflVqf29KibE-4" value="" style="shape=image;verticalLabelPosition=bottom;labelBackgroundColor=default;verticalAlign=top;aspect=fixed;imageAspect=0;image=http://media.hv.se/kurser/informatik-ail/wp-content/uploads/sites/42/2017/11/git.png;" parent="t_AiOpjrg7VS-Y8bha-j-1" vertex="1">
          <mxGeometry x="102.65" y="51.5" width="64.7" height="27" as="geometry" />
        </mxCell>
        <mxCell id="0d1ewZtaQejw4mvg3dG4-8" value="&lt;b&gt;Storage&lt;/b&gt;" style="rounded=1;whiteSpace=wrap;html=1;fillColor=#b0e3e6;strokeColor=#0e8088;" parent="t_AiOpjrg7VS-Y8bha-j-1" vertex="1">
          <mxGeometry x="555" y="366" width="156.5" height="146.71" as="geometry" />
        </mxCell>
        <mxCell id="zBDn2O5_ziD2ZbnQt44w-1" value="&lt;b&gt;Monitor&lt;/b&gt;" style="rounded=1;whiteSpace=wrap;html=1;fillColor=#fad9d5;strokeColor=#ae4132;" parent="t_AiOpjrg7VS-Y8bha-j-1" vertex="1">
          <mxGeometry x="750.5" y="149.8" width="50" height="360.2" as="geometry" />
        </mxCell>
        <mxCell id="zBDn2O5_ziD2ZbnQt44w-2" value="&lt;b&gt;Trigger&lt;/b&gt;" style="rounded=1;whiteSpace=wrap;html=1;fillColor=#fff2cc;strokeColor=#d6b656;" parent="t_AiOpjrg7VS-Y8bha-j-1" vertex="1">
          <mxGeometry x="555" y="40" width="105" height="50" as="geometry" />
        </mxCell>
        <mxCell id="jrG1Wz0X0aa1N14wJUdN-2" value="" style="group" parent="t_AiOpjrg7VS-Y8bha-j-1" vertex="1" connectable="0">
          <mxGeometry x="9" y="185" width="117" height="71.00000000000003" as="geometry" />
        </mxCell>
        <mxCell id="0d1ewZtaQejw4mvg3dG4-4" value="" style="shape=image;verticalLabelPosition=bottom;labelBackgroundColor=default;verticalAlign=top;aspect=fixed;imageAspect=0;image=https://jupyter.org/assets/share.png;" parent="jrG1Wz0X0aa1N14wJUdN-2" vertex="1">
          <mxGeometry width="101.01783955346394" height="53.034365765568566" as="geometry" />
        </mxCell>
        <mxCell id="t_AiOpjrg7VS-Y8bha-j-20" value="&lt;span style=&quot;color: rgb(35, 47, 62); font-family: helvetica; font-size: 10px; font-style: normal; font-weight: 700; letter-spacing: normal; text-indent: 0px; text-transform: none; word-spacing: 0px; display: inline; float: none;&quot;&gt;Notebook&lt;/span&gt;" style="text;whiteSpace=wrap;html=1;fontSize=12;fontColor=#000000;align=center;" parent="jrG1Wz0X0aa1N14wJUdN-2" vertex="1">
          <mxGeometry x="20.36" y="53.236588375668475" width="60.30000000000001" height="17.763411624331546" as="geometry" />
        </mxCell>
        <mxCell id="9xn2FygULAVGwO5MP6ZO-7" value="" style="endArrow=classic;startArrow=classic;html=1;rounded=0;fontSize=14;exitX=0.421;exitY=0.014;exitDx=0;exitDy=0;exitPerimeter=0;" parent="t_AiOpjrg7VS-Y8bha-j-1" source="t_AiOpjrg7VS-Y8bha-j-2" edge="1">
          <mxGeometry width="50" height="50" relative="1" as="geometry">
            <mxPoint x="260" y="374.79999999999995" as="sourcePoint" />
            <mxPoint x="310" y="324.79999999999995" as="targetPoint" />
          </mxGeometry>
        </mxCell>
        <mxCell id="9xn2FygULAVGwO5MP6ZO-8" value="" style="endArrow=classic;startArrow=classic;html=1;rounded=0;fontSize=14;exitX=0.421;exitY=0.014;exitDx=0;exitDy=0;exitPerimeter=0;" parent="t_AiOpjrg7VS-Y8bha-j-1" edge="1">
          <mxGeometry width="50" height="50" relative="1" as="geometry">
            <mxPoint x="374.64699999999993" y="450" as="sourcePoint" />
            <mxPoint x="374" y="323.81999999999994" as="targetPoint" />
          </mxGeometry>
        </mxCell>
        <mxCell id="9xn2FygULAVGwO5MP6ZO-12" value="" style="shape=image;verticalLabelPosition=bottom;labelBackgroundColor=default;verticalAlign=top;aspect=fixed;imageAspect=0;image=https://www.docker.com/wp-content/uploads/2022/03/vertical-logo-monochromatic.png;" parent="t_AiOpjrg7VS-Y8bha-j-1" vertex="1">
          <mxGeometry x="414" y="191" width="49.08" height="42" as="geometry" />
        </mxCell>
        <mxCell id="9xn2FygULAVGwO5MP6ZO-13" value="" style="shape=image;verticalLabelPosition=bottom;labelBackgroundColor=default;verticalAlign=top;aspect=fixed;imageAspect=0;image=https://www.docker.com/wp-content/uploads/2022/03/vertical-logo-monochromatic.png;" parent="t_AiOpjrg7VS-Y8bha-j-1" vertex="1">
          <mxGeometry x="257" y="167" width="49.08" height="42" as="geometry" />
        </mxCell>
        <mxCell id="QCrDgCW3lIMnQEGgM_ri-1" value="Glue" style="sketch=0;outlineConnect=0;fontColor=#232F3E;gradientColor=none;strokeColor=#ffffff;fillColor=#232F3E;dashed=0;verticalLabelPosition=middle;verticalAlign=bottom;align=center;html=1;whiteSpace=wrap;fontSize=10;fontStyle=1;spacing=3;shape=mxgraph.aws4.productIcon;prIcon=mxgraph.aws4.glue;" parent="t_AiOpjrg7VS-Y8bha-j-1" vertex="1">
          <mxGeometry x="427" y="360" width="51" height="70" as="geometry" />
        </mxCell>
        <mxCell id="dJE9NjCEALrnBd5WtFuz-1" value="Redshift" style="sketch=0;outlineConnect=0;fontColor=#232F3E;gradientColor=none;strokeColor=#ffffff;fillColor=#232F3E;dashed=0;verticalLabelPosition=middle;verticalAlign=bottom;align=center;html=1;whiteSpace=wrap;fontSize=10;fontStyle=1;spacing=3;shape=mxgraph.aws4.productIcon;prIcon=mxgraph.aws4.redshift;" parent="1" vertex="1">
          <mxGeometry x="257" y="589" width="50" height="70" as="geometry" />
        </mxCell>
        <mxCell id="dJE9NjCEALrnBd5WtFuz-2" value="Athena" style="sketch=0;outlineConnect=0;fontColor=#232F3E;gradientColor=none;strokeColor=#ffffff;fillColor=#232F3E;dashed=0;verticalLabelPosition=middle;verticalAlign=bottom;align=center;html=1;whiteSpace=wrap;fontSize=10;fontStyle=1;spacing=3;shape=mxgraph.aws4.productIcon;prIcon=mxgraph.aws4.athena;" parent="1" vertex="1">
          <mxGeometry x="500" y="590" width="50" height="70" as="geometry" />
        </mxCell>
        <mxCell id="9xn2FygULAVGwO5MP6ZO-5" style="edgeStyle=orthogonalEdgeStyle;rounded=0;orthogonalLoop=1;jettySize=auto;html=1;fontSize=12;fontColor=#000000;strokeColor=#000000;strokeWidth=1;" parent="1" edge="1">
          <mxGeometry relative="1" as="geometry">
            <mxPoint x="150" y="557" as="targetPoint" />
            <Array as="points">
              <mxPoint x="150" y="557" />
            </Array>
            <mxPoint x="150" y="679" as="sourcePoint" />
          </mxGeometry>
        </mxCell>
        <mxCell id="9xn2FygULAVGwO5MP6ZO-6" value="Athena" style="sketch=0;outlineConnect=0;fontColor=#232F3E;gradientColor=none;strokeColor=#ffffff;fillColor=#232F3E;dashed=0;verticalLabelPosition=middle;verticalAlign=bottom;align=center;html=1;whiteSpace=wrap;fontSize=10;fontStyle=1;spacing=3;shape=mxgraph.aws4.productIcon;prIcon=mxgraph.aws4.athena;" parent="1" vertex="1">
          <mxGeometry x="130" y="589" width="50" height="70" as="geometry" />
        </mxCell>
      </root>
    </mxGraphModel>
  </diagram>
  <diagram id="HV22MqKwQB0ct9OJj65v" name="Processing">
    <mxGraphModel dx="1434" dy="907" grid="0" gridSize="10" guides="1" tooltips="1" connect="1" arrows="1" fold="1" page="1" pageScale="1" pageWidth="850" pageHeight="1100" math="0" shadow="0">
      <root>
        <mxCell id="0" />
        <mxCell id="1" parent="0" />
        <mxCell id="80k0oE3b9d4ADle_Yf3a-15" value="" style="rounded=0;whiteSpace=wrap;html=1;fillColor=none;dashed=1;" parent="1" vertex="1">
          <mxGeometry x="220" y="110" width="100" height="149.25" as="geometry" />
        </mxCell>
        <mxCell id="80k0oE3b9d4ADle_Yf3a-2" value="" style="rounded=1;whiteSpace=wrap;html=1;fillColor=#f5f5f5;fontColor=#333333;strokeColor=#666666;" parent="1" vertex="1">
          <mxGeometry x="400" y="110" width="400" height="240" as="geometry" />
        </mxCell>
        <mxCell id="80k0oE3b9d4ADle_Yf3a-3" value="" style="rounded=1;whiteSpace=wrap;html=1;" parent="1" vertex="1">
          <mxGeometry x="430" y="130" width="240" height="190" as="geometry" />
        </mxCell>
        <mxCell id="80k0oE3b9d4ADle_Yf3a-4" value="" style="rounded=1;whiteSpace=wrap;html=1;" parent="1" vertex="1">
          <mxGeometry x="680" y="130" width="40" height="190" as="geometry" />
        </mxCell>
        <mxCell id="80k0oE3b9d4ADle_Yf3a-5" value="" style="rounded=1;whiteSpace=wrap;html=1;" parent="1" vertex="1">
          <mxGeometry x="730" y="130" width="40" height="190" as="geometry" />
        </mxCell>
        <mxCell id="80k0oE3b9d4ADle_Yf3a-6" value="Processing Contrainer" style="rounded=1;whiteSpace=wrap;html=1;fillColor=#d5e8d4;strokeColor=#82b366;" parent="1" vertex="1">
          <mxGeometry x="450" y="145" width="200" height="155" as="geometry" />
        </mxCell>
        <mxCell id="80k0oE3b9d4ADle_Yf3a-7" value="Instance 1" style="text;html=1;strokeColor=none;fillColor=none;align=center;verticalAlign=middle;whiteSpace=wrap;rounded=0;" parent="1" vertex="1">
          <mxGeometry x="520" y="295" width="60" height="30" as="geometry" />
        </mxCell>
        <mxCell id="80k0oE3b9d4ADle_Yf3a-8" value="Cluster" style="text;html=1;strokeColor=none;fillColor=none;align=center;verticalAlign=middle;whiteSpace=wrap;rounded=0;" parent="1" vertex="1">
          <mxGeometry x="570" y="320" width="60" height="30" as="geometry" />
        </mxCell>
        <mxCell id="80k0oE3b9d4ADle_Yf3a-9" style="edgeStyle=orthogonalEdgeStyle;rounded=0;orthogonalLoop=1;jettySize=auto;html=1;entryX=0;entryY=0.5;entryDx=0;entryDy=0;" parent="1" source="K2hzu2Jp80x0g6wWDLfi-1" target="80k0oE3b9d4ADle_Yf3a-15" edge="1">
          <mxGeometry relative="1" as="geometry">
            <mxPoint x="239.10000000000002" y="184.62424999999996" as="targetPoint" />
            <mxPoint x="176.4000000000001" y="184.63" as="sourcePoint" />
          </mxGeometry>
        </mxCell>
        <mxCell id="80k0oE3b9d4ADle_Yf3a-11" value="" style="outlineConnect=0;dashed=0;verticalLabelPosition=bottom;verticalAlign=top;align=center;html=1;shape=mxgraph.aws3.bucket;fillColor=#E05243;gradientColor=none;" parent="1" vertex="1">
          <mxGeometry x="120" y="250" width="60" height="61.5" as="geometry" />
        </mxCell>
        <mxCell id="80k0oE3b9d4ADle_Yf3a-12" value="Redshift" style="sketch=0;outlineConnect=0;fontColor=#232F3E;gradientColor=none;strokeColor=#ffffff;fillColor=#232F3E;dashed=0;verticalLabelPosition=middle;verticalAlign=bottom;align=center;html=1;whiteSpace=wrap;fontSize=10;fontStyle=1;spacing=3;shape=mxgraph.aws4.productIcon;prIcon=mxgraph.aws4.redshift;" parent="1" vertex="1">
          <mxGeometry x="245" y="120" width="50" height="70" as="geometry" />
        </mxCell>
        <mxCell id="80k0oE3b9d4ADle_Yf3a-13" value="Athena" style="sketch=0;outlineConnect=0;fontColor=#232F3E;gradientColor=none;strokeColor=#ffffff;fillColor=#232F3E;dashed=0;verticalLabelPosition=middle;verticalAlign=bottom;align=center;html=1;whiteSpace=wrap;fontSize=10;fontStyle=1;spacing=3;shape=mxgraph.aws4.productIcon;prIcon=mxgraph.aws4.athena;" parent="1" vertex="1">
          <mxGeometry x="245" y="195" width="50" height="65" as="geometry" />
        </mxCell>
        <mxCell id="80k0oE3b9d4ADle_Yf3a-14" value="" style="edgeStyle=orthogonalEdgeStyle;rounded=0;orthogonalLoop=1;jettySize=auto;html=1;fontSize=8;" parent="1" source="80k0oE3b9d4ADle_Yf3a-15" edge="1">
          <mxGeometry relative="1" as="geometry">
            <mxPoint x="390.000020833337" y="184.60000000000002" as="targetPoint" />
          </mxGeometry>
        </mxCell>
        <mxCell id="80k0oE3b9d4ADle_Yf3a-16" value="" style="endArrow=classic;html=1;rounded=0;entryX=0;entryY=0.25;entryDx=0;entryDy=0;" parent="1" target="80k0oE3b9d4ADle_Yf3a-6" edge="1">
          <mxGeometry width="50" height="50" relative="1" as="geometry">
            <mxPoint x="340" y="183" as="sourcePoint" />
            <mxPoint x="360" y="340" as="targetPoint" />
          </mxGeometry>
        </mxCell>
        <mxCell id="80k0oE3b9d4ADle_Yf3a-17" value="&lt;font style=&quot;font-size: 10px;&quot;&gt;/opt/ml/processing/input&lt;/font&gt;" style="edgeLabel;html=1;align=center;verticalAlign=middle;resizable=0;points=[];fontSize=10;" parent="80k0oE3b9d4ADle_Yf3a-16" vertex="1" connectable="0">
          <mxGeometry x="-0.2363" y="1" relative="1" as="geometry">
            <mxPoint as="offset" />
          </mxGeometry>
        </mxCell>
        <mxCell id="80k0oE3b9d4ADle_Yf3a-18" value="" style="endArrow=classic;html=1;rounded=0;fontSize=8;entryX=0.94;entryY=0.5;entryDx=0;entryDy=0;entryPerimeter=0;exitX=-0.001;exitY=0.881;exitDx=0;exitDy=0;exitPerimeter=0;" parent="1" source="80k0oE3b9d4ADle_Yf3a-6" target="80k0oE3b9d4ADle_Yf3a-11" edge="1">
          <mxGeometry width="50" height="50" relative="1" as="geometry">
            <mxPoint x="370" y="420" as="sourcePoint" />
            <mxPoint x="420" y="370" as="targetPoint" />
          </mxGeometry>
        </mxCell>
        <mxCell id="80k0oE3b9d4ADle_Yf3a-19" value="/opt/ml/processing/outout" style="edgeLabel;html=1;align=center;verticalAlign=middle;resizable=0;points=[];fontSize=10;" parent="80k0oE3b9d4ADle_Yf3a-18" vertex="1" connectable="0">
          <mxGeometry x="0.0764" relative="1" as="geometry">
            <mxPoint as="offset" />
          </mxGeometry>
        </mxCell>
        <mxCell id="80k0oE3b9d4ADle_Yf3a-20" value="&lt;font style=&quot;font-size: 11px&quot;&gt;s3://bucket/path/to/output_data&lt;/font&gt;" style="text;html=1;strokeColor=none;fillColor=none;align=center;verticalAlign=middle;whiteSpace=wrap;rounded=0;labelBackgroundColor=none;" parent="1" vertex="1">
          <mxGeometry x="30" y="311.5" width="200" height="31.5" as="geometry" />
        </mxCell>
        <mxCell id="80k0oE3b9d4ADle_Yf3a-21" value="&lt;font style=&quot;font-size: 11px&quot;&gt;s3://bucket/path/to/input_data&lt;/font&gt;" style="text;html=1;strokeColor=none;fillColor=none;align=center;verticalAlign=middle;whiteSpace=wrap;rounded=0;labelBackgroundColor=none;" parent="1" vertex="1">
          <mxGeometry x="30" y="215.38" width="200" height="31.5" as="geometry" />
        </mxCell>
        <mxCell id="K2hzu2Jp80x0g6wWDLfi-1" value="" style="outlineConnect=0;dashed=0;verticalLabelPosition=bottom;verticalAlign=top;align=center;html=1;shape=mxgraph.aws3.bucket;fillColor=#E05243;gradientColor=none;" parent="1" vertex="1">
          <mxGeometry x="120" y="153.88" width="60" height="61.5" as="geometry" />
        </mxCell>
      </root>
    </mxGraphModel>
  </diagram>
  <diagram id="dDJqfWmW04CU2l6rNbGw" name="API">
    <mxGraphModel dx="1147" dy="726" grid="1" gridSize="10" guides="1" tooltips="1" connect="1" arrows="1" fold="1" page="1" pageScale="1" pageWidth="1100" pageHeight="850" math="0" shadow="0">
      <root>
        <mxCell id="0" />
        <mxCell id="1" parent="0" />
        <mxCell id="N5EdX9Sfo4ViiJ5A3la1-2" value="Amazon API Gateway" style="sketch=0;outlineConnect=0;fontColor=#232F3E;gradientColor=none;strokeColor=#ffffff;fillColor=#232F3E;dashed=0;verticalLabelPosition=middle;verticalAlign=bottom;align=center;html=1;whiteSpace=wrap;fontSize=10;fontStyle=1;spacing=3;shape=mxgraph.aws4.productIcon;prIcon=mxgraph.aws4.api_gateway;" vertex="1" parent="1">
          <mxGeometry x="500" y="394.75" width="80" height="110" as="geometry" />
        </mxCell>
        <mxCell id="N5EdX9Sfo4ViiJ5A3la1-3" value="SageMaker Endpoint" style="sketch=0;outlineConnect=0;fontColor=#232F3E;gradientColor=none;strokeColor=#ffffff;fillColor=#232F3E;dashed=0;verticalLabelPosition=middle;verticalAlign=bottom;align=center;html=1;whiteSpace=wrap;fontSize=10;fontStyle=1;spacing=3;shape=mxgraph.aws4.productIcon;prIcon=mxgraph.aws4.sagemaker;" vertex="1" parent="1">
          <mxGeometry x="710" y="394.75" width="80" height="110" as="geometry" />
        </mxCell>
        <mxCell id="N5EdX9Sfo4ViiJ5A3la1-4" value="AWS Cloud" style="points=[[0,0],[0.25,0],[0.5,0],[0.75,0],[1,0],[1,0.25],[1,0.5],[1,0.75],[1,1],[0.75,1],[0.5,1],[0.25,1],[0,1],[0,0.75],[0,0.5],[0,0.25]];outlineConnect=0;gradientColor=none;html=1;whiteSpace=wrap;fontSize=12;fontStyle=0;container=1;pointerEvents=0;collapsible=0;recursiveResize=0;shape=mxgraph.aws4.group;grIcon=mxgraph.aws4.group_aws_cloud_alt;strokeColor=#232F3E;fillColor=none;verticalAlign=top;align=left;spacingLeft=30;fontColor=#232F3E;dashed=0;" vertex="1" parent="1">
          <mxGeometry x="420" y="310" width="460" height="260" as="geometry" />
        </mxCell>
        <mxCell id="N5EdX9Sfo4ViiJ5A3la1-8" value="" style="group" vertex="1" connectable="0" parent="1">
          <mxGeometry x="590" y="434.75" width="100" height="10.5" as="geometry" />
        </mxCell>
        <mxCell id="N5EdX9Sfo4ViiJ5A3la1-6" value="" style="endArrow=classic;html=1;rounded=0;" edge="1" parent="N5EdX9Sfo4ViiJ5A3la1-8">
          <mxGeometry width="50" height="50" relative="1" as="geometry">
            <mxPoint as="sourcePoint" />
            <mxPoint x="100" as="targetPoint" />
          </mxGeometry>
        </mxCell>
        <mxCell id="N5EdX9Sfo4ViiJ5A3la1-7" value="" style="endArrow=classic;html=1;rounded=0;" edge="1" parent="N5EdX9Sfo4ViiJ5A3la1-8">
          <mxGeometry width="50" height="50" relative="1" as="geometry">
            <mxPoint x="100" y="10" as="sourcePoint" />
            <mxPoint y="10.5" as="targetPoint" />
          </mxGeometry>
        </mxCell>
        <mxCell id="N5EdX9Sfo4ViiJ5A3la1-9" value="" style="group" vertex="1" connectable="0" parent="1">
          <mxGeometry x="380" y="434.75" width="100" height="10.5" as="geometry" />
        </mxCell>
        <mxCell id="N5EdX9Sfo4ViiJ5A3la1-10" value="" style="endArrow=classic;html=1;rounded=0;" edge="1" parent="N5EdX9Sfo4ViiJ5A3la1-9">
          <mxGeometry width="50" height="50" relative="1" as="geometry">
            <mxPoint as="sourcePoint" />
            <mxPoint x="100" as="targetPoint" />
          </mxGeometry>
        </mxCell>
        <mxCell id="N5EdX9Sfo4ViiJ5A3la1-11" value="" style="endArrow=classic;html=1;rounded=0;" edge="1" parent="N5EdX9Sfo4ViiJ5A3la1-9">
          <mxGeometry width="50" height="50" relative="1" as="geometry">
            <mxPoint x="100" y="10" as="sourcePoint" />
            <mxPoint y="10.5" as="targetPoint" />
          </mxGeometry>
        </mxCell>
        <mxCell id="N5EdX9Sfo4ViiJ5A3la1-12" value="" style="sketch=0;pointerEvents=1;shadow=0;dashed=0;html=1;strokeColor=none;fillColor=#000000;labelPosition=center;verticalLabelPosition=bottom;verticalAlign=top;outlineConnect=0;align=center;shape=mxgraph.office.devices.cell_phone_iphone_standalone;" vertex="1" parent="1">
          <mxGeometry x="280" y="462.75" width="25" height="42" as="geometry" />
        </mxCell>
        <mxCell id="N5EdX9Sfo4ViiJ5A3la1-13" value="Users" style="sketch=0;outlineConnect=0;fontColor=#232F3E;gradientColor=none;strokeColor=#232F3E;fillColor=#ffffff;dashed=0;verticalLabelPosition=bottom;verticalAlign=top;align=center;html=1;fontSize=12;fontStyle=0;aspect=fixed;shape=mxgraph.aws4.resourceIcon;resIcon=mxgraph.aws4.users;" vertex="1" parent="1">
          <mxGeometry x="170" y="394.75" width="60" height="60" as="geometry" />
        </mxCell>
        <mxCell id="N5EdX9Sfo4ViiJ5A3la1-17" value="" style="sketch=0;pointerEvents=1;shadow=0;dashed=0;html=1;strokeColor=none;fillColor=#000000;labelPosition=center;verticalLabelPosition=bottom;verticalAlign=top;align=center;outlineConnect=0;shape=mxgraph.veeam2.laptop;" vertex="1" parent="1">
          <mxGeometry x="251" y="374.75" width="83" height="50" as="geometry" />
        </mxCell>
        <mxCell id="t9bozdZuk2IZCJ58-lTx-2" value="" style="sketch=0;points=[[0,0,0],[0.25,0,0],[0.5,0,0],[0.75,0,0],[1,0,0],[0,1,0],[0.25,1,0],[0.5,1,0],[0.75,1,0],[1,1,0],[0,0.25,0],[0,0.5,0],[0,0.75,0],[1,0.25,0],[1,0.5,0],[1,0.75,0]];outlineConnect=0;fontColor=#232F3E;gradientColor=none;gradientDirection=north;fillColor=#67AB9F;strokeColor=#ffffff;dashed=0;verticalLabelPosition=bottom;verticalAlign=top;align=center;html=1;fontSize=12;fontStyle=0;aspect=fixed;shape=mxgraph.aws4.resourceIcon;resIcon=mxgraph.aws4.sagemaker;" vertex="1" parent="1">
          <mxGeometry x="711" y="395.75" width="78" height="78" as="geometry" />
        </mxCell>
        <mxCell id="t9bozdZuk2IZCJ58-lTx-3" value="" style="sketch=0;points=[[0,0,0],[0.25,0,0],[0.5,0,0],[0.75,0,0],[1,0,0],[0,1,0],[0.25,1,0],[0.5,1,0],[0.75,1,0],[1,1,0],[0,0.25,0],[0,0.5,0],[0,0.75,0],[1,0.25,0],[1,0.5,0],[1,0.75,0]];outlineConnect=0;fontColor=#232F3E;gradientColor=none;gradientDirection=north;fillColor=#EA6B66;strokeColor=#ffffff;dashed=0;verticalLabelPosition=bottom;verticalAlign=top;align=center;html=1;fontSize=12;fontStyle=0;aspect=fixed;shape=mxgraph.aws4.resourceIcon;resIcon=mxgraph.aws4.api_gateway;" vertex="1" parent="1">
          <mxGeometry x="501" y="395.75" width="78" height="78" as="geometry" />
        </mxCell>
      </root>
    </mxGraphModel>
  </diagram>
  <diagram id="akB4iS-RLlng_mnrvMk4" name="DS COMPONENTS">
    <mxGraphModel dx="1674" dy="907" grid="0" gridSize="10" guides="1" tooltips="1" connect="1" arrows="1" fold="1" page="1" pageScale="1" pageWidth="850" pageHeight="1100" background="none" math="0" shadow="0">
      <root>
        <mxCell id="0" />
        <mxCell id="1" parent="0" />
        <mxCell id="KiBOHIMJMT9gTdTLAYe6-7" value="" style="edgeStyle=orthogonalEdgeStyle;curved=1;rounded=0;orthogonalLoop=1;jettySize=auto;html=1;exitX=0;exitY=0.5;exitDx=0;exitDy=0;entryX=1;entryY=0.5;entryDx=0;entryDy=0;fontSize=14;fontColor=#000000;strokeColor=#999999;" parent="1" source="SY61RcjM_goPcga9DbpL-17" target="SY61RcjM_goPcga9DbpL-14" edge="1">
          <mxGeometry x="-0.0005" y="-7" relative="1" as="geometry">
            <mxPoint as="offset" />
          </mxGeometry>
        </mxCell>
        <mxCell id="TB_9qLzxTLS44bATFlKC-1" value="selected from" style="edgeLabel;html=1;align=center;verticalAlign=middle;resizable=0;points=[];fontSize=14;labelBackgroundColor=none;" parent="KiBOHIMJMT9gTdTLAYe6-7" vertex="1" connectable="0">
          <mxGeometry x="-0.0113" y="2" relative="1" as="geometry">
            <mxPoint as="offset" />
          </mxGeometry>
        </mxCell>
        <mxCell id="SY61RcjM_goPcga9DbpL-10" style="edgeStyle=orthogonalEdgeStyle;rounded=0;orthogonalLoop=1;jettySize=auto;html=1;exitX=1;exitY=0.5;exitDx=0;exitDy=0;entryX=0;entryY=0.5;entryDx=0;entryDy=0;fontSize=14;fontColor=#FFFFFF;curved=1;strokeColor=#999999;" parent="1" source="SY61RcjM_goPcga9DbpL-3" target="SY61RcjM_goPcga9DbpL-4" edge="1">
          <mxGeometry relative="1" as="geometry" />
        </mxCell>
        <mxCell id="SY61RcjM_goPcga9DbpL-12" value="&lt;font color=&quot;#000000&quot;&gt;stored in&lt;/font&gt;" style="edgeLabel;html=1;align=center;verticalAlign=middle;resizable=0;points=[];fontSize=14;fontColor=#FFFFFF;labelBackgroundColor=none;" parent="SY61RcjM_goPcga9DbpL-10" vertex="1" connectable="0">
          <mxGeometry x="0.1794" y="-3" relative="1" as="geometry">
            <mxPoint as="offset" />
          </mxGeometry>
        </mxCell>
        <mxCell id="SY61RcjM_goPcga9DbpL-11" style="edgeStyle=orthogonalEdgeStyle;curved=1;rounded=0;orthogonalLoop=1;jettySize=auto;html=1;exitX=1;exitY=0.5;exitDx=0;exitDy=0;entryX=0;entryY=0.5;entryDx=0;entryDy=0;fontSize=14;fontColor=#FFFFFF;strokeColor=#999999;" parent="1" source="SY61RcjM_goPcga9DbpL-3" target="SY61RcjM_goPcga9DbpL-5" edge="1">
          <mxGeometry relative="1" as="geometry" />
        </mxCell>
        <mxCell id="SY61RcjM_goPcga9DbpL-13" value="executed in" style="edgeLabel;html=1;align=center;verticalAlign=middle;resizable=0;points=[];fontSize=14;fontColor=#000000;labelBackgroundColor=none;" parent="SY61RcjM_goPcga9DbpL-11" vertex="1" connectable="0">
          <mxGeometry x="-0.031" y="1" relative="1" as="geometry">
            <mxPoint as="offset" />
          </mxGeometry>
        </mxCell>
        <mxCell id="SY61RcjM_goPcga9DbpL-3" value="workflow" style="rounded=1;whiteSpace=wrap;html=1;glass=0;sketch=0;shadow=0;fontSize=14;fontStyle=0;strokeColor=none;fillColor=#F8CECC;" parent="1" vertex="1">
          <mxGeometry x="140" y="230" width="120" height="60" as="geometry" />
        </mxCell>
        <mxCell id="SY61RcjM_goPcga9DbpL-4" value="GitHub" style="rounded=1;whiteSpace=wrap;html=1;glass=0;sketch=0;shadow=0;fillColor=#000000;fontColor=#FFFFFF;strokeColor=none;fontSize=14;fontStyle=0" parent="1" vertex="1">
          <mxGeometry x="365" y="170" width="120" height="60" as="geometry" />
        </mxCell>
        <mxCell id="KiBOHIMJMT9gTdTLAYe6-3" style="edgeStyle=orthogonalEdgeStyle;curved=1;rounded=0;orthogonalLoop=1;jettySize=auto;html=1;exitX=1;exitY=0.5;exitDx=0;exitDy=0;entryX=0;entryY=0.5;entryDx=0;entryDy=0;fontSize=14;fontColor=#FFFFFF;strokeColor=#999999;" parent="1" source="SY61RcjM_goPcga9DbpL-5" target="KiBOHIMJMT9gTdTLAYe6-2" edge="1">
          <mxGeometry relative="1" as="geometry" />
        </mxCell>
        <mxCell id="KiBOHIMJMT9gTdTLAYe6-6" value="generate" style="edgeLabel;html=1;align=center;verticalAlign=middle;resizable=0;points=[];fontSize=14;fontColor=#000000;labelBackgroundColor=none;" parent="KiBOHIMJMT9gTdTLAYe6-3" vertex="1" connectable="0">
          <mxGeometry x="0.2563" y="1" relative="1" as="geometry">
            <mxPoint x="-4" y="-10" as="offset" />
          </mxGeometry>
        </mxCell>
        <mxCell id="SY61RcjM_goPcga9DbpL-5" value="Docker Container" style="rounded=1;whiteSpace=wrap;html=1;glass=0;sketch=0;shadow=0;strokeColor=none;fillColor=#2496ed;fontColor=#FFFFFF;fontSize=14;fontStyle=0" parent="1" vertex="1">
          <mxGeometry x="365" y="310" width="120" height="60" as="geometry" />
        </mxCell>
        <mxCell id="SY61RcjM_goPcga9DbpL-7" value="" style="dashed=0;outlineConnect=0;html=1;align=center;labelPosition=center;verticalLabelPosition=bottom;verticalAlign=top;shape=mxgraph.weblogos.github;rounded=1;shadow=0;glass=0;sketch=0;" parent="1" vertex="1">
          <mxGeometry x="534.38" y="161.25" width="68.75" height="68.75" as="geometry" />
        </mxCell>
        <mxCell id="SY61RcjM_goPcga9DbpL-15" style="edgeStyle=orthogonalEdgeStyle;curved=1;rounded=0;orthogonalLoop=1;jettySize=auto;html=1;exitX=1;exitY=0.25;exitDx=0;exitDy=0;entryX=0;entryY=0.5;entryDx=0;entryDy=0;fontSize=14;fontColor=#000000;strokeColor=#999999;" parent="1" source="SY61RcjM_goPcga9DbpL-14" target="SY61RcjM_goPcga9DbpL-5" edge="1">
          <mxGeometry relative="1" as="geometry" />
        </mxCell>
        <mxCell id="SY61RcjM_goPcga9DbpL-16" value="processed in" style="edgeLabel;html=1;align=center;verticalAlign=middle;resizable=0;points=[];fontSize=14;fontColor=#000000;labelBackgroundColor=none;" parent="SY61RcjM_goPcga9DbpL-15" vertex="1" connectable="0">
          <mxGeometry x="-0.3049" y="-20" relative="1" as="geometry">
            <mxPoint x="-13" y="-18" as="offset" />
          </mxGeometry>
        </mxCell>
        <mxCell id="SY61RcjM_goPcga9DbpL-14" value="data" style="rounded=1;whiteSpace=wrap;html=1;glass=0;sketch=0;shadow=0;fontSize=14;fontStyle=0;strokeColor=none;fillColor=#9AC7BF;" parent="1" vertex="1">
          <mxGeometry x="140" y="378" width="120" height="60" as="geometry" />
        </mxCell>
        <mxCell id="SY61RcjM_goPcga9DbpL-17" value="&lt;font&gt;S3&lt;/font&gt;" style="rounded=1;whiteSpace=wrap;html=1;glass=0;sketch=0;shadow=0;strokeColor=none;fillColor=#E05243;fontColor=#FFFFFF;fontSize=14;fontStyle=0" parent="1" vertex="1">
          <mxGeometry x="365" y="470" width="120" height="60" as="geometry" />
        </mxCell>
        <mxCell id="z4zw7JciSDQwNqTB-5WH-1" value="" style="outlineConnect=0;dashed=0;verticalLabelPosition=bottom;verticalAlign=top;align=center;html=1;shape=mxgraph.aws3.bucket;fillColor=#E05243;gradientColor=none;" parent="1" vertex="1">
          <mxGeometry x="546.75" y="468.5" width="60" height="61.5" as="geometry" />
        </mxCell>
        <mxCell id="KiBOHIMJMT9gTdTLAYe6-4" style="edgeStyle=orthogonalEdgeStyle;curved=1;rounded=0;orthogonalLoop=1;jettySize=auto;html=1;exitX=0;exitY=0.75;exitDx=0;exitDy=0;entryX=1;entryY=0.5;entryDx=0;entryDy=0;fontSize=14;fontColor=#FFFFFF;strokeColor=#999999;" parent="1" source="KiBOHIMJMT9gTdTLAYe6-2" target="SY61RcjM_goPcga9DbpL-17" edge="1">
          <mxGeometry relative="1" as="geometry" />
        </mxCell>
        <mxCell id="KiBOHIMJMT9gTdTLAYe6-5" value="&lt;font color=&quot;#000000&quot;&gt;stored in&lt;/font&gt;" style="edgeLabel;html=1;align=center;verticalAlign=middle;resizable=0;points=[];fontSize=14;fontColor=#FFFFFF;labelBackgroundColor=none;" parent="KiBOHIMJMT9gTdTLAYe6-4" vertex="1" connectable="0">
          <mxGeometry x="-0.0264" y="-1" relative="1" as="geometry">
            <mxPoint as="offset" />
          </mxGeometry>
        </mxCell>
        <mxCell id="KiBOHIMJMT9gTdTLAYe6-2" value="data&#39;/insights" style="rounded=1;whiteSpace=wrap;html=1;glass=0;sketch=0;shadow=0;fontSize=14;fontStyle=0;strokeColor=none;fillColor=#9AC7BF;" parent="1" vertex="1">
          <mxGeometry x="570" y="378" width="120" height="60" as="geometry" />
        </mxCell>
        <mxCell id="w2x_EantsK1HRRwKmaU1-11" value="" style="shape=image;verticalLabelPosition=bottom;labelBackgroundColor=default;verticalAlign=top;aspect=fixed;imageAspect=0;image=data:image/png,iVBORw0KGgoAAAANSUhEUgAAAHEAAABxCAYAAADifkzQAAAAAXNSR0IArs4c6QAAAIRlWElmTU0AKgAAAAgABQESAAMAAAABAAEAAAEaAAUAAAABAAAASgEbAAUAAAABAAAAUgEoAAMAAAABAAIAAIdpAAQAAAABAAAAWgAAAAAAAABIAAAAAQAAAEgAAAABAAOgAQADAAAAAQABAACgAgAEAAAAAQAAAHGgAwAEAAAAAQAAAHEAAAAAl37eQQAAAAlwSFlzAAALEwAACxMBAJqcGAAAEnpJREFUeAHtXQlwFFUaft1z5JjJQRISQhjCIoirrhzR3fVAodQVRctdXVeLQkCxgMjKaRESdhVciYbVYERyUAYFWXU91lIUbxHFkw2HF0ZcIAzkPiaTYyYzmXn7/53MMOn03D09h/1XJdPd7/6+/t/V7/2PIVEqph7rgzu+76VJGvWGw80m0thjI0azjZzusZNmi520WCmx2yiBS6JmCWEVDBmpYkgm3IzRsCQ5XkGyNQpy/qgE0t5mfnDxVC2j0ag2RCMcTLRk+oUaQ1FbWsrGQ8ctZO/pPnK8oZ0QJWQfyCEKKAUNoCRYehv+QWBge3xOOpk5Jo688lPzoxW/T+2eMzVpYwCxSh4kYkk09dnWL32/I16pTSnY9mM3IUYjIXESZrcPiE1OJvMnaIjCbCzZeu0Ic0KcYr3kDPmQoISoeM8NpVSx5sOO4jZGu2Z7TT0FTWM4TfMeNHQ+HNpqtdM7p41mNBbjporr04sYhkEdjgiJCBLrjNbC11qVxRs/6iQtxs6BKjIi4BHIBFS9I1NSSNHMFHJLRn9RbrLqEQFfkj4KK4mf6XvXvNuRUPLQnjrKJLBMIM2apGi5JIbAUZOdFs7KZW5MNxVcrkvc5OIs6WVYSPy+ybxqZ33c4yVvn6RECz2TaGKPTw8i2G2jBTeMY+Zl962+ICu+lO8l1PeSkght3vItJ8gTy14A8pKinDw+M4Nkls8Zx+TnkhXQZpbxvYTqXhISgbykor3t60tqulbSOKg2o1nzvDABXTHC9EE1m5e0+eGZaeuBzC4vQYJ2DjmJ7T22JfcfZiu2f3UqsjssQUPJiwA6QPMvGUs2T7Pnp2kUlTxXUW9DSmLZV53lyz/uWMJ1WmJY+9wxglpJzXb6+PTUytWXpt7rzl+wz0NCIlSfiY8cIz1Fr9dRmPMKSRrBFlzS8BY7Lb45lymcSDRQvfaKnTbMKoorrSY67/r3SM+6d/Q4aSkTiPACDogH4oL4iIs4tMFiRniwyVIx7dkzi0lCjPU8xQIJ0TbZ6MEFOVXTstT5YkUrmibuOtJVMa0aCIyXCXRLDvYLAB/ECfFy689PB1FI3PhJe8Xct1oXEw0QKIt3BAAnxKv0c4MoRAYN+tr3WyseremGKlRu/7yzx/MB03Zr87RVj16bEVTVGpQmbtxvkAnk8eLXLbz4qAAlgKNf4XieA9ZErNPlKpSHZqC3PTa6a3ZG1dzJSQFpZEAkcr1Q7MTIbWCgtA0PB0QeWJhTdUkAvVa/ScRxTsaTJ5/leqHDsyI/CQYBGH60Lh+3ICOB2elPNH61iTgTM/cTsoMbB/qTiuzXNwQSodcK+CLOvgUY8OUXiTiV9m4tzMT8AudB/QE1YL+AK+KLOPsTh88k4mQ2zoXG8mckf4ALlV/EF3He/IWh3Nc0fGoT8XNS2lP6chIvjwV9BTZof/BNsn2p7l5fPmN51URQvST8Hoifk4LOmByBzwgwoDArD7IViL+3QEpvHv4GX+S3H4Z1n/KMmjeoRHXHanXHgVNkZJ92PUS82lPkHrUL3oLlisfqNtvlT0qeMAypGwvfIm335670tGbHY3VaBouacE1MSHMpR+4RAcQfefDkyS2JuKxwBaxKk3ujnuALvRvijzwgH+5Sc0sirgvllhW6Cyk/lw4BWN7J8eEmRUEScWU2t7AX3gJZIgAB4AH5QF6EciNIIi6t51ZmC4WQn4UHAVgp/x7yIiDDhhi4uSW3HFapxdC4MDdRLbgrzgwbUE+ZLAKwROAj0MYNe07S9m5bYZpWMWQTzzAS/wO7k2BgH1PToyfvycqCLnqzIDVlp6Km0WBgAdqOZrYYyuGeROiKKjK3d8YUgUhcPyFN8BP1QyV824ph+x/yBC+lc3/kkDYRN3i2dML+QFkiFgHcv4k8uWZwCIlNsENXnl5zhScCr2H6k+PJJWtOEnGP/E7cYh2DEvX1KI8T5An5cjx2dmzQyAG3R97hEkO/R9v7SfoOfQ6/SF/dOub0hKfhI3e0sQy2DDi+BgvkzP7CDy20+rtGfjkj4h4zmcw4K42zeQLTJ539ME4ASfHgngDuKgF3O0TcbR8Iz0USRf8WTc4m22aAYR4QJ4mksoOSvpDvhwwIJkbNNNJ8XTY/MPTSGOWTenv19OTeBdNSNXx37r4E5n/X5BLozZ0tq6vHKBpiuGabjU8i9sUjuDJxr/e/DhmLCFqtiFBJgQ61m6xpbfiRhQo7I8kE3GGIIaowoLzZKtYezrGYHUYRzx/qWocF40jsSAXLSXEC1ZWoRY+RyKDr9/UdmfaGe8conr4qtYOEqzYGvhZ/adA6SURTW7L4hgB+H794VNw56PueKUnp384ZtT9cGvmXczPXYj449UNbabL4hsC3d2Zj+3qS880w9DeZqitBI/eHQyMdvCl7wFqhZssZAhPevpUiDL76LZRZv6ctmZ/0+7W9WiUYOKg32wXd137QwTWWJmgUhcKnTUzrW7YHhhi+SreNmPus44d4ByLvIWT65B2N9IhB2hoNjRSitUmmdH/HA6u+NG6APviQvEl9o8TOiUAW+h11lRA+6F81mFMhd3RSw18/NGQ4nuALC8/BUqNSKGEM5kh7MFwemNb878LR40AT6/hRWaz2z9RP6S/DjpRkAuZAK65KXa/MGhG/gSjCO7RIV6tIW362YOmfr6V01f4G0rhw9DB36H2q1E/qLQ/naXsLrkgTHmL8s452rhhLUlTDe7gQvpl5vG6kdXWuGoix8sH/x772hr8f6h7l4HjW+ZlYlQ4jEMOpVezlk7Y309ouMz+a0N3DFNyrJ0wqFg2+cvZCQ5eU15gVHmpyTTwhjVY7foUQkngF1CBZCTDqFxBuiAHPE53zUkM9ASGZxMaQN2pbIZXhko1Wr1xkfKqbiAb9nOi3HrxIozBfk6XunZ2t7s3WsL1o9YyrZVziEe0Siv3brLh1SrTYy6s1REsj1iLSQ5voSSyLcvK+ceNh52EjnfehAapvNx4CeQytgb6rn7BoclkW3xB45WADfssb2rHxLSiZNyWZoat073Hts49hfPGG/LFoMzvWZUidGERhvzPYyO5aM7z/gckdrzUrBgZ1gYUXCoX8KdHoeaTI3r10SGWzb98Gux0gS4Ihwhs8t8E8K7AiwbWZ/LDoXlMz0CVRbtigEHKfOZPhZuSS4zIE3X+2g8lqV4FhmCUx/jg8Cui9+KCFuVrs3ivyx8SX66kZuqphFxO8TELdc6QVn1vc5BHtguN72CfwMmI4dEd73vg28MXhjnGjMXe+oBl/7DNB1Ay4s0rG3nSfjs1wP5fLj8F5n/d8O61pgT0tIks8dOwY9ZZTVFJlBKxuHx9Pt16bHuD7LDIKXqJLh2X0KF68eXS+4JlW+r1RdJNuXJr4njFE4k8xU9ITyeG5GUGB4hGxCHJ8+UcLve3NepiQ8DCGEiG/SmRSSk3MHCE8phOhLGGNYt8pCzWYrPRLvYlU1poYAyxqve1d+MgeYgKRPyWe3CLYXoQVkuhKvKnXdiSr8jTu4Txbw+DBKxII8sfi0TtSiiEGhzR/fLPjonCtEkT+WDw7SUqx4Nr5GBIY/B/5oiE0nRZfYEL+WDz8SkrpxS8KMSQjq+vD2sgjfyyeXialtEnZi5KgYAYLe4EEybhNAvljxyTBaFrCZrGtpw/nHz93m6socpj+Wivttw77giVdCYA35I+9MAO+wkg5Bw4JP32wW/DTj3SlDz4ls9V++NOT4WsLuRIAbwea+jayTR3mBwWnnIIvp3AM0CWu/Nk0Vdgxep6eV90wWezJbL9LD1OBt/4qwcriCZ5ifx7xlplGYzR3biiz9O2WYycj4RMedBIXnJ9IWDyCdXx2mjfcRXU/A0sYjrdbjogaqQSR4UqBDrO9ZuuPpglS9iPcFQ15SwD+uPEFHsEqqUCVevs7MECOMoF5cDqmunFq2KvRQdwcvHEkvgRn6EqN5+GO6Bv052w9Q3v6pewFemYFzz5GHxyJVXAIsuD3OM9xBOVq7beSWbtbo6ZxHL+tnp6JIAKRLzy8Gkk4O0IMx64ooNC+bMw+lmVnYGYiTbANxCpUV36a6q2RVXMM2xWF4C06j9ubIS2O8Aqds63+KmkT9TE13FEFKzzStpyJOAKxBPdMOssXV53iw/7uzhJJx4uYKMgJqBauebUl4qrVqppOPVOmn9puj5w2cAAx+A/jQ2uXwXmGsZNEPEcexothAfMD+JA6Y3dbWNJ2AjN4gV8lcitP08X7jTkujQ3fW3jvgafyP6TBqu8BOdsmwv082PK9M1xbvoHCaRlqcnDuKDiudqAtcmRSil9I89vzX2q+8GgD7BAbgooUqfuXxsILR5Hqq9XOXDo1EaPJot2bwlGlckWALB1ss5DkrfX05R96juMzJJNzC+E/WAH/3aRnGyjzpP7Co42RTyDyk4Y8ucgQkAA0RWZ1Z39LD2+9pUsASS6hI5gZpyI365THqm5Mb2EZ9nIxtdPQZTn61w8Nyo8abRPq0bab0FJJSQrqfyIjNcmkeWEK2M84a1FqCIkY5ebjsAtptz4ytmcMtpLZ8SrSZOyr3Tw9lf3zBRoyOklphEJc7A0CIP4Y+KFv/89Eth7qIrUG+8R2mG9sN8OaYSz5sNJ7izG87pjd0pt0ZOV4l7U8QsUYsLJ4ZmNEWllEUnERMEzbpauURAm/cVAeVCT8o1DV2OHCAr+4tLuzz8pdDxAGHhCFaBY4qq/u3px1ucmqIQb6BIv1wDeUPvSxHlCJ5hLHWN6BqQdm6MhDFw3VQizlkI6No9jXjTAVkG54nWWJHASAD44XgRwJaiL6KzhEacmnsjYKYCb9I2CpYLqOlEwdroWYGUFNRIe7x/avJl2yNiIWYRfQQo4PNxlxq4noH6xI06WvQ09VrljdwBf6x6h75X/SkXydsBZiDtxqIjrmjyUrGDh4Cq9lCQ8CiP+SMWSFp9Q9kghjsbLCvKTNYZvF8ZTzX4IbtGYFgD/y4Km4HqtTDAgD5qSFnxPjMzVyteoJSLHdsPK862Idqb4UrIQyjEcbNR41ETOGETw2xZ5PYaApdkbl+NwjgHg/Ntme741AjMEriegJD2IsmzGiEjYyykQiIKEWwBnx9uUATMyK1+rUNb/FP1G67h25WnXFROxrrEY3ztKRonPd90b5afqkiY5AhROJ5qZf6/yk3hFa/vWKABB43SQdQZy9+nXx4BeJUD/3br+CzCe98iSAC4biXQKu/55J5iPO/kTqF4kYcUYCs/PAXTlVxCQT6Q/QXv322CjimqJmdnr1y/PgN4kY/pIsdf6u6zOqCCTMi0++DQQBwHHX7IwqxDWQ4AGRiAnNnZyUXzpjBGik3GMNBHhnGMAPcUQ8nc/8vAiYRExn1WWp+WvztDKRfoLu9A4EIn6Io/NZABd+DTHcxV/6uaFi1ccdi4kGPrXL4hsCUIWiBgZLICYmGui7jnRVzH2rVSbSFwoH28BgqlDXZEQjESM90GSpuOSZM4tJImik3OVxxXngGtGGYQT2QgPtxAyPVERNdETebaHz5uwjO3YflWd2HJjgL86/4EAex4GBDCNc4+Jfi6qJjsjhy0fiI8dIT9HrcDYxngbySxeYCy2+OZfBmRh/B/K+QBdU79RdAphRnPsruxImzaEH5vssoLsYo/M5V24zTGZfkVqJeISCQEQm5FrSY6FL7jtAKrZ/dYpbLxqddASQa5gHuft3Ywl+xvP1a0QAqXBBQqKJrpnRqJnK6stI8v0XaUtZqFZiXSuxfFjOwinaUix3qAlErEOuia6EQlu5fMsJ8sSyF09SggdGxFIPFpGE1YHlc8cx3NokL0sqXHEJ9lpSEh2Z/b7JvOq5hrjHH90TA2QigrCksOD6cQwuK5yUrip1lFOq37CQ6CjcZ/reNR90JpQ8+GYdZRJYJpoUE4HDJRSFs3KZG9NNBZfrEodsN3OUUYrfsJLoKGCrwVr4XLuyuPijToLnyIfLAKwjPx5/ocMyMiWFFM1MIbdk9BfxN7d4DBsix4gg0VE2aDMVD+ztKK6n2jXVeFw87MKLCELxixtssZ6XN5rBjbibrh5RBMOFiNnMH1EkOsjEXzxHHo8hj0tOKag62k3wDF1Jj8yFszTYlGQyb6KGMD2dm3CPfEKcYr1rHiPlOmJJ5AP0IhyCvPJro/aGCRlr8QRPPAASzz7kNBXt7gbSoGLpUZ8GNI2grTQ0tYWWmtDQz5ypcNZyFEjUkMjHEk/wfPaHXu78QDx+Dk8vw8Ov8OwkPHqnBU7dsQM5aOgYzZyj1Xo0eo42s9HkMlrs1YHB16/BXujsnDjroilagsYK+elEw/3/AWJnvWaIb2j0AAAAAElFTkSuQmCC;" parent="1" vertex="1">
          <mxGeometry x="534.38" y="303" width="68.75" height="68.75" as="geometry" />
        </mxCell>
      </root>
    </mxGraphModel>
  </diagram>
  <diagram id="iLdBKM1YqyhpGDXHyGCn" name="COMPUTER">
    <mxGraphModel dx="1674" dy="907" grid="0" gridSize="10" guides="1" tooltips="1" connect="1" arrows="1" fold="1" page="1" pageScale="1" pageWidth="850" pageHeight="1100" math="0" shadow="0">
      <root>
        <mxCell id="0" />
        <mxCell id="1" parent="0" />
        <mxCell id="ZYfU5RlasqrC-Ns5ZQEX-14" value="memory unit" style="rounded=1;whiteSpace=wrap;html=1;shadow=0;glass=0;sketch=0;fontSize=16;fillColor=none;strokeColor=#2496ED;" parent="1" vertex="1">
          <mxGeometry x="321" y="67" width="204" height="272" as="geometry" />
        </mxCell>
        <mxCell id="ZYfU5RlasqrC-Ns5ZQEX-13" value="&lt;br&gt;&lt;br&gt;&lt;br&gt;&lt;br&gt;&lt;br&gt;&lt;br&gt;&lt;br&gt;&lt;br&gt;" style="rounded=1;whiteSpace=wrap;html=1;shadow=0;glass=0;sketch=0;fontSize=16;fillColor=none;strokeColor=#E05243;" parent="1" vertex="1">
          <mxGeometry x="325.5" y="258" width="195" height="202" as="geometry" />
        </mxCell>
        <mxCell id="ZYfU5RlasqrC-Ns5ZQEX-4" value="" style="shape=image;verticalLabelPosition=bottom;labelBackgroundColor=default;verticalAlign=top;aspect=fixed;imageAspect=0;image=data:image/png,iVBORw0KGgoAAAANSUhEUgAAAmgAAAFrCAYAAABlk3V6AAAAAXNSR0IArs4c6QAAAGJlWElmTU0AKgAAAAgAAYdpAAQAAAABAAAAGgAAAAAABJKGAAcAAAASAAAAUKABAAMAAAABAAEAAKACAAQAAAABAAACaKADAAQAAAABAAABawAAAABBU0NJSQAAAFNjcmVlbnNob3SlWfqYAAAB1mlUWHRYTUw6Y29tLmFkb2JlLnhtcAAAAAAAPHg6eG1wbWV0YSB4bWxuczp4PSJhZG9iZTpuczptZXRhLyIgeDp4bXB0az0iWE1QIENvcmUgNi4wLjAiPgogICA8cmRmOlJERiB4bWxuczpyZGY9Imh0dHA6Ly93d3cudzMub3JnLzE5OTkvMDIvMjItcmRmLXN5bnRheC1ucyMiPgogICAgICA8cmRmOkRlc2NyaXB0aW9uIHJkZjphYm91dD0iIgogICAgICAgICAgICB4bWxuczpleGlmPSJodHRwOi8vbnMuYWRvYmUuY29tL2V4aWYvMS4wLyI+CiAgICAgICAgIDxleGlmOlBpeGVsWURpbWVuc2lvbj4zNjM8L2V4aWY6UGl4ZWxZRGltZW5zaW9uPgogICAgICAgICA8ZXhpZjpQaXhlbFhEaW1lbnNpb24+NjE2PC9leGlmOlBpeGVsWERpbWVuc2lvbj4KICAgICAgICAgPGV4aWY6VXNlckNvbW1lbnQ+U2NyZWVuc2hvdDwvZXhpZjpVc2VyQ29tbWVudD4KICAgICAgPC9yZGY6RGVzY3JpcHRpb24+CiAgIDwvcmRmOlJERj4KPC94OnhtcG1ldGE+CrIhs24AAEAASURBVHgB7F0HfFXl+X6z9wAChBlm2AgIAhIURVScVK2r7llHK9rW1br+raJ1obVaxapoK1qrRbRixQ2ICoKy90gYIRAyyJ7/9/luvpNzzz13JTfJzc37/rg553z7e+4N98m7vjAiqueXW6mv91jttp9UCAKCgCAgCAgCgoAgIAjYI1BRUUFxcXH2lVwa7rZGKgQBQUAQEAQEAUFAEBAE2gSBSG+zguHFxsZ6ayb1goAgIAgIAoKAIBAKCMByVltBVJRNlLOcqKaSqPckos6DiKISiMJaRrdz6NBh2rZ9G2Vn51BeXh4VFRZRRSXPzRIbE0MpqSnUrVs36tu3Dw0eNJi6dk0LKrQDvf4w3p1HG2Z5eXmbEbS6qirKX7WM9n/0bzq6fRPVlJWoNyOmS1fqPHYy9f7ZZZTQux9/WLANkVBEAJ+BA5/8hxL6Z1LqiLGhuEXZkyAgCAgCQYAAUwEQs/paouJ9RNlLiQ5tIKoocqwtik1xnQcTZZxI1GkAUUR0w3dv879/V69eQytX/UB79uzxC4eMjAyaMP5YGjeubb8bmrP+2277FVWyIsxOgpagFW1eS1v/OodK92y3W7cqCwsPp/STz6KB191BkfHM6kVCB4H6Oirc8CNte/Fx9RkY/eCz1Hnc5NDZn+xEEBAEBIGgQMBEzEoOEuWuIdr7HVF5PpO1OucVQnMWnUiUzoSo13FEyb2YqMU0maht2LCRPvv8c8rN5XmbIenp3Wn6ySfTiBHDmzGK/10Dsf6XXnqJamtqqKyslKqqHNpCvRKvJk7dsDWv0JpteuI+Q2Pmbu76ujo68Okiqj5aRMN+80eKiGWGLxISCJTs3kEbHr2LqosLQ2I/sglBQBAQBIIOARUEyCQMWrKcFUT7VxGVMVmqYy2anYCwVRazdm0ZUd46ou7HsEZtKlFCdyZpEfxyKOHsulrLFr6/iFau5PkCICB4/3xzAR03YQLNmnWOGtHfAMcwPy1xCxcuou9XrgzA6pnjRkZSUnIKVVSUU2nJUWPMoCNoZfv20LYXHjPIWVhEJGVcdC31mnk+RaV0orpqNnt+/zVte+kJqipghs+Sv3IpHVr+GaVPP8vYmNwIAoKAICAICAKCgBsEQMIqCogOb2Zy9o3D36yuhhuzRs2bwAxafsRhBkX/XhOUVq0+Lo3yC4vpyJEjVMcKFDspLS2lxYv/R9k5OZSYmEgx7FvmLzmyGxdlIEwH2XftwgsvoMKCAjp06BAlJye7a67KMXd0dDT16dOHIiIivK6luPgoLXjrbb/NsR4X0VAZy0qmSOY8R1npBPyCy8TJbH7H/L9QzntvqOVGxMTS8DvnUJcJWS57K9m5hdb93+1UeeSQqus0egKNuPdxF1NnVeER2vfff9HBLxdTxcH97NsYTvG9Mqj7SWdQrzMvpIi4eKex0f7He2+ksr27KSo5lY754/NUV1lBu958kYo3/aQIYtKgYTTwmtmUMoz/emAp3rKedr7+HBVt/JHCo6IpZeQ4GnTdb3ievk5j7/3gLdo+70lV1pMJ58Crfk05C/9JB/73H7WPyPhE6jplOvX7xY0U07mrU1/jgTE6ynvPeXc+HVn9rSKywCkpcyT1mfUL6jL+eP4rxtWBc+sLj9L+xe+qYQZd/xvqcco5LnOD4PY5/wr7uXle7FPjUMuYRKd05vWeTL3PvZTievQxlqhvrPsddO0d/D58RNnvvk7lB3JYMx5LncdnUf/LbnLCyrxWPZa+dhk/RX0moC2tLS+j3M8+oP3/W6jer/pa/OdCpH0U+5x/pdO4egy5CgKCgCDQMRGAOZOJUw37PEEDtoc1YcU5HBDApjWlTWsKKkwjIqJYi9aN6npMoPe+20vzXn+LSsvKXYasq6vn8jKqra3junpKT09ns+QIRdQCRdJAbCIiwmnb1i20c+dORb68jT1q1Ch64oknKCEhwSNBAzl77bX5lHuweSZZM8owcVoFJs9ith4FlQat4vBByv/uK2Ot8DnqdAzbuW0kkZ3G0085m0p2baNuU0/loIGJzuSM3/y8ZZ+yH9sjhjYOw8AsWpqziwnVXxVhgWk0ZfgYmxlYy8vauh2vzKXCdatUP92oeOsGWvvAr2jY7x6m6qIC2s7aPBAWCK5HfviGfuJ1jbr/aUocMER3c7qW78umNfdcTyU7txrlCII4sOR91X/k75+gpMHO9nSMvfPVZ2j/x+85rQflWCNeXY6bSkN+9QdFnoyBLTdHt21QgRfQVmrB3CBUhRtW06g/PE0xad10FfuM1tDut/5O2e+84jRvVRGTXw7gOPjlx5R5y73ULeuUBl8Eo6txU5G7jzG7lcdn/4YGwboPLf9UEV9PWOn25mvl4Txa96fbnfDT9ZX5h5TpO2/pJzToht8qMiqBJBoduQoCgkDHQ6DBz6y6lKhwF/uYfcsBAKz5qil3ELZmAcJj11Yx0dtHYSWHaGR1BY3uXEZfH8ijg8WVVFNbr8gYpogAkWswJYI07d69myo5SnP48OHUuXNnpcFqzlKqq6vZny2XNm7cSPn5+VRTXWnM7W5crAORoe40fuZ+0JwFkpyZxzbfK5NnUkpw5UGryDtAFYdyjXV2mXgChbPq0VYYVGheRt33FHWfdroyf5rbHVnzLW159v+cyJm5HveYa+Of7+Uv+S3WKvUMDU3BT987kRLdEOQCfbc+/6hBznQdrtDs7fvvO0xuWBVsIwVrV9qSCzRF363Pz2ET7mGjJ8bZ/c+/KUIEkulO8r9fSlv+8ifeN/8iuhEQKjM5MzcDYTz41WJzkdJQWcmZuQHIHdZbvHW9udjpHu+HmZyZK71hZW6Le4XFgpcM/PqzxnHqO0tp2qKVNOGv/6KEjIGqC96jPW+9TGX7s61DyLMgIAgIAh0HAZgzC5iYrX+b6KfXiQ7wH8oga9YggGYhUk9hdZWUmRZGfzhvKP35stF0yqhuFB/tsOiEs+lOkzNMAw1aDWuK9u3bR99//726+kKS3C2xiiP+d+3aRT/88AMdPnzYYSIMj3DX3KncF381+Jz5G2XqNImfD5FRUcFF0MqydxDSKkBgiozpwo6HTRCQE5hJ8QUNgalyxF1z6MT/rKAT3l1OQ2c/oMxrqAM5yGZzoZ4XZWbBOvpffrMiAFkLPmdz61Sjuo4jLsLZuW/Y7Q+psSe++B5rzDKNehCWmhJ2qHQjMGPChDrt/e8o683PqMeps4yWR3dsptzP/2s8l+zaytq1RcYzzKsgI9Pe/56mvPGJU98jq5bT4RVfGG3tbtD/uBfeVXOPuOfPBh5oW8SmXI0dSOy+DxYYJBWpLibNe1/Ne+xTrytzMfrUlB7ldBjvuyWkaAPT8thH56k5xz3xqpMp1YxV5k130/hn3lTvG/pBEMUJAjbq/rlKs4k1QvDedjnuRGP9CX3608CrbyOYoQdxdC/wje/pan5VneWHICAICAIdAYEKDrba9x07bLPFpirQxMwZwHC2eCbFRdLofik0a0JPGtormf2q4Nvl6nqDniBlhYWF9OOPP9LmzZsJqb38EZCrkpISWrduHa1du5bg46YJF+Z0N68/cyBaM1ABAf7MG1Qmzjpm01oiE5OdvqB1uS9XkJmizY4vcBCszJvuYl8pNr+xINAk/aQzmVCUGP5g8OUqZXKIL3WrpE08kfqc+wuHJo99pnrOPE8FJeh2Pc/8OWvwZqq/DOCH1XXyyYZmB5oe/UHR7fUV6xp0/R1swp2girDfgVf9ispZ21O4frUq00QJvloIggAJgsSl91ZRq7HdeqhnBE/AJ66STcRHVq9QZOrgFx9R2uSTnM2+qjVRZEISz93oIwe/LviCwdyoBBo6/tBDjrI5t2yfQwMFQglTZmz3nqoOeA244lba8Nhdak6YWCvz80ivSzVq+IH9oq02Jyezzxz8AEGOIZ6wahjC9oIoT/ih9bv4OgKGEJjGgyklx8x7ZtuuXQoFgfaOwOI5c9v7FjrG+uM6E2VyEB0Sze7mP96L2O+snr9vG/6fDxQI+NaASXPnwRJ6a3kO/e+nXNp/pILq8cXrQfA9efToUdqwYQP17t1bJaJF8MDevZyPzSR9uE5Lzt69BrkDMTvIfmHQyFm/c8OZHNbWuLc66fE8XZEKpC0kqAhaoAAo4aS2WiMW16O3QQqM8dk8CuK1j32uytk3CsQHfll2BA2EwmxmDbOoTFM5IMCsto3wMR8bSEzS4BHGknADggGfO03QyvfnKEd4qKHNZtjU0eMptmu6c1+et8eMcxVBQwUIJwhbZN8BTu3wAP8yc38ENkRxiK+dIFhCC7CM7uycuRnmxGgmbpgLJuryA3ttCRo0XXGWoAnrWHoeb1cECMSl91KBAWi7d9ECZU5OGTqK0mecQwgYienCPnT8PosIAoKAINChEQAJw/+FMUlEPfj7KrU/0UFWYOz/gaiECRD8x5pL1DB+eCTVx6bRN1uL6Mk3v6NNOQVUXlWrNFjhUKvxMkDg3MkxxxxDV111BY0dM5YiIyOUc/+/332PTZ/7VReQs5///HyjO5b88ccf07N/ec4waVrJmaNxmLLIeXINMga1uUES2qbmacOaJ02eqEb9dsV3BFLpj3glaG11zBM0I8oHq/9gf/aj2pp9jqDViohzTWIbHs2hvZHssNggZu2dLlNX1vx4Eith89TWXIe5sQar2BG8Ws4ybPbNUz5WNuTDHJGKDyO0UnYCchbOWjlfBCZgLfAhW3bxSfrR5Yo569gp006aoxG1jgeC1uusizgo4gfDFItABqxP+7mBAGdceA1rN89wItjWseRZEBAEBIGQRYBZTHVJPkXGJbP1iL/uoWBI6ErUj/8f7z6afdE4DxlympWzCVT5o3miUHYoMfHCd1E0k7+ex1J9+gTauWMJbcn9SJEz9IjkiMqEqDqqrA1TL7tRrr7qSrqSX5A1a9YoU2U8R1SuW7eeevTowYTNQVVWfMtmWpZJEycSAgKmTp1K7773ntKeqQo3P8JZg1dLTdOi4YSDpgrImaH1m8zZTN7Z6zRUrZvvaN3IsWv91MbXhL4DnZhuxUFn9aZ1eYggPMSReqI1sSLTds/QoLWGwIR57Nx/0ra/PaqImvWvI2jztjz3MPvFLaQRd//ZKSq1Ndbnbg4xCblDRsrbCwJism8v7xQUY7VUsOotqjy4lTqNv5Di+47lP1g5tZRB1E4m6srZAvazWw20amUcmKZyofmwR/iUxXYiShuqyBml9ONxOaiPIzWZslFcRD1lJNcwuWL/48g62loYTVVM0uwooCZn8zmFxav8goSzcgRpLwYPHkwDBgxQedOQOw2m0L/+9XnKyppCv7j0Erri8ssJWi6PwiQS0Zr2Gjb3PXG2ZmsGBlhXElQEDSY0aD5gdoQU/Pg9J589x1YDAhNmIUdYaq0JnMOP+dMLFN2pCzuF9zX2iXxbteWlLqcM1HIgQS1n7dUSmZCob1vliuABaAmjU9k3wCRYl1Ui+LB6aL20ubF0zw785rmY8KoK842u0M7Bd625gtxsWjqPnUQj7nmMsXTOHafrW/uKPHMIAkCqkyNrvlMpSo5yYIYOcMB6kBIFUal9OSeaiCAgCAgCHQoB/p6o5dQXh795jYo2LKbOEy6htKk3cNaDdCYsrE2L5O+I5AyiRPZnhvkT2rRcJmvV/N2I7xgXOtWgMcM5nGmcQqpPFp/LOZCjteIc30fsAxbBfXomVNOk3kepC39VbCoMo/KacIKV007GjBljFGtyhgIED8D5HykzcB02bJjyMUMwwP79+2nTpk00nMvGjB1DGANBBh4FhBIJdv0QHNzeHIFZk1hzBlH3jluffwYVQYPfUOqo8QZBg8M70lzYJao9smYF5f+w3NhoZ05mq8lOPJM1OKVDqwKNDhLI6iAB1YE/eOgLvykInOahvWtNQUJc7C3B5COG6FOY7bTEcfQhzJYRTLZAXqnhj4TCtauUydPsjI++eV9/orsqkhplIX9GpR83Zr88EEPkH4vv3c+PEQLTtB5h4m4EQRJItYKXMnUyhpvnPqQidNEF2jQRQUAQEAQ6JAL8fVfPfmaVh3ZS3ud/oZKtX1On4y6hlFFnsO9xD/6uZKKG8zRTWLEx5Gw2fY5y+Kflb+E0BxyYplNxwJQZxYwLPmwgc12YoMWy7zL6Y44aniNvBw0o+55uHnGYukeX0TcHE5UFFF29CbRnVoHGC9ozZPhHKg6YBHFKAYIB/BWlQfOzU3Z2jp89nJvD58xq1nRu4fkpqAhaGL8Jvc+5WCVqhe8TNCEb/3wPZVxyPfWYfrbKdQYigqi9XZxoVgcCILownSMC1SeB9wtSgRe0JyBpW/noKEjapGnqGQlM0V9L53GTWp2gYe7d/3yRopJSOdHuKWovyNlVuL6RoCGQQWvBumbN4H1/qDApz91Lm568jzJv/T0lMFmCJm7nG88bAQIgp4iQDMQB8kmZI1Q2fkRy4j1BjjU9L4IrMG9Z9k7qysmC0zhJbqCc86HRxPqxN0jxlg0cmXk841TBvqhRVLJ7Ox365nP+q3CNSsyrSSP8LJKHjlbpTrT/nPK9UKO0nx9l/Nm/79UXaeOeXU6L/v0vrqaskcc4lbXUw7L1P9G8/y6kp26aTV3cBJE0Ze45C+bT12vX0PCM/vTHq2+keDeaXt3O3RytiYW7NbRFucbFG35tsTaZM/gQcLh/sDaMiVYt+5od3f41le9bS0VrP6Bu026hxMwT+QQc1qRBwxTDhKsb+6Z1GsApObY7jnIq4CsTJUrkwLQ+Ux0EDu34e0YRM/6OrS0roKJ1/6X8b16jhD2rqH88LEH1VFCpKQbnSPMTGmjM7r7rd5TRr5/quWf3Hnrsz49THh/lpOWnn35SGjT97OkKguZOoK2zM3+a53LXtyXLNXotOYdfYydkDFKpHEDMQNDw2vnaX9TLbiCQkb4XXOlEsBAxmHHRdYrcoT++5Dc8do9dd5WLC87k5khN24YtUIgEr5ueuk+9rMMnDRzKxzZNMYpTho1Wuc6Q7R+CFBwrb7nQqDffIFcbjowKhMSmdafuJ59Fu5iIQdzNC1Pzwc8/VHnKgH9zBcTUHMiw5+2XCS8ESCBB8aYn/qA+G5hn+8tPUebN9ygzMDRt+SuX8TrXqiVgnK7Hn9zc5bRqfxCjh//5qu2cKD9h9Fi655IrbesDVfjmZ/+jNz5dTN1S2cckSAVYXH7KTLp0+mlBukJZliDQ9giwbst5EUy2asoKqXjjJ1SRu5mSh/NJPOMvovh+xzUQNSYycPqHJi25F9ERNvPVVrPGbDA7k3GAAU4DYLqF/2trSg5Tyfal7Of2L74u4+dDyoqhJyypZu2aam3oT3SVcYVpcto01/+jzeQMjTP6ZdBdd/6WgwmuMfrCJGo2ixoVtjfuCVoFB+KBoOFlJnJFhUW2I/la2OJRnL4uJJDtYNIc/dBflJbIHL1onQP+UUhK2uPUc1zefZCbIb++3+WoJ/MY8OtCklaQwtYWmCdTRx1LyFdmdXCHRlAd19SpMaUFtED9r7hFffitRz2Z1w4t4dDb7nfxuTO38eue/+rofc4lrLo+wCcK/MdtVyShHfKr+5qcu846MKI+Ye5W/namyvqaakrmI7BwhJM+Ygum8G+v48+ARYDZAP58ILlue5EtOXto7rsLPC4X2qeMbulCTBil/636lk6bMCmgGj6P4AdBJch5SxP0INimLCFQCGgTpdN4MHtWs8vKLspf9jKVbFtKqcf+nH3ULuaAKrgIse4GL0R8xjd8DzVooPB9Vc8+amU5a+jw8tfo6KZP2A84VxE2aM3MUlXnIEWG8gqPzk3MzY17aM+05swo5BuUoQ7+Z4EURImCmJnJGcav4GOomiPeoji9jR10GjS9YOQfm/D8O3Rk1TI+3uhdTpjqcP6GxgxkoNuJpyuNkvY70/2MK4PdbeoMRYIQyZf3VePxRuiPw8rT2WxqTk1h9G2FGzjxI3Fr1+On0y4+wql09zblfO/pwHJogwbfeCdHrZ5L+/kYKWiKcB4mypP5ZIC+513uSHwLVXUABeNn3ny30spl8wkNODQemkkQIJgWe542K+BYwtw9gE9wQEqN/RytC20jCLk6n5R9HpDzDSZPmLvzli4JmcPS31v2JZXyX3MQq6ZMa7VQ98O2zTQr60TDPAhi9/tXXjD6QvNlNU2aTWO/mH46PfLmq0Z7PZfVtJpXWECXzXlAmSNvP/8SNQfKzp96Em3K3q1MsAkcxPLwNTfRkD4ZZF4j1glprpbLzpSn5ynlQJ/DRQ4z+B0vzCVPa8NaNAa4h9iNjfL84iLS4+EZYrcPX3C3YoqxzJjhGeJrO70H89rNZe7eW8csjp/WdcNcnH0w19CaWj875r5y384QYELlVpi81fHB5eUHNlLVp08zUfuatWkXUhJr1aI79Xb4p+nvE5hIq8qoYt96KvxxIftLf0hVTPDqjIACt7OoisB+K3mey9/aaD5S0krO/B2jJdoHLUHDZpV5ik8AcHLw9xMFEDiYMPHyRdD+OCaG7gTpHXDkkDvpffbFhJdPwiQS2kK7IAi3/bkPzJ9Dfn2f2yZ2FTg+CS934q0e/gmdxkxUL3djWMu9YeGtHuR5AGsN8bKTmC5d/Xpv7cYIpjKQgs1MeiCaMKmHhh8w5e3Jy1WExOy7ZWcSBVG58ek5BnEyjwO/NpA5s0ArB7ntvIvMxW7v3136hVGX0b0H9enW3ZacoRFMpZDWMkXarc2OcGFNwOKKRx90wslKXtAOgn0Af6298gV3O9KFsUDC8R5oYutrO/T1JJ7eW0/rdmdS9zSX1LUPBFxMnHbL1v5pW76g8uw1lLRxCaVNuZYSBh7PSoxk7lHPeUn30pGVb1EBvypyORm8ynnpWR0WHV5PlQ1aNArz3Na8LGjI9uze7aJFQ1mgtWfmea33sXyaQXnDH8zWOl+eQyqK05cNSxtBIFQRgCYIGiHI1FFjbLepv2R1JYgHHPkhmtSZv+yhkbP2QVutDTITF5DDclbpP/nL2wyyZdbEoa0WqwYIdTA3QrTzvnkdVo2fHseXK0jH+Q/a/3GRwBrWtBRnn0fr2jDHM++9rbRr5jrz3l9iDEF6IbgHgTLvXWuofti6iUDgMKcvuOfkHaQ9Bw+ocTUu5nn1++NrOzWQlx/u3lvMG8dfOP/hzwTEvD87sqkayY92jgCTIpg4feVG3LamvIAK1y7iQIJ11OPsh5RGDQNAa5b3+TPs052LHBg+4ZIYVUuVHCgAy6bD2OnaDSky5s59isw50NDq0ccetwQJ7FZlriP4WuIrCI3jpaSmcFYJh0WjsdT3uxaP4oTzXFudJuA7DNJSEOiYCMDMCG0ZiMd5WdMUCIiK/Bnfg9iAdOGL2RyFiS9m+G1BUH7a+EmGlksV+vDj2MxhyqSpm2Kc+Xc9oB+ptb7wrz9zltoD9qjFujbUac3keVknGevGmtEf2iOQKJAkiCZUemyUgTBjDG36w/58wR19tcC3sCsTO5iCzVjpen31tZ1ub756e2/NRBDvu/5cIDIYBF9rUs1jyn17RwDExA9yAmd5TplRdSSbqgsb0kxw99qyIqqr4LQbPpIzoNYppobyNUFzx9Aa4MVRT2aBpgwBAfA5g1g1Z2PGHEPbtm1Xh6Ob+7m7t4vSdNdWl3fr1q3JxzzpMTxdkT7EkwS1idPTwqVOEBAEOAqe/YYg0PjMfv5pF0i0j5b+IkYDaH+gSWmOIEjBKq1FyjCvWRNmXYd1bWbNZN/uzusGYcJYwO8QazDxbCcgMOb0Jr7iDjIGwgjiY36PtLZTz+VrO93e3dWf99aKhRU3d3NIeftCoL7OD3LmtDVn46gjXZEXluXUnwNB46ppe3GsKvWvZ+NAVmKGmpde+htlZmZSYUEh3XTzLXTggENL3djL9a4pBK1v3z587NQ618F8LAnJKE4f9y7N3CCA/G+73vgr51Rbo6I+VRAB5wYb/ruHAxZl6WZqKW4GAvhyhckOX+RL1/3oRAj0sDC1gXCYfdB0XVteYfYzR5/CnDdu8BDbXG7+rtPsDO9v32BoDxMzfPvMee1A2PDS5kis09d2wbAnWUN7QsA3c6Tdjjiu0VHMlzCk12AfaH+kTyIfxO5QTBtmTitd1CcA4EQAnMnpLW0GNGcgZ5DUTqk0ceJxtHDh+96XBVOvnzJ40GA/ezg3D9koTudthsaTN6f4QOyycP1qWvfQbUaOMIyJiMvwKPvD2QMxp4wRGASg5Rrat58ynWlTk9l/DJGLuvymuY8pc5vWgnjSKAVmdZ5HgfYJxNLs1wQftGAQM/FVmi9Tol+9buBn1Z6Z2+rAgdkcyQpNmr+4w+wM3z4t2qfNmibE13Z6nOZczfvDOAiAEAlBBJqsQQMWjYQsjBOEm599QSo1upbSWYu2txTkzkrNGkeYPfsO5YeGMznx0qcKrPnxJ5cjnGDWhOYM5AyyeTOfeOBNGnKceWtmre/aNY0yMjLa7DzOYI58tWIlzz4ggOz6IGQQJHWdNO99mvb+9zT8rkcDlxvNh3VIk6YhAD8ykAUIyBgOptYvHQ2JOu0/NIwJHUgRyBEczrWAAKDfb/72jErfoMtb+gq/LPjFQVZv2+JyEoKqaOUfmvhi2veWfaGc/HEP3zTt6K8jURGNinsIyJP2bfth62aFMfzVYMr1FXe01e8f7rVoc6I2QfvaTvdv6tXd/jC/Jv9NHVv6BScC9U3QHBk7MWnMwsJBsowan2+Gpparbp7IBrRompRhYE3U7CYpLS1VZs25c5+hX/7yZiZom+2aOZXV+XkGp7nzhPHHmh/9ukcUpwoU2Lu3/Z/F6dfOpbEtAjiLUgsS8eKcSqilYeYUCX4E4IsELY2ntAcw+SEHGgTkQzv54wvW+iWLYAF3Ryl5QkNriEC4zHnQ3PXRhAXtPa3dXf+WLr+BgwHg5I/1WX31QHDvvfQqAye0RQoMvXfz2oA9TLfA1Bfc0RZ9ELBhh4sOaABx8qWdeS1Nuce6dQCJdX8Z7J+3p8GnsSljS59gRcC95srbis25wZrig4bxh6ZW0OrDCV7JnT4VwHx4ujZ/WtcJnzOfzJqqI/vS+RHYYJ1r3LixtGz58iYFCzQ3itMTqbWuU55bEwH+q6fgx+/op/tvpaU/n0pfnjOBll18Em2YcycVb2anRVbZWqWWUzRUHhIzhRWX9vYME9q7Dz6qvrCta4dvF0xlZtKF/GJzb77d0LyhD7RwKDM7tlvH8vSsiYVuA7+3iir3WbVBFEFytPYP/eBfhfVCzFGSqqCVf2B9iJyEc75ZQIpemH2XEc2IOpDkF2+/R2kmzW3R14y9L7jjfUIfYGEVlGkTtq/trGM05RmfCfPnRX9WThjljE1TxpY+QYiAzXeFb6vk45xMGjQc8WQmbL6N4Wh1bFqpz8o3kDL98mcOd23r+ID15sr0k09u7hBN6g+Fpes3vWmo8vJySbNhwqM1bnE6AA4lz/9+qe10OE2h5+nnEY4x0poxnNG5fd6Ttu1ROPrBZznz/mS39VLRcgjAxKVl8Zy5+laugkBQIaBPZzD7EdotUD7PdqgEZxmOc9r//n2U98WzVFcF1xePX/dOmwiPiqNe5z1K3U76lep35Lt/Us47t/N5m/lO7bw9YMbKmjD64w/daHNhHDXLJc7bZJZ6mHfrTFYlS7V6BOkcP348vf7665SUlOSWhC5cuIi+X+k+Sb3d2L6UvfTSS26bSZoNt9C0TQW0YFufe8QtOcOqoK7dx8cfQeU88Jrb1LVtViuzCgKCQHtCAD51+ggrMxFDQAeSCUMQqAKNo0gIIIATYPjoptqKYipav5jPzNyvcpz5vjOT01nDIem+9+UANWZnRZXhtOEIZ+SvrlWHkXu1dfozgae2rDn0Rs48dbfWzZp1Dh3My2u1gIGa6moSgmZ9F9r4uWDNd3zGZqPmrNvUU2nAVb+i2LTuhIPjtz4/h3A4OARnjKZNPolSR45Tx0vhfMqNf76H8lctV/U4MH74nXMkOEChIT8EAUEAxEtHClt90DQ67k6x0PVybT8IwNoS1/sY6nnOHyllxEzKX8GHm2/9ks82LsRf+t43YjJxhvtB0GBVLasJp22FUfT1/jhacyiGCpmo1dbXUAQfTN7yJK2ear1ozrxv3rXFJRdfRK+9Np9yDzbkDnFtEpCS2poaOnq0iMQHLSBwBmaQuuoqOvj1/wyHRhCvzJvuIjj7w9E/tlsPGnLr71V0JmZEtObBLz7iXGfNt7EHZgcyiiAgCAQ7AvB7s/OJ075oTfVbDPZ9d8z1cSaz8AiKTOxCyaPOoN4XPq2Ob0oclMV/uPMZm/ogdHfgGASNNWkgaMazmw5cX1kfycQsmt7ZnkAvbkihL/bGUX5FBJMzh0cVyIedD7WbEf0vZnao5vDDnOvrJMnJSXQVpwFB6o2WEmjOiosL+cCGOu8aNDnmqaXeBtdxa0qKqXT3VqMibeKJ/IuFg2obJYY1ad2yZtCuPTtUYfHW9ewTUOyI1mxsJneCgCAgCLhFAAEOrXV4vdtFSEWrIgCiFt2pN3Wdej0lDz+V4FNWsPrfVJHH3zl22ibmUyYDJ3M5PlPTA0ELj4ymyM79aVNxZ5q3Yg9lF9VTdS0HGrjsEtqtagpnF50wbwTRpa/nAl98zjyP4L0WJO3GG67jKNLm+6TVWpQrFeziVFrCx2k1iGjQNBJBcK3iFADVR4uNlcT36W/cm28i4jlkuUGgPWvKERa6v1wFAUFAEBAEOggCTIjCmEjFdB1E6affRX0veY66TrmWYtL6O04KcKJkwKSRoqmTBEzPDsRYQxcZw+MNpM7HX019Lv4LVQ69mA5WJbghZ404wz/M4SPmSuEaW/l65/A3C6TPmbeZ4ZP2i0svofT07t6aeq1XJk32DzWTM3QSHzSv0EkDQUAQEAQEAUEgVBCA2ZNf0XGUOHgqxfc9lpJHnkGHv36RSnd9y/5pBQ0mSG5j1pjhYG9D44UxwikioQslZU6ltCnXUcKASVQfGU/h3+9V7VDfSO/cY1dfV6s0aUqbZp7PfZfGGjZnQmuGF7o2RSOHPYbzWpsiI0YMJ7xWr15DK1f94HcAAc76LGELWCUnGrcTIWh2qLRRWTQnzIxKSqZqtj9DynJ22abGqDpy2FhhRFy8RHEaaMiNICAICAKCgD0CrpoqmD0j4pIoZdSZTNTGUeGP/6GClW9T+b51THrYOmMiTGFhEYqUsW2SIuNTuf14FSGaMnImRSZ14zr2M2OLTp8+fej000+nykrkTcSc3mhaY5vKyioq4ZMCysvKqYL7V7M/FnyxICBRUVGRFMu5BePimVwmJFB0NPvFsTgRSVXi349+/fpRpApe8K+fbo1ktngdOnSYtm3fRtnZOZTHEZ9FhUVqH2gXGxNDKakp1K1bNwIxwzmfSUmJdOstN+thXK5C0FwgabuCiLgEiuvRh8r2ZatFHP7uK0qffpaTH1rl4YMcpbnMWGRiv8H8y9Jo8jQq5EYQEAQEAUFAEGCSVFtRQlUFrNlibZVZYLaM6dKPwqKiKTq1J/un3Uipx5xLh5fOo8I1/1FNa0oPU0Q8n0jDBCwsOoHie41mjdm1lDruPP5uSmNixjSigciBRE2bdiJNmTKFU3oc4EC2EjVuOPezk9ryIlZIHKTIhM786mKMY24L0pefn08FBQWUwKQsPT2dIlibV1JSQjhRAMSqV69eTNai3RI1jHH06FGKi4ujGCZKVgHB89Tf2t7dM87uxOv4yb7lHK1woznT4wtB00gEwTUiNo79AU5RaTSQ6wwHn2994TGyptkobQgQQJLa7iedwRo0Vj2LCAIhgIA+lBxni+IUAmtEoa/JVN1B4W585AG779UX6djBQ8V53h14Ut4+EWAFVUXuJtr3n3upls2XteXFStsVEZtEkcndlR9adJcMJkdskmTCFpXai7qf9jtKGjqdijd8TLkfPULpZ95HUUzGup/8a0oceDzFpA+hcPY9cxCzRg0ZeFoEO/9HMJkrWreQSncspx7cN5ZTfbgImyeLdqyhgx8/Rl0mXU5px1+l1mBth7M3Fy1aRG+99RYNGTKEHnjgAerZsyctXryY5s2bpzRSTzzxBPVjLZidJg3kbP369fT222/TLbfcoiIw7drZlVnX0trPQtBaG3Ev8yGv2aEVnxuJavOWfkJ42UnPmedTyjCbD75dYykTBAQBWwTMyVtB0EQEgVBDAEEBvc79E9UU51LOv+6giKSu1POs+9m8mconDJRRVeF+ik5Od9xzG2i0ojv14pxpXykoKg/tYOvOMOrCJKqmNJ+q8rMpPCqGXXK6s/YtljV0R5n8HWGCF63GiIhLpiT2SYvj4IMoJoHIuVbHudequS8kgk2kmKO+qpxqWNNWz/3Rpr66nAPlDqlkumgTwelBEARXXFysNGbZ2dl8JmYupaWl0YYNGwgaKGjWYApFO5x8dOjQIWVqRQYKmBOhOXvnnXfoiy++oDPPPJO6dOmiNHEYB/2hUdNauWAjaULQ1McleH7AXDnkV3/wetRTr7Mvpv6X3Szas+B562Ql7QABnLP57wcebQcrlSUKAgFCgNVakQmdKLL/cUzE9lF4TLzKixbfbwITokra/eoVHMU5gHpd8DgHCXxH+969k9JO+CWbHnOpMm8bW0X5uKiF96pjn8r3ruVkt6+zFq6QiVkcdRozi0nb1VS681vK/d+fuSyG0z4dVibQmqMHqWTHN9SLNXI1R/Po4JIn2bdtPeftrKLYniNZs/YH3iD8y+CDRsoEe+iL56gse40aB3na0k68kcLSxynNGHzbYKLcsmWLIlT79++nkSNH0sGGpLGFhYX08ssv01dffaWIF45tuvnmm9VRlUuWLKGioiJ65JFH6M4771QE7vnnn6eysjJl2rzhhhsUeYuKcvi0qQUFwY+mhS4EwcJDeQnRKZ1p1O+foGP+j0OgWaMWGZ+ototrt6xTaNyT82nQNbMpnG3uIoJAR0cAZssLHrqbcEbksvU/0ZwF89U9nlGOei3Wtmh/2ZwHCFn1IW98utgYR/eRqyDQ/hFg26Ny1sdVC+coq6tRPmDV7GeGaMo61mhBm1bHvmOpTL6i2PQZ2w0pOe6havZhO8DmTmjEep//OCVxBOjBz5+lglVvKdNpxaHtVHFgI8X2GEEx3TOV/xlIHsaqyNuuIi17nPF7jvqcRkVrP6CSzZ+bkqzXU9meVXR42TwOPhhLvX42hxKYQEbEJDJ9cxC4Tp060ZgxY2jt2rUqWhKmy4kTJ6rgAWjPDh8+TDk5OXTRRRfRFVdcQbt376Z3331X+afBJw6E7dZbb1Xm0eeee45qOGEuTJ7wm/vLX/6iNHE6IEEj1NZX0aC19Tvgbn72B+g0ZqJ6uWtiLYcP26j75TBuKy7y3HEQePifrzptVvmyvfICPXzNTQTtmYggIAiAqpmIGpObBg7E0IAM4UUqqW1ENCsHWAMXmz6U8j7j7xZu22XyVSo9R2RKDyre/Bm/PqfkYTOUebPLcZwX7PS7WUuXoPzX0B7RnQmsvcO4FblbqOLwLkUGkRpDz4X5oni8mK6DOZJ0IVUy2UvoN5EJWhLVNaT2gPZs8ODBylSJ4AD4oeEFsyReMFNeeOGFtHHjRtqxY4dh9kRgQdeuXTkCNIoGDRqkTKDbtm2jE088URG6fv360WeffUabNm2irKwsLCVoxKsGzVuUQdDsRBYiCAgCHR4BHAD+j3seosVz5hrHGYGk/bDVcRC4FSAEIaA9+kFwBBL6WoMTrP3kWRAILQRA0tgHjDVqDnFo3DT5AUmDqRMBaWHR8RzRGcn/YjmwM5q1YNWKuKEuKiWdwtn/DAEHWmo4UjP3oznKdFpxcCvFdcvkcVx1QzgztN/VrymTaXVJPuUueYLNpo8p/zaMhWjN4cOHK3+0Tz/9VAUM6NQY0IZ99NFHdPvtt9OKFSuU71lysuMUHr0HXCHQkkH7Bo3brl27lIlz5syZBA1da4u3k5oaUWztlcl8goAgIAgEGIHTxk8iHAgOOW3CJIN4BXgaGU4QCAkEELUZztGc1WzWLNvzAxWvX0x11Q1JUx0cjWqrStkXjTVaGeOZwNVxnrQFVMa+agU/vE1V7OCfOOB4drdh0tZgQnXQoEZ4ajk4oCxnDQcGdOZ8azNZjwYy6NDSNbbivJ+7V1Iem0yjO/fhbAbXOIIIcASV0rQ5WnbuzGOkpHCesWxF1nSCWRCuNWvWKPI1depURdCqqqqUZg09Qc5A4mD2RJBA//79KTExkc477zyaMGECHX/88dSvX78mJ6w17yOQ90LQAommjCUICAJtikDf7ultOr9MLggEMwIgKiBTiLzEPfKYdWazJHKW7fr7pezUv0IloQ2LjGIlWCRFdeqryFnOO7er46HSOCCgcN1/afvz5zKZeo5SRp9NXaZcrUheBJs1HcdBAQGeh9NwYC74rCWPOF0FHWS/fRufN72SyRfnPOM2mCMC6+HjpxBgUHlop9K05fz7t9w3jv3gzuVI0xTWcnG+tpgYglYMWrT4+Hhl0oTZEloo1E2fPl2VP/3007RgwQLlcwYNG0gcTKHQnCFFx969e+nnP/+5Sr1x44030sMPP0zvvfeeigANtvfOVc8YbCuU9QgCgkCHRCD7YC4RmyBFBAFBIAAIMCGDFqv3BU8q4gQ/MfiHpWVdR3F9xrAzfxlHc/bjVBx5FMVaLCSX7XXuHzlH2WUqHUdsz+EcfTmckvig9VoOKghnB/7YHsMVgUJuNJzDGdO5Ly8UPmFEnSdfwRqzM1QbRIwmD5vO5XwaQKc+VJm/2xFZyqk0el/0DGvN+nJC21404PoFVH5gk0rVAU0a0oPUUQTNmvUzdTIBiBj8zE444QR1YgG0aXfffbcKBMjIyKCXXnqJjhw5ojRkuEKLBk3ZBRdcQEOHOlLojBgxQvmjjRs3TplLkfQ2MzNTpe4IAMoBHaLDEbSqwiN04JOFnFtsCZXt3c328xplD4/v3Y+6n3ga9Twd2ZEdtuuAIh2qg7H6+dC3X3HYdRmln3xmqO5S9tVKCKSlpFICB7vAb+y9ZV/QsZlDDed+RGCiTEQQEASahkA4a84SB03hzsygwKJYwjldRuLAKUqjpgo4AtNRz4ECTJxAqFRT/GDLZELGOLZQsvO/o1CNAwd/+J+Zx43jwAKHYC5SCW71M3KsaYlK6cm3jjaRiV05OjStcXyeAyd6Dhw4UDdXDv9w+ocgHxpMlo61kNKu6bVBawZBHTRukxuy++MZLxA0LbpMPwfLtcMQNBCx/R+/R7veeIEPgy1xwh91pXu2087Xt1P2v+fTwOtupx7Tz8Y769ROHkwI8C9oKRPcbS88qk48GHT9b0yVcisINA2BOP4LGSQNaS9A0mY//7TtQEP79jN8zWwbSKEgIAi4IqC+0yzfa4qwuDmNBrzJ/D2oujo0ZE6D245r8aAyjwNCZiduxndag6WftU4/66turv3V3D3r8mC6WhAMpqUFbi0gYDvnP0fb5z3pQs6ss4C8bX3uYdq3+F1rlTybEKgqKqANc+5U5MxULLeCQLMQiOfjy244cxZr0WLdjoO687Kmua33t0KTQvSTPGj+oiftBQFBoKUQ6BAE7eCXH9PeRQtUBAqAjO2aTiM5EewJ7y6naYtW0pQ3PqG+511hhP4iUiXn3fl8aPmelsJdxhUEBAE3CCBf2et3P0jDM/q7tEAZ6gKZ0wyk8GcWwqf831xmlwJBQBAQBFoPASgUXeNdTfPjbCtvuTpMzYPutpo1PWsf/DUd3eHIg5Q4IJNG/eFpdobs5rxWNtnt+++/aPvLTxlEbsCVt1Lf8690aXd05xZF4I6s/lZp5HBoeVLmSOoz6xfUZfzxrBN25r0lu7bRT/fdzFEshQRftzEPv0DFWzdQ9juv8rq2qPE7HTOBBl3/W4rvxU6W7Nd1+PultOsff1OmV5wg0HXKdOr3ixvZCdNhe0en2opy2vjneyh/1XI1xugHn6XY7r243wt0ZNUyzuRcwc891bp6zJjFTp/OJw/s/eAtpVVE56jkVDrmj89TYv/Baiz8MK8bzxi/87jJZO6HcrOo/T3yIjt8dnYUM67FW9bTrjdfpOJNP6k14aSErlNOpt7nXsrnu/Uxd+cs1kfox3tvVP6BWNPIPzxJh9hfEH6DdRwmnTpyLGXedA/F9XTu5zRIkD0go70W5NgSEQTaMwLyeW7P756sPdgQsJpizesLeR+0oo0/MdHYauy515kXupIz1LJ9vNvUUxXZAcnpljWdkoeONvrhBoRn56vPKF82aNm0oLxw3Sr16nLcVHWWJkiInYCkbXziPtXWXH9k9Qr66fe/pBH3Pk75K5cxeXvFIIowux5Y8j6TuU325LJhoEPLPlUHq2M9WioO7qdtLz5OIJPD7niII2eSdFWLX2Fa3v3W3532gkmrio7Qvo/+TdBsZt5yrzq+ys7fr666ira/9AQd3b7JWGvl4YMcjh1c56UZi5MbQUAQEAQEAUEgQAg4q3oCNGgwDVO8lQ9nbSBTMWndKXVEY+SGdZ1RKZ2UlijzprsoddR4jm5p1DjVcyK83f/8myIWejxrfzzns+Zry1/+xJq1UrtqpUUDmbOTyiOH6Kc/3OxCaHTbkp1b6eBXi/Wjy/XAp4sUiXSp4IL8lUtpz9t/N519ZtcqsGX7/7fQ7V4wk/L3e34OaxPX206MyFAzOUP26W4nnE6x/D6KCAKCgCAgCAgCoYyAVw1aezZvQpNUmrPTeP8iExJZg+Q4eNwo9PEGWrgDSxYZrVOGHUOZt/6eEthkCa3YzjeeV2Y4NDjCJsfDK76g9OlnGe3NNzCJZt58D5ONUzkfzCFa/8hvCeQLUlvBuWjYjDn09oeYJB7LBGUjbXjkTgJ5gxQ1mAkxhp3ABAmtFEhMafZO1tb9ns2kO1RTrL/bCadR0qBhdl19Lut99sVK26hNkeiIKE6Ua6k4lEv7Pmj0+0sdMZaGzn6QD97toczNm568T/n41ZQeZdze5zUNZx9A10iiME4yOPDq26jXWRcaPoJ6DrkKAoKAICAICALtFQFvR2mGtgaN/Z84fbDx3iE4INwNsTEaubk5tPwzApmAxKX3pmG/+SMl9GEnZjaNQvM28JrZyj8L9dCwHfziI7datJ5n/py6T5upCAcIS/pJzvnD4GsGnzSQk6SBw/jAdBw02yDYD/ZlI1gXiB/2iXUlZAykIUwitVkT6z+6bYNNz8AXHWUfu7J92WpgEE5FGtkfDusCQRxwxa1qf2gAjWJlfp7tIkCE02ecI+TMFh0pFAQEAUFAEAhVBEKboAXoXYNWq4QDA7Skjh7vIEG6gK+R8QnUY8a5Rklp9g6Cv5SdpI5kMysTFUOYiGmJSkpRpEw/Q6vkK6lMGX4MxXRxDn6IZxKZ2G+QHo5Kdm837lvyBkmAtcT16M0JD9P0o7qCPEY3BDxU5B3g7NF7ner1Q3zfAYxt07Seegy5CgKCgCAgCAgC7Q0BrybO9rYhT+stz92nIh8jOFO5P1LLCTNhstMCcuFEsBoqIuJwYKxDoEWD35qd4HgNtwLiZiZvbhu6VoDIWc2EmMu8LtdeLVOiTbIYvXDDGlp28UluJwJWddWVtvWIChURBAQBQUAQEAQ6GgIhTdBAxGLZ7KelpqRY+YsZKSB0RcMVaSs2P8ORjnEJ1DXrFBXFCc2YSMsj4E6D1vIzywyCgCAgCAgCgkDwIRDSBA1wwzl934dvK+SRY6t4yzpKYLOZncAkWbxprXLIR0RkrzMuoME33kkRnLkcfl3abKec7uEHZtF0VRXmG8OGR8eQO0d+o1GAb+DHhcAI87z1dbXqnEy7qbwFTCD4AaS2KWI2S3YeO4lG3PMY49ioYWzKmNJHEBAEBAFBQBDoKAg0Oj+F6I6TMkc4kr827A/JaCsPuzqkI2cXiJw2zSGpK5LDgoRFxMRxQtVGTVzh2lVOJk8MjbQaeV9/YqAY35MPmdXJWo3Slr0p3ryOyvfnOE2CZ7PfmdkfLTq1i9EWOcesZkZEkHpKKWJ0xg2CF0xijhQFobXD3NRcbgUBQUAQEAQEAUHAhEDIa9Cg+ep19iWc8PRxRTaQzgJZ/QdeO5sjJY+j8MgoRbZwVmfe0kaC1XnsZEoaPMIBFZO0rlkzKPezD5WGqjx3LyFNhDXNBpLNQhB92f2kM1TggGOA1vkJjdeWZ/9PpbOAlrCMyZk6f7Qh+hTRlMjvpgU+ayCidVVVSsu25+1XaOht96tUJHlLP+UcZq/ppi5X9Ivm6FWtVcTJCBinvq5GafA0MUYkJ0gvcsNpvBBNirQkZZwGpCsnB07j5L4quMGikXSZVAoCgsCiT5cFZBwZpPUROOeUrNafVGYUBASBNkEg5AkaUO152iwq53M1cUQRBGdsrvu/29W93Q8QmX6XXM8mucZggpRho6nHqbOMMZCPbOUtF9p1py4Tpjq0b7a1LVuII61W/qoxH5l5NuRdMx+thBQfynTbkA4DyWyXXzbD3MXtPZLGRphyyoHc4gX/vmP+9IJKQdL95LNoFxMxiDu8EEBw8PMPadT9c9VxU24nlIqAIvDBEiFpAQW0FQY7e4aQs1aAWaYQBIIGgZA3cQJpkImB19ymXrj3JAkZgxRZSBwwxKkZ+vW/4hbllwYNmTtJmzSNNVgPOJE7d20DXQ5fL/jc2QmOoMq4+HqnKE8ks8XRV+72g1xsyWwithP4uUEDaRVErtbzmZkwDfc+5xImxz+zNnF6ju+VwUdj3SfkzAkVeRAEBAFBQBDo6Ah4ZiuMDjLdtufTBPQbDILVZ9ZlnAH/NDZVfkB5X32sNGnwsQLZwGHnvTiBbJfxWS6Hiusx0A5BA+mc72z/f99RZ2biXEmUJ3NC1b7nXa4SzDLj0V1a9Rqb3kslzM35zz/owMfvKdMiNGZ9z7+CE+Oe4bovJlEgaOqAdT7GqnT3NthnOQ/bED7I/BcqQe7mpx9wu4eep52nyB1MoTBjAofEgUMNcornzJvvVtrE7PfeMA5Lx3uB9BnQbKZPP7tN0oC43ZRUCAKCgCAgCAgCrYCAN26FbKn2aekbFldeXh4SBK0VsG71KZAWZOOf71EHvGPynjPPp8yb7m71dciEnhGYec9so8HiOXON+7a6gQ+amDjbCv2mzwsTZzD4oAXb57npiEpPQaDtEQjz4HvdNqqetsdEViAICAKCgCAgCAgCgkDQIiAELWjfGlmYICAICAKCgCAgCHRUBISgddR3XvYtCAgCgoAgIAgIAkGLgBC0oH1rZGGCgCAgCAgCgoAg0FER8BrF2VGBaQ/7Rp425A8TEQQEAUFAEBAEBIHQQkA0aKH1fspuBAFBQBAQBAQBQSAEEBCCFgJvomxBEBAEBAFBQBAQBEILASFoofV+ym4EAUFAEBAEBAFBIAQQEIIWAm+ibEEQEAQEAUFAEBAEQgsBrwTN21EEoQWH7EYQEAQEAUFAEBAEBIGWRwBHaXoSieL0hI7UCQKCgIHA0IEZdO1FZ1FqSpJRVlh0lP7+9oe0ecceoywYb849dSqdPm0SlZSUuV3vQ3dcRz27p9GylT/R/H8vNrYxedxIunTWqRQZGUEff/ktvf/JUqPO04278Tz1kTpBQBAQBDQCXjVouqFcBQFBoOMiAIJz27UXOpEzoAGyhnLUB1pACB+565ctMnag1+rreFdeMJNA3EQEAUFAEPCGgGjQvCEk9YJAB0cARClr/GiKjIig/QcP0wNPvawQ0VoplI8bOcRnzZIvcJq1Vr60D8Y2Gie9tjuuv5iGDeqnMNRlchUEBAFBwB0CQtDcISPlgoAgoBAYMrAvJSbGE8yZC95fYqACU19qciKNzBzgVK7JVWxMtGpbU1vrZBrUxA7mxm2799KEY4Y5tcs7XKBMirr/WdOnKAK4ev0Ww0zos1qBAABAAElEQVRZzWN27Zyq1qRNrNqkqBe4aftuemreW/oxYFe9Pwy4au0mmsQmUJBUiNk8qteDsi6dUhQ5QxuYUV945HdOmKBcRBAQBAQBMwJC0MxoyL0gIAi4IAASBgJSVlHp4mtm9tVCR02+NGFBGe5BsjCOuT3Mo5qc6XbQ1K1YvR6PbsXsA4c1QR6/9xYX8yu0VSBJVk2W24H9rACBzJpwjFOv8aOH0dadOV734NRJHgQBQUAQsEFAfNBsQJEiQUAQaEQA2h9fBaZOEDJo2558aQFdf9ejBE0WBJo2mEvNAu0S2uAKiY2NoQN5+fTmwk+oorKKoH378LPlLiRL9wP5mjh2uCJnui3GQx88d0vr1KI+bNibeT4EEmBOq0CTp3GAmfimex8PqEnYOp88CwKCQPtHQAha+38PZQeCQFAgAPIVzwQLxGjZqrWGtm3FD+sV2YKZFOZSLSBg0DZBcMWzL2Luh/aaQG7blWOQHphfYSoFWRyY0cuXYf1ug33u2LNP9duyI1tFiPo9iHQQBAQBQcANAkLQ3AAjxYKAIOBAACQEZKRzajLB/8osiEqEedGqGTO3cXdfwebJAta0+StN7efrPJrweWtfU1OrSKC3dlIvCAgCgkBTEBCC1hTUpI8g0IEQ0Noh+Fwhl5gWkDX4XMEn7JJzZyiNGXzCoLWCL5kmbZOPHUnoi6AAjOWLgLiBiPki+QVFqtng/n0McyZ84WBqNGu5vI1VdLTEZRwU6PU3l5DpdXpbh9QLAoKAIAAEvAYJINOtnCYgHxZBoOMigCS0MFmCnCECcd5jdzuBARKECEsIriBGIG2/ueESp3brt+5UJM5s5nRqYPOgAwzg26bnsDb7bs1G5d+GORGMgJcW+HvB3AnC5k1giu3fp6cik9Zx0HdXzn7l/G/VInob11ovUZxWRORZEOiYCHjjVqJB65ifC9m1IOAXAiA5z/z9X8r539wRwQAoRz0E19c5C7/ZnwwEDk775ghO8xh29yCFBw7lG1XwbUtzE6yAtr975K8u+cXglO9PBCeiR/86/12XPWIRCEpobsoOs58diCeiWkUEAUFAEHCHQBhX1LurRHl5eblo0DwBJHWCgBcEZt4z22ixeM5c476tbhZ9uow+WLKsraaXeZuIwNkzsuicU7Ka2Dtw3YLt8xy4nclIgkDrIxAWBhpmL6JBs8dFSgUBQUAQEAQEAUFAEGgzBISgtRn0MrEgIAgIAoKAICAICAL2CAhBs8dFSgUBQUAQEAQEAUFAEGgzBISgtRn0MrEgIAgIAoKAICAICAL2CAhBs8dFSgUBQUAQEAQEAUFAEGgzBISgtRn0MrEgIAgIAoKAICAICAL2CAhBs8dFSgUBQUAQEAQEAUFAEGgzBISgtRn0MrEgIAgIAoKAICAICAL2CHg96snbUQT2w0qpICAICAKCgBmBtOyd1CVnJ+X3GUCH+w4wV8m9ICAIdEAEcJSmJxENmid0pE4QEAQEgQAhAHI2ZPlniqQFaEgZRhAQBEIYASFoIfzmytYEAUFAEBAEBAFBoH0iIAStfb5vsmpBQBAQBAQBQUAQCGEEhKCF8JsrWxMEBAFBQBAQBASB9omA1yCB9rktWbUgIAh4QuDsGVmeqt3WRRTkUm2ndLf1UuEBgQPbiJYTZQ7IoMwm4u9hdKkSBASBEENACFqIvaGyHUHAGwLnnNI0clZztJDWXXY5jfrHGopMSvU2jdRbENjCAQJbuWzIwL40pInvgWVIeRQEBIEQRkBMnCH85srWBIFAIpD71lyqPLCbcBURBAQBQUAQaFkEhKC1LL4yuiAQEghAe5b71jNqL7jiWcQ9AjmvvUY58+e7b2CqUW25vYggIAgIAmYEhKCZ0ZB7QUAQsEUAWjNNyhxkTbRotkA1FKbPmkUbbruNPuvf3y1RAzFD/YbZswntRQQBQUAQMCPglaB5y3RrHkzuBQFBIPQQMGvP9O5Ei6aRsL9GpaZSfyZeZbt3049XXaWIWPGPP6rGuIKY/Xj11aoe7dBeRBAQBDoWAt5OavJK0DoWXLJbQUAQsCJg1p7pOtGiaSTcXweAeKWkqAYgarkLF6p7XPEMQT3aiQgCgoAgYEVACJoVEXkWBAQBAwE77ZmuFC2aRsL+qrVo9rWOUtGeeUJH6gSBjo2AELSO/f7L7gUBjwjYac90B9GiaSTcX81aNGsr0Z5ZEZFnQUAQMCMgBM2MhtwLAoKAgYAn7ZluJFo0jYT91ZMWTbRn9phJqSAgCDgQEIImnwRBQBCwRcCsPYvpkUGdTpyl2uGKZ4ho0RQMHn/YadFEe+YRMqkUBAQBRkAImnwMBAFBwAUBrT0DERt4/6s09v3dlJA5RrXDFc8oR71o0Vzgcyqw06KJ9swJInkQBAQBGwSEoNmAIkWCQEdHoOCrhZRx+9OKiHU96ypbOFAOooZ2aC/iHgGzFk20Z+5xkhpBQBBoREDO4mzEQu4EAUGgAQF3pMwOIH/a2vXvCGVai7b1oYdUfjQ8iwgCgoAg4AkB0aB5QkfqBAFBQBAIEALQosVlZEjeswDhKcMIAqGOgGjQQv0dlv0JAhYEFn26zFLi22PCzmxK4KZb+Lq6iWP4NlMIt3r4CVq8an2TN3jOKVlN7isdBQFBoH0h4JWgeTuKoH1tV1YrCAgCQOCDJf6TtLG799A47rtl5x5aU+d/f0FeI7Bd3/h1PXuGkDO/AJPGgkCQI+DtKE0xcQb5GyjLEwQEAUFAEBAEBIGOh4AQtI73nsuOBQFBQBAQBAQBQSDIERCCFuRvkCxPEBAEBAFBQBAQBDoeAkLQOt57LjsWBJqMwOr+05vcVzoKAoKAICAI+I6A1yAB34eSloKAIBDKCKzpd4rb7U0eN5IunXUqxcZE06btu+mpeW+5bWuuuOP6i2nYoH4e+5x76lQ6fdokKikpo7+//SFt3rHHPESr3/uy5lZflEwoCAgCIYeAaNBC7i2VDQkCrY9A5oA+ipxh5h5du9DQgY6zOpuyEvR95K5fEohZMAjWgfU0Z0/BsA9ZgyAgCLQvBESD1r7eL1mtIBB0CIC4jMwcQBWVVVRRUUmpKUk0cexwnzRdVk2b1sRFRkYExT6vvGAmZU04hgqLjhrrsa7ZqJAbQUAQEAQCiIAQtACCKUMJAh0RgSED+1JiYjzlHS6g1eu3KHPkgL69nKAwmymra2upa+dURXqK2WzZt1d3ZeJc8cN6w0yKzmdNn0LjRg5RY+rBxgwfTLddeyFFRkQoQvjmwk9oxer1StsGM2hNTS2v4wiPma667D94mB546mV66I7rqGf3NFW2bOVPNP/fi/WQpE2WukDXa3KGcpDO39xwCaGuS6cUF7MsSOq1F52l2qF9De/x4y+/pfc/WYpHEUFAEBAE/EZACJrfkEkHQUAQMCMwMKOXIkw7s/fRlh3ZlDV+NHVL66RIk5WggOhoKWNtW2l5uX70eo2NjaETJ49Vc6Ex/N3OO/1EKjBpt1CmyRnagJTNe+xu3BoyfvQw2rozRxE7KzlDI2jM/BErOUNfEEgQRogVA1UoPwQBQUAQ8IKAVx80b5luvYwv1YKAIBDCCMAk2b9PT6XNAumBA//6rTsVQQFxsxNooa6/61Gl2TLXQxMGjRhMpdBAffjZcqc2IF/fchv0RR3agLR1MpE+jKfHh/YMgvFe4eACvHAP8ykIpF67nss8Lky2363ZqMbCGDBxPvnSAifNG8ohMOeCeOp5MA4CJUDS3GHg6Ck/BQFBoCMj4O2kJtGgdeRPh+xdEGgmAubggGvYxIeXFh0sYI66BIkBkWuKmPvCnApzplXMbYqOligN2pHCYqUtg6YLPnIwx0JA0kDWQKRgTsVLix3x03XWK0yekF05+9U8uBc/NaAgIggIAs1BwKsGrTmDS19BQBAIbQSsvmbm3epgAXMZCJLZJGmu83bf1L4gaiKCgCAgCLQ3BESD1t7eMVmvIBAkCMBE2Dk1WZn2tLO+Xpp2sPdE4HRb8xXkzazlMtcF+t6shXPn0A8tG0ygniS/oEhVw9QLTGCq1b5tOkjBU3+pEwQEAUHADgEhaHaoSJkgIAh4RWDysSOVoz5ICEiJWWDGhDO+DhYw1/lyr82O1ihOX/r62gZrxh6QKNdq4rQSK3MUp3V8+KrBZw1trGZeBE6ICAKCgCDQFATExNkU1KSPINDBEYA/F3zMIHYkBOQHvl/+OsrDX+3AoXwD3XgOAkhr8PEyCgN4A18xOPSbxUzOEJWKEwy0aH8z/Ywr1owTDsy50lCu03XgXkQQEAQEAX8RCOMO9Z46lXMYvLdIA0/9pU4Q6OgIzLxntgHB4jlzjfu2uln06TL6YMmytppe5m0iAmfPyKJzTslqYu/AdQu2z3PgdiYjCQKtj0BYGGiYvYgGzR4XKRUEBAFBQBAQBAQBQaDNEBCC1mbQy8SCgCAgCAgCgoAgIAjYIyAEzR4XKRUEBAFBQBAQBAQBQaDNEBCC1mbQy8SCgCAgCAgCgoAgIAjYI+CVoEmAgD1wUioICAKCgCAgCAgCgkBTEfB2lKZXgtbUiaWfICAICAKCgCAgCAgCgkDTEJBEtU3DTXoJAoIAI/DQHdep8y5bI+fXuadOpdOnTVJ5yZB3zHzGp69vhs7wj9xn5vMykdftWj5HFMlm/dmLu/F8XY+0EwQEAUHAHQKiQXOHjJQLAoKAINAEBED2HrnrlwRCKSIICAKCQFMREA1aU5GTfoKAINCqCLz/yVLCK5jErIXDunAW56WzTqXIyIhgWqasRRAQBNohAkLQ2uGbJksWBNobApq4xMZEq6XjAHLrAeXmNhWVVbRk6UqaMXWCao/D2HGup52JU5tZNSb+mCh1H7urHnflT5tocL/eyvyJduajoMwmzhU/rFfkTO8R53viLNEHnnrZbngpEwQEAUHAIwJi4vQIj1QKAoJAcxGAqe+KC2aqg9X1WPow9Cu5HGImZ3gGyQE586aJ0iQKfbRkTTiG9Li6rDnXCccMM8gZxunZPS2g4zdnbdJXEBAEQhcBIWih+97KzgSBoEAAWiQQMhwm/uRLC+j6ux41DigfmTmA4LOVOaCPImXQnL3CAQBosytnv+rnbhMgftCqQRv34WfLVR9ozyAD+vZy183vcr1urF0fiG53aDoOiIemD3vQaxLtmd9wSwdBQBBoQEBMnPJREAQEgRZDAOQrPjZGEZZlq9YakZcwB/bv05MSE+NpyMC+pAkPSBmIDkS3cbe41OREReBgctS+afP/vZjwCqQcOJRvrBv3iPQUEQQEAUGgpREQDVpLIyzjCwKCQNAhkJKU6POa8guKfG4rDQUBQUAQCBQCXgmat0y3gVqIjCMICAKhhwBylZVVVCpNV9b40cqciV1OPnakMmmWlJTRlh3ZpEkQtGrwRzO3UQ82PwqLS5RmDmZOndICvmfzHrubHr/3FmMuc1c9j9WPbOLY4UozBtMkxm2qFLAZt4L3KyIICAKCgDcEvJ3UJCZObwhKvSAgCHhFAI75eJkFvljwyVq9fovyFYNp8Dc3XGJuQuu37lTmw05cN370MEXaruGEsXhpXy6nDqYHmDXh3wayhYhJvLSYzZK6DNfv1mwk+L1hLXZrzjtcYJhLzf38vddBEBLF6S9y0l4QEAQ0Al41aLqhXAUBQUAQaAoCIFKvs18YCJcW7USv/cXMDvZog7ZIs1FTU6u72F7hhA8fNLNYTwkw10Gj97tH/urSB23Qr7lO/Rgf5FAL/O/ghyciCAgCgoC/CIRxh3pPncrLy8mbGs5Tf6kTBDo6AjPvmW1AsHjOXOO+rW4WfbqMPliyrK2mt50XpklotEDcdH40XaY1cTp4wHaAdlA4ZPmnxiq3TDnFuPf15uwZWXTOKVm+Nm+xdsH2eW6xjcrAgkArIBAWBhpmL2LitMdFSgUBQaAVEdi6M8cwcVrNlUcKi43IzlZcUotMNWT5Z7RlyvQWGVsGFQQEgdBCQEycofV+ym4EgXaJALRjny5jkyZr0MxiztpvLpd7QUAQEARCHQHRoIX6Oyz7EwTaCQLwVdP5zNrJkmWZgoAgIAi0GAKiQWsxaGVgQUAQEAQEAUFAEBAEmoaAaNCahpv0EgTaNQJwOG+KRBTkUm2n9KZ0lT4HthEtJz7Wio+2aiL+AqIgIAh0HASEoHWc91p2KggoBJoaCVhztJDWXXY5jfrHGopMShU0/URgCwcIbOU+ONpqSBBEY/q5fGkuCAgCrYyAmDhbGXCZThBorwjkvjWXKg/sJlxFBAFBQBAQBFoWAa8ETXKgtewbIKMLAu0BAWjPct96Ri0VVzyLuEcg57XXKGf+fPcNTDWqLbcXEQQEgY6FgLejNL0StI4Fl+xWEBAE7BCA1kyTMgdZEy2aHU66LH3WLNpw2230Wf/+bokaiBnqN8yeTWgvIggIAoKAGQHxQTOjIfeCQBsjsHjZojZegev0YeWllPKPJ8ic7zqHn9f3G0L1cQmuHaREIVB33kyqfvUt+vGqq+inu+8kGjxAlW/7bDFt+9vzVJ+bp57Dr76YPl3/ddChNjPrnKBbkyxIEOhICLR7glZSnUNH+SXSvhBIiupDifwScUVg8bIPXAvbsGTUptWUyiTNLCBtIGnrho0zF8u9CYHIvtE0NTaaIiuqHGSsgZDVL/3OaFXD9Uu5XU2Qveczs8421ig3RAfKvhEY2ikCPeKPb6crJ2r3BA3kTH552uHnj39phKC5f9+C5QtSac8WL7Bd6MjdW6jPZb8VLZotOo7CuuwqqmMtmjuJvuQ8mnHK+e6q26Q82P5AaBMQbCaV7xkbUIK8qD2TM0Db7glakH8+ZHmCQJMRCAYT0955D9Jei/ZMbwjkDSSt9/UP6iK5WhCoHnkCffbeYqouKrLUEEWlpND0p16gqNRUl7q2KghGE3tbYSHzCgJtjYAECbT1OyDzCwJBioA5ctPdEiWi0x0yjnKQr/4cBGAnKA8mcma3RikTBASBtkNACFrbYS8zCwJBjYA5cjOmRwZ1OtERaYgrniES0en9LRwAIsbaMrPgGeUigoAgIAi4Q0AImjtkpFwQ6MAIaO0ZiNjA+1+lse/vpoTMMQoRXPGMctSLFs3zB8VOiybaM8+YSa0gIAgQCUGTT4EgIAi4IFDw1ULKuP1pRcS6nnWVSz0KUA6ihnZoL+IeAbMWTbRn7nGSGkFAEGhEwGuQADLdymkCjYDJnSDQERBwR8rs9u5PW7v+HaFMa9G2PvSQ8kkT37OO8K7LHgUBzwh441aiQfOMn9QKAoKAIBAQBKBFi8vIEN+zgKApgwgCoY+AVw1a6EMgOxQEOhYCTU2lEJu9heIYqm18XReEJx60h3ex/ok/NOvUgGBIvdIecJY1CgKhgIAQtFB4F2UPgoCfCDQlGekoJmajeJ7tiqAF12kHfm6/bZtvb9r0wZK8uGmrl16CgCDgLwJi4vQXMWkvCAgCgoAgIAgIAoJACyMgBK2FAZbhBQFBQBAQBAQBQUAQ8BcBIWj+IibtBQFBQBAQBAQBQUAQaGEEhKC1MMAyvCAQSgisGzYulLYjexEEBAFBIGgRkCCBoH1rZGGCQHAhIOQsuN4PWY0gIAiENgJC0EL7/ZXdCQJBg8AZU8+lGZNOp4iISCo6WkhvfPh32rpnM2VmDKXLz7qWUpJSqba2hpZ8+zF9tPT9oFm3LEQQEAQEgbZAQEycbYG6zCkIdHAEYmNimZB1UigM6juEEuMTOzgisn1BQBAQBJwR8KpB83YUgfNw7eOpvrKGyl/4hmrWHqDI0T0o7qbjKSzGKxSttrma9blUsWANJdx1EoUlx7qdt+L1VVT15Q7bPdQXV1DpY19Q3YFiir10LEWfkul2HHcV7sb3dX3uxpVyQSAmOpYG9cmkletXUEpiqgKksqqCIlm7JiIItCYCNazNjWTtbXMF/y+WPfWV0zBhiTEU/7tpFNGneePr76zIkelN+r/caVE+PPg6X21OIZU9/iXVl1RS/B0nEtZnlqpPt1LFm2sovEey1+8zcz997258X9enxwnWK47S9CTyv6EndNqgzvyBboPpvU4Z7OvzugFp0OYIwLwJDVr/XgPUWnCtYdNmRWWFkybNbBJFwxU/LaMFi+fThJGT6cJTL1Xta2qrqUtqVzXOrn07qHNyF2UqNbfHvXWs3MP76ZGXH1D9dF1JWYlaV0R4BNVzTVl5qWGGvWTmlTT5mCzaunsTPffWU6qf/AgNBPbOe5AJWidKv/i2JhE1TRbwB79VQFxKH/if7R/R1rbuns1/bFsJkLs+zSlv7fn8XWuwr8/f/XhqLyZOT+h08LrYK8ZT8isXUfzsE4JKw9jB3xbb7Rf/8CVBE9AeBKQKZCwuJl6RLVwLio9QeWWZsXxNmg4V5NGvH71eEaPjRk5SREs3gll05YbvmES9QtC+9e81kDbuXG88jxs2Xo1vHQvtOyV3pj/e8rjyf9PjgTT+65M36Y4nbqZde7crsgjzKwQkEv5xO5kEioQWAj0umU0gaT/O6s/Xh/z+Pap8+0dljfGECsgb2on4hwA0j0nPzlLfQ61BTv1bXcu3Fg2aCWOzSS/mrOFU9uwypbpFk+hpAwmEBWJm8DAf1u0vVqZG1FlV2ta22tRo/qsLZtbYa46jile+N37RYZo8Ovv9Zv3lhfVYxdc9op+5bWutz7peefYdgTXn9qMel9zeZE2A7zM1r2V1TTXlFx6mgX0G09ihxyoidDD/ACUnphgDD2CyhWCCXft2qjIQI7RHOUgbBFo33BcdLVCED2Xbc7YazyBcEPSB/LhltbrCrDqRtXAYTxMwVIAkog5ing8aOxA6aNhwzJVIaCEQ06MfdT3zSjr03/mKqOW+NZd/h2b79HsEE1z1qr0GIFYzn9nsiXZRJw1S5k6zJcLsymJuj7EgZrMpzIV4oa4ut9gwH8ZeMpbKX/rW9vsKYwRivkARJKvZsmb1Xrffn9a2nvAI1PowR7CIaNBs3gn8tVP6yGfGhx1N4OsFwmIV/LKgTotWaeMXLZjFnz0G8z5kbQ4Eko+dRgmZY5qlCWhNLPOL8hUBg9YL4k4zBbPis3fPo9OnnKXam0kctHAgZ97E3MfcFgRQ+7+Zy3EPIgZC1r1LDxoxcBTBZw4kElGnIqGHQO8bHjQ2BU20rxq12i15xveElZxhQJAGTbTw3YD2gRb8MQ8Sh/G14DupbO7XBEVAMAvWbf3+hE8biJkIf34EBHsEtGO9WQNWs+WQ0p5Ze+hfTHNb/MUSMTjN2tTtM4IUYEp095eO247NqPC0R2twQlusrxlb65Bde1//IG286SRlosEXjD+agNYGDJoumCAT4hKVeVJrxazr0H5n5nJotPyR4pIi6tqpm0sXmCyLSuy/CEDEQMigZQNBCwrzZl0t1VU0moFZX6/+uWzMqYDbaDHd6qLGa0MlazfDeR7ia111JWYwieMpAvUNUl9d5bgzGho3uonNldt4bWZqYLp1HsxR4VLtVOD04NwdT6o6jMxaNN1IEzX8HiWefz7RmRnEH1hdra6wnkBgBXH3/z3KUY8/inV71cmHHyB4SXPPtQ34qmINmhZzsJv+DsF8tdsOuzju6z52V0/z2bVvbpk5eECvWxNZu8CK1l5fc/fX3P5C0GwQxIcm6ri+qgZEJfqkgUqVbNNUmT7xoYGgLVTN+KugducRqssrofAU91GYduO1Vpk/e2ytNck8zUMAWrTkcSdS8eqv1EDmLxhfTTbNW4HvvbVZEpopbVpEjjQt2sSoAwluvfgOyuw3TAUKgNz5I3qsMUPGqfxqIHgZPfsbJkuzmdM8ru6HNSKwoa3NmzHf/I++/+155iUG/B6JTy7GqAtfpe/djP4HU/l3U54zPYXmLX6PCl/7O9E7cRQxayq/slyIWlvuHG41MeePNvyEo6Zy0A1bcEDQYD7U309tuUZ3c+O7VSsD8J1b9cUOlXnAXfuOVi4EzeYdD++aQORj2o3wnslOI4QxIcMvDP4KqC+qIApWgubHHp02GKAHOLXXbv6k6aPV+9vV7w7+TtDY3jLVSTu/Ner2vni/cW++0V3imHyMzt5KcSVHKWeDq0nd3MfuPjo9w6XYStTC+vmfcsVl0GYWaA0VktNqPzPzkDpRLUgbTJwQRFDqKE5zW2/3dmOZozjdETQQssmjs1RUaLCYN8Nj4523W68/Oc7Fzk+mNqZbuzZ1dXVUy6+I8HAKDwtX0ayN7Ryda2obNWiRERGOamNc46axm/UugGt2mc2pwOnBugp2JkaRlzZOvdDWn/ZOnVvsISwpxkkRAGtHeGfH56TuSFlQmznD052/P1sMpHY6sBC0dvrGmZddd6iUCL4GPpJKc9+2ui9e/SUV/HNJW03fqvOeYJpt79+/Mz253kLfOhLFm9fQPtfqZpVoopbM5r6EiSdRaXxSs8bztzOIkiZL6GtNV6HTXuhxre11ORz5tTO/Lrvvr7/Tt+pqfXY3Fhp7qkN9UJg3eR2VWWfQyXf/DUtqMVm8bBEtXvYBzcw6m1/n2M4z857ZRvniOXON+/Z+s+Ohq1SggHUfERy8knjB+VR+Zj8XzZn+A92TORFmRtRDdHv1EGI/ELRAljxoIbbFVt+OELRmQm71KYDWDNozaNGgTWtJ0b/scBKtXLjeiDLFnHhGebBK8jh2ao+f0vTleXEtcR3Y7w6uQ/ha4jRVGL2x5COj5+UzzjDu9Y25OTRL21hzM5jTO+AIJH+lcv8uyvvgVdtu+KJBSoH1/YZQ6Q+f27aRwkYEoFlDKg+J3mzEJFTvKg/sdiFn+vcF7gGHIjZSedk3LtuPGNLNsJjAtUX79eqG5qhMfCegfaCl/mgl1fH3TkRDUnMEBkBzBoEmDRq1lhK48ECDh++8ykUb1f607xgc/VEm0nQEvL5zyHQbiqcJNB0y556IQIkc11vZ+REkgBMAIBEDOlN4N8fxNTCZgizBvg47O2zu1Ut3Gn9VOY/o+5NZPYx1mKNh9Cgt9Z+CHr+pV/hL9Zh6fFO7t6t+X2/PN9Z7z7X3Gfd2N2tZg7GeNRh9WIPRy40Gw66fLtv4y2n61riav2iQMX0dzyHiGQHt8wbt2Yq1yyR60zNc7b5270sPGnuw/r6oCgffMdroG5CRqPG9jf97dRoMXW++op0mL/r/bnwvVH+frU4HMH9/mPt5u1fk6N21xok45u8WfDdBAjmf03pgTm34fsM6kJTXTiKHdDV8zezqO2qZN27llaB1VOD82Tf+crIK8p3pv1wMfwD+ZURuM09i/kXylgcNzp/Iz2ZHzPQc5v8UdFlzrv6srznzSF//EYBfnw4QQG/bLxr/h+2QPazm1w4JQgfZtNaeNfX3JeaiMUpjpc2YdrAhyhLttJh9lT2ROtXeRIJ0W526Q4+HuY/e9K5+VFdzZGkg5rMLNsB3HAIUEBQHgmYnUBIg/1vAxA0edusL2JxtNJDkQWsm8FBp46UFH8aEh05zipxBglsQKbPE3TJFhV6by3CvQ7J1ueFfpgssV4xt/WXVTVCuk+vqsuZe/V1fc+eT/r4jgNQaEHzR9L7+ARr7/m6+4hibVFUuPwQBQcAVgQML5jbr9wUkBSmS8P8+/v83i/4+sJ7GAk0azug0t1epMvh7wSoYXyc413XK36vhQaWq4Llx1YLvG/OcgZxPz6GvGDvx8bNsv8+wJ9RpzaHu05yrNzyaM3aw9YX7i8ewlPLy8qA2cR5gvwC8WlPM+c6sPgetuY72PFeP+OMJr44g/jhV++KkbYcZtGdbfjdL+ZjBZ8YTKdNz2I0jZcGLgCfH/UCtWn82PM3lz+c5UOtqyXEQPOPp9wVzt8X3jLc967xhiqDddZKYEG0Aaw/fM2FhZi9k502IidMZD3kSBNotAtCYefuiCfTmcIg4zshc8u3HhDxj6Wk9bacwp7WwbRBChWZMzFGrIbTFkNpKa//OhBR4spkWRUAIWovCK4MLAq2DAIIuWlsQZTp8wEgjylGTESSCvfDUS9X5mG98+PcO52CvT0nQiXFb+32R+QQBQSA0EBAftNB4H2UXgkCrI6DTUARLEtdWB8DNhMjRhtMRcMC6v8dSuRlSigUBQaADIiAatCa86UiTkfjwzCb0lC6CQOggMMDLQefWncL0h8PPIUhfAbMotG66PCc3m7p17qYOJkf9pl0baFj/EeqQ9MqqCvrXJ2+qBLVnTD2XcMIA8pPFxsSq9uZ6jK/TZOAeYj7TU9fB7AqTLK7/XrKALj/rWnVqANqb12edL5yz7FfX1Khs+9Y14UxRJNzF+Z8Ye1CfTJekuhhfRBBoLgIIHLAGDzR3TOkfXAiIBi243g9ZjSDQbhBI5mjRGiZS7g46N29EkzAc1/TrR69XfU6acIqThik5IZnmvftXRaYiIiJVst43F7+unnEepvmsTowNcgaC9MaHr6ipzjnxPJXcVxMwkDLMhSuIIcqtgnoQqgtmXKLGw1h4YV845smcLFjP95snbqGftqxWxBAEDAKyijXrY6vyixy577qkdLFOKc+CgCAgCPiEgGjQfIJJGgkCgoAZARCXuBjHeX/mcnf3OPQcWikcQA4BkdEaJt2nvLJM+avBdIq2+hD1rnw0FZ6toutRDvKGdhNHTaHuXXqow81/2Og4VgtX+Mqh3Ey4NJlCf5A01Jm1aBWVfJauSczzaT8z7Av9MDa0ePog96KSQrVmkFgRQUAQEASagoAQtKagJn0EAUHAbwSgYTp9ylnqpTtDw6S1TTALNlW0SRF+X9B0WckVxkV5SlIn2ynuve4hw9y56Kv3VJCDbcOGQviZgRRivmOHT1RHQkGTaD0j1NMYUicICAKCgCcEvBI0b0cReBpc6gQBQUAQ0AiY/bp0Ga4wfzZXoKnSWjdo0uwEpK3oaIFLFRz5QbSKOB8WfNHckThrR60FHJ05xsm8aW0nz4KAICAI2CGAozQ9ifigeUJH6gQBQcAWARzqDpOkrwIyAw2aDiyAxurp371AcMBvqoCIob8mWAga+G7dckJUaQqfngDNFgRXPHuLNtUatolM2ODz5k1gzoRZMyEu0cm8iX4pialqv83RCnqbX+oFAUEgtBHwqkEL7e3L7gQBQaCpCIB8gCS501iZx12weL56hLP+s3fPU/dw3tdRnOa2vt4XsjYMjvwgXyBKME2COOKFgADMpaNGzVGc1vFhloSzP9peftY1aixo0zRhs7bXz9rMCV86s38a6nVwgDbf6j5yFQQEAUHAVwSEoPmKlLQTBAQBJwTg8D+wz2BDK6YrQVzsfLFA0jRR021xtZaDtOmkt6i3PqMMUl1TTQ/97V7Hg+Wnp8PO7eqsa7AM57Qeax2ezQEHeIbJ1Rw0gDIRQUAQEAT8QUBMnP6gJW0FAUHAQGB79haVi6yjRipq06qViOlyq1bNAE5uBAFBQBDwAQEhaD6AJE0EAUHAFQGYEjfuXK9MnM3xJXMdOfhLENgAcyh81VZvWuWkMYS5NJL97X7kXGkigoAg8P/tnQ+wVsWZ5g8TI5IIiOQmEIyOGJEwaMBoMEHdTSbswBaaqlgLYVeYMaupgmEgyxSuSy2YYMY4wTiRJZJSNhh0B2G3rBpkBjaYmo2IGSZGTGCIkAT/RAYSoihB0SQz7Pdr8hz7O/d8f+/97v3+PG/Vd/uc7rff7n7Ovfc839vdbxuBehHwFGe9yLmeETAC3aYn+wKSUlOefdG22ig3JVquTPWdGgEjYAQqIWAPWiWEXG4EjIARMAJGwAgYgT5GwAStjwF3c0bACBgBI2AEjIARqISACVolhFxuBIyAETACRsAIGIE+RqDiGjQi3fo0gT5+Km7OCDQYgWlXXlNXC7/38i+Sfz07P1J/XQY7qNK/rn0oHe3v3fDp9NoXRsAIdCYClbhVRYLW7LANfvv7kuQdH232brp/GQTCc8vk+bZvEJh25bV1NfTbQvDW3ddPTC5+cFdyWiE4rKU2BPZ9e1ey//OfT8YUPhfV+Qxqa9HavYnASL9nehNO26oCgZYnaGcWCBofixEwAo1F4PBDX03ePPRcQnrOTZ9vbGO2bgSaCAGTsyZ6GB3UFa9B66CH7aEagXoRwHt2+KG7Q3VS7i1GwAgYASPQOARM0BqHrS0bgbZBAK+ZSNkpsvbVthmbB2IEjIARaEYETNCa8am4T0agiRCIvWfqlr1oQsKpETACRqAxCJigNQZXWzUCbYNA7D3ToOxFExJOjYARMAKNQcAErTG42qoRaAsE8rxnGpi9aELCqREwAkag9xEwQet9TG3RCLQNAnneMw3OXjQh0T392f33Jz/75je7F+TkBN2CvsUIGAEjECMwoHBzMs7IXp84ccKBarOg+N4I1IDAtP/2uaq1h5/x6+Tsgb9JXn7z7clLb5xedb1GKJ7x2zeThTvWJqSl5I3TBiZ3T74hIbW8hcDAN95MZq9em7x5xsDkH6+8Itl38QeSyx//h8JnZ/K9KycVPlckY3fvDffoPjD3hqD7loX+uar192/Ll7xZpH+elFttFwQGDICG5Ys9aPm4ONcIdDwCV7ywKyVnr54xOHmma3TAhJR7BPKGnqUYAYjZDy6fkAx+9Vjyh3/7rUDW3vWLXwald/38SLj/+N9uC+XooW8xAkbACMQIVCRolY4iiI352ggYgfZAAOI16WdPByL2N+OmJF+d/Jnk8OCuMDhS7smHqKFXzsvWHojUPoofXjYx+fXAU8QLonb+/p8GI+f/+EAgZtxQjp7FCBiBzkOAozTLScUpzpMny86AlrPtMiNgBGpEYMvjm5Itjz+ScFZmvUcy1dhkrvqRzfeH/K7pf5KWv3jfF5IX7/t8OEXgnJtuTfPzdNPCDr/YVzjWaf8XvlAShTG33ppcVNBpFmmW379mwcP9MAKNRACCNmjQoJJNtPxRTyVH5gIjYATqRiAmZpWM1KJbyVa7lY/+3OeSZ7/61eQ3r77abWhvHzo0odxiBIyAEchDoOIUZ14l5xkBI2AEjEBlBN5+1lnJ+SVIGPmUW4yAETACeQiYoOWh4jwjYASMQC8hgJcMb1ks9p7FaPjaCBiBPARM0PJQcZ4RMAJGoJcQyPOi2XvWS+D2sZlXXnklmTdvXnLttdeGz+rVq4t68OyzzybXX399Wv7II48UlffGTdyHp556KjVJ23feeWdSaeF5WsEXTY+ACVrTPyJ30AgYgVZHIPai2XvW6k/zrf7v3r07gTBJ9uzZkxw7dky3fZZC1BYuXJi8/vrrfdamG2o8At4k0HiM3YIRMAIdjoC8aOzotPesfX4ZIGNHjx5NziqsJcRztWtX42MC0tY999zTPiB6JCURMEErCY0LjIARMAK9hwBeNI518s7N3sO0Py1ddNFFyb59+xK8Zueff34gaIcPH06GDBmSDB48ODl48GBR9yBwX/7yl5Mnn3wyzf98IcTKpZdeGu7xxC1ZsiR58cUXk1tuuSV59NFHU91p06Ylc+fO7aZHfdq57777Qhm2Z8yYkdx0003JNddcE/LwrqEnueyyy5Kbb745PSGIaVjqjx07Nqg888wzSVZHdZ32LQImaH2Lt1szAk2BAPGuapUzXtiXJH80K/lxId1dR/1a22tH/ZN3/vfk0T2P9Who/Rkfr0cdb7PKl19+eXLo0KFAqBjagQMHwvXVV18dphpjghaTrxgGiFNMplR2xx136DKkW7ZsSc4555yUdBUVlrkR+YpVIHGLFi1Kbr/99uD5UxnETNLV1ZUSOOU57XsEKhI0WL9PE+j7B+MWjUCjESAgbk3yzne+pV5r3bdq+uon9UNAAGNLcyAwfPjw4C3TOjQRsnPPPTeJyQ69Xb9+fSBvkCwRI3m2NmzYkIwfPz4ZNmxYOjB5sMiQ143p0ylTpqQ6usBTNmrUqOAlUz3e2WwawDYiEhh78eiTvHKyBWGUR095ThuHQCVu5U0CjcPelo2AETACRqBNEYBQXXzxxYF47d27N6w/Y3rzkksuKRox3jNIHHLjjTemXqtx48aFqUTWsTFNGsv06dODY4QX+MSJ9R0Fpg0LkDYRO+xhGxGxVLvo0SdL8yBggtY8z8I9MQJGwAgYgRZCAI8Y8sQTTyT79+9PxowZk4wYMSJ3BJC32EsGWWIqsdGSna6kD/TF0vwImKA1/zNyD42AETACRqAJEWBqErLz2GOPhfAaWTIUd1k7PpXHdOORI0d027CUNmhLwq7T/ggFovadVo+ACVr1WFnTCBgBI2AEjECKQNYbNWnSpLRMF4TFYCoUWbNmTRo3jWlRFuxD8CB6vSHsIhUZE3mkjW3btgXzlG3evDlc0yf6ZmleBCpuEmjerhf3LLtLJt6WjCYLJpcuXZp+c9CiyWIrvjMCRsAIGAEjUB0CIl+ExshOYcYWpk6dmuzYsSOsV5szZ05clMycOTOE6eAd1lOhH9jX+2/y5MkJO0AJo6FQHLTB1OysWbNKNqf3KZ622267LfSvpLILGoZA2xC0LEJaAKlvCFowmdXzvREwAv2DwKxpf5x85INXpo0f/uU/J7evuTW994URaAUEtA6N9WcjR47M7TJx0vCeaUemlHpr1yQ7LyFlkLFY2KWJV492JPFOT+U5bU4EBhS6dbJc106cONESYTbE+PkGgfBtRswft272D8MetHJP3WX9hQDxyQh/QTiFRsa7Ujv9Nc5/f9UnkylXTE2OHP1FIGXzP70oGfP7H0j2P/ejZNVDd4VukffSqy8l67d8s7+62XTt9tXvRaPbaTpg3aFuCPBOJSQIJA+CaWkMAgMGQMPypS09aI2M8Bx/41EQwPgbSZYoAntcR4+BQ3b1bScmkyp3agTaGYGhZ56VvO1tpyXHjr8ahilSpjGLsH33B48ry6kRMAJ9iACBd48fP16087QPm3dTBQTakqA1MsJzud+aPHKGPgRNJC3Pm8c8PwfdSqdcGy4zAu2EAF4zyFhM0Jj6JB9hCvT8UaODl01eN4gdEk+Jquz468eTMwaeEco3fuuvk0njP5LaIjP20MVTrK+dOB7qnFawTb3v7fluIptqD7Job16AyT/aHAHeZQ899FCyePFibyTox2fdlrs4y0V4zmIdR3het25dsmnTpkCU0CMKM5sLqhVtX2ZNgmyxLgDZuXNnSLVzB6/bxo0bi9pjd4124ARl/zACbYrA9/fuTF791alF0ZCxv1q8OhAihgsJgkghkCLWpYksMSW64I6bkgc2fyMZNuTs5LY/XZGMOe/UGYLoQ84gWIvv+rPk/e8bE8gZNqgDobvgfRcGW5cXiNulH7gs9GHV+q8kP9z/dPLOQWdiIki2Pfrz4fFXpH2UnlMj0I4IsHabZUGe2uzfp1uRoFU6iqB/u5/feiMjPOe3eCpXW65ZB8dOmnnz5oWdMpA+HakhoqZDba+99tqUEMZbpMu14zIj0OoI7H/+mWTp1xYH0sRY8FJNnTw9wauVJ6NHXRCyn973VEjxcD3/z88mZ77jzOT9516UVjl67OXg/SIDogcxGz50eLLylvuSEe96b6oHeRt4+hnJz186lNCXmDCiRHv06dmDB0KdAwd/GlL1I9z4hxEwAkagBwhUcshUJGg9aLtfq2pnTV9GeOZbB0d5SETUIGGsV6sk2UCGlfRdbgRaHQG8Y3iw5E0bN3p8kUdM4xty5lBdFqWQKNaz5QlkD2J23nvPDx43PGgSSBvCJoRywhQrNiCPtFWqH+VsuMwIGAEjUA8CbbkGDSAUpI8Iz0g1EZ7lzoXV1hvhme3OeMyQOPYaGwKuuuqqkM8PxalJM3xhBDoUATxYm77zcDLj3/3HkgiwmaBr2Lu7lf/Lv/w2efV4fvwo1q5R/vffezR41dg1KhExE1FTfjb1urMsIp19X2qdsVCpJjpAbKOedcf6ss8h6Zb2RqBtPWiabtTj660IzwcPHgwm+SPTLky18dRTTyV4y5japBzCR6gPdmnKO6Z+ELRQ69v4g6Pe8uXLvQZNYDptawSW3PiF4JnSlCbkiwX6J958PUw5ikAJBE0xTrjo0pDFGjI8Y2wK+MkL+6TWLZWHjTVlMcH7yc/2J2/++o3kPcNHBo/dh8ZNSoYOfssTR3uQO0gewkYGPGnqb7eGnGEECggQDFYEqhGAsPs/DjjbiDZss3kQaFsPWm9GeOZxcSwGU5bZiMzxoxw3blzC4n/Wl2WjRZNPEEM+0mHnZizTp08PMef0DctRnGN0fN1OCDC1CUljClHBauNdmRAoFvFTxrTnA5v/Zxg+XjCIEhLrx+vQQmHhx7Z/2Bq8crF91qExJfp32/8mbCKgbP6sP09eeuVImGbVDlDKkbg9Ngp4F2eAxT8KCGS9XwqdtGvXrmTKlCkl44fybrrnnnuMoRGoiEDbEjRGrnVovRHh+YYbbgjTnpAvBJI1duzY5MEHHwz3/GBDxc0339wtKG52OjNPJ/vHnhr1hRFoUwTKnRrAJgA+sTAVKuIU53NNfrYsz0ZcD7IlwsVO0NnT/3PyxptvFIja0aCWZzOu72sjECPA7AizKtrsdejQoXC8IDoTJkwIB6ozm8L//69//evhC7/+74vc8a7gvSUvGdcEi+XdEgdbp5woAwrGri/1OBEQ3k+0o01+sk8+/UMv+14KFf2jqRBoG4KW962EOfrsPP2yZcu6PQB+ifPyY8VSOjNmzIjVwh9EvbZkiLHwR8nHYgSMQO8joDAavy1MYxKWA8F7xi5QiKDFCNSKgHbojxgxIiVG2GAmRGuhIWhDh+ZveEE3u2wGIrVy5coQJ5PyPInXOqscR8KiRYvCO4T3iUQOBu7lwFCZ0+ZDoG0IWvNB27MeOYpzz/BzbSNQDgG8Y4TMIAbb7OmfCarsJP0/29aXq+YyI5AigPcrT7RUJS6LvVV4u0pJfKoMa9nwlO3fvz95+eWXgxNBnrB4MwJ5kMBsHmRv+/btRU6K2H6pPji/eRAwQWueZ5H2hD9gR3FO4fCFEWgIAvHpBQ1pwEY7CoFS5If8qVPf2kFcDpTJkyenwWEViaCcPu+K3bt3B5W89dGa8pSN2L7ynDYvAiZoTfhscEmz3sBiBIyAETACzYmA1o81Z+9O9YpwUZWCoTZz/zu9bxUJGg9XCw07HSyP3wgYASNgBIxAMyLQCoSxGXHrzz5V4lYVCVp/dt5tGwEj0NwIaPcj8cvYlUm8MB10Hvc8PqQ8zm/X6ywu7TpOj6t/ENDUJbMtCgHFWc6EekK04zNel9Y/PXWrPUGgbQPV9gQU1zUCRqA6BBTgVWdWqpYOKNch5ZC2TgjyuvhPloYD1dkJyjmfBMdlx6jFCPQmAmwAILg5wdFZ38Y6N3ZoElWAD9fs0oxPr8m2z/o1gqpff/31adD0rI7v+xeBtiFo+mXTL20MqyL8U8aOl94U7DXCbm/10acU9BaStpOHAJH2ichPYNlSwgHncVT+Unqtnk/g3fd2vXUgu04/8AHrrf5km6f/s2bN6hYeIz6xRj1V/LQ4xIbKnLYOAm0/xQk503ZogvQRcNZiBIxAzxHguKVhQ84OscOyQWXLWVcMsre97dS/n/i8S0gOXqdXCsFih5/VFU4LoA0CyP72X34T8rD9bOEoprOHDE+PZ4pt4KnT6QHoxicOyP4Lh58vHON0AcVF5dX0La8uU7ucUoBwsDqkbGch0C5x1nSclOOrBXha+geEp9pTACBOcSBzDTzPxty5cxM+seTVz6tLnTzd2FaefWw53maMUvNdt40HLQ9aAvjdddddoSgbWTlP33lGwAhUj4DOz+Qg83LC+ZmQMaZBRYCOHP1FwvQna9M+PP6KomlAdF965ZehnOOakDPfcWbyvX/aWTjy6RvBYwe52ntgT3rPsVAQRuxjD7uyD3GKp1ex/5vf/DqUQ940DVlt3/LqErIDW3gKt+7YnHDPiQQQSwLgDh08rBxELjMC/YKA4232C+xVN9q2HrQ4unIpcsa06JIlS8KxFyAW6ylIYJyHjuwy55+N9K8ggllb3CPsiNXizVM53c9zIz+2w33cB7VPfnx8iI78iOtSj+OoLEagEQhwpqW8YFn7eLBiL5Y8XHiaRNaowzTgBe+7MHicZAOSo+lB5eGJgtSJ9JDPtKru4zM0CUILIdOZnbKhNLYPudT5nMOHDq+pb3Fd2Y5TPGZsnoBcQgItRqCZEOD953ibzfREuvelLQna0aNHkzVr1oToyszFL1iwoFuoEBEdIjBL4uMxWFzJQkyiOHOmGi5kZM+ePcEuAf9wEUuyR3RgCzKm89CyZFD1mH6Nd9rEBEs62Fq7dm2RCzx7fMiwYcO6ETvq8bEYgb5GQISsVLtZAjfkzNLH32AjPiOzlE3y5QXjGk+WTgvgvlqptW/V2rWeEWgmBHh/Od5mMz2R7n1pS4J29913pyN98cUXk/Xr1xeRGwq3bt1a8XgMti9DvCBlEDQ8YLt27Qo7ZrKRoeMo0lr3Bjnau3dvcumll4Y+0Jd48ab0OPSWqNGQLKJCxzry5OUFHMweH6KI0iJ8pUhhCo4vjEA/IVCJwNXbLQgZHjrs40nDY1erNKpvtfbD+kbACHQ2Am27Bg2S86lPfSo83R07dhRtI4a4iMxwPAa7MPnICwaRQiZNmhRSSBnkDE8aHrUxY8YkI0eODGX6ER+hQSwapheRgwcPJnF7N954Y+p5kx7eMEigFoCyCBUvINuf6V+eZI8PYS2BCKC2VmMPEmcxAo1A4NXjr4Q1V7XYZuoy3tEJgWIqMl4jVou9UrpMV7Im7bz3nvJ8l9KL83vat+xaPGKhDRr4jrBRgOlZS3shoB3yen8w+9GfQvvNHFGgVmzAl08nS1t60OSBIkrvCy+8EKb5HnjggXS6sdIDl7dq9OjRwZulaU553SZOnNhtypQ2JbTb1dWl2zSFVOElk2T18taoSbfedNSoUfVWdT0jUBYBSAdrwypNT8ZG8GohU66Ymq4RY0H/+i3fjNXqvv7Wd//u1K7JQtw1Yq+99MqR5LSCRw3CVkl62jetp2MXJxsj2ODA2rhqp2cr9c/lzYOAZjbiHukLfnY3Zqzj6+oQ0FIfZoM6WSoStEpHETQjeLGXavr06YGgxdONcZ/LHY/B2DXN+Z3vfCd43SBZTEdmRV438iFakLys4CnDM6b1bFk9pkO1Zkz9yvtHkLXLPcSPvmUFD57FCDQCAUJrQLQIg4G3ivtqDiCHCIkMZfvFaQSxYDMbwmPp1xbHKkml+1g5az/b31r6Vqku6+EghwSsdYiN+Cm09jUzIiJjWk6i5SrM1rD8Rf/jW3uk7n2jEYADlJO2neLUoDWNyD0bB/jjYuoP4oVwPAYg8Vm+fHlwEcduVU1zPvzww2EKMZ7KDAZ+9yOeRhXREpmL21MfqJbVE5liepR+0yemV6sRETSI4vbt20OV+B9JNTasYwRqRYDQGZAQ71LsjpwC1GZ3pHbXdE6rIqAZCr1n9CWc8bARjWUqfL797W+HVNOhELpY+F9NVH+V8y7Kvrypo3LSSicAxDbjd5r6JVvx1GxcR1Om6Km/cR75cd14PJWu6Y/aj+3rPSwCzBKfeJxx/6gHZuS1q7Q9QcMLhhcNiclLtcdj6A9PvwAibLpXyh/mwoULwy+dAuPGa9XUHn2YM2dOkd7MmTPDNy79seNFi4/sUBvl0ni9mdbV0U7s2aO+fsHjX/pydl1mBMoh8P29O5Pjrx8PU3rl9DqtjPVnBKhlGriUt7DTMGmX8fJOGTFiRBgO/+shU8iyZcuSTZs2hU1hIeN3P3g3sHGNVEI9kR4I0/z584v+V/MOWLRoUUo+0NV7RTawt2LFilRH+aT8n1cIKdYhX3PNNaEYO7yn4r5AhvIIoUiSluZAxpSntrivlaShn11bzdhiEin7cZqHE+83xtmuJK3tCRoPmF2UWizPjkkeNC5oYofF04JauwbZkfDHyJozhHLWpeUJ9tUG5XHsMu5pD++ZNg+Q/FfjCQAAI0NJREFUh/CLqT8e+hnPuaN77733Fq2DO1Ur/yd2svUhYhYj0CgEmLpjijE7ddio9lrFrnFplSdVez95J8yePTt9d+gLdbkvvbwbIG8bN25M3wE7d+4MjWttM/+70eGDfuxQkC7vC8ohfLy7IFosm4nltddeS1auXBnq8w7R6Tl4p5gxQmRH/WEMzOjEQl3KOQ2BTXFatqO6pAgb7qolSLx7mW3iXbpu3bqisUD26CNEV+9SMKF93p/CSf1S32OcQofa6Mdp7TIWSFW5IzjyjrrgoecdxZHFRF4opkVj8oZe1m65BaL8YfPLV04gWSJs0suOq1yf8+rjjZPQBx/vITScGgEjYARqR0DvjtirBFnCOwVx4cu2BCKlsEz8/9W6aIjN888/XxRRIOtZ0rtH7xlNAUKokNjBoPYee+yxtAwiSZuIohBwLXLFtYQlNrEDgn6qLqk2vqkuKWSxFlEcUbBihicrkM3sOxYdxi2CGPer0vs0a7/V7jvCg1bPQ9EfAvPcMPv4j6wee81Ux8d7NNPTcF+MgBFoVQQgTrFHi3FoXbPGxLsj3r2v9cIqL5cqooDWbPFlW+SsXD3KIEF4naoVkcFS+tmD2iFovB/zpkdL2SiXn+cNlD7v48OHD+u2Y9K28aD19hOLvzFgm/UAfGtqdcEV7eM9Wv0puv9GwAj0FwJaDxYvieHdwDtC3qW4byIe8gzhJSIv6/2ibux5kw3+Z2vtF1N/kEKmCpcuXSqVohS79IUlNXm7SinX0YBFFQs35aYq41kqCJOOLdT0aF7fs/Z1zzSlTtlRXrmU9zHr/iqRyHI2WrHMBK3MU5NbuYxKyxXxR+bjPVrusTWkw9OuPLVwuCHGbdQItCkC8oBBFtgxz7ISCIvWd2WHLU8W75NYjyUz5513XogogC3qsykNEflhDRZhnUToNFWqqcIsyaMukQYgS5A5pkwVA5R1ZGxcg1DhWaM/EDJtJoAgxlOc2JJk9bAPwVI/mR6thqAxFvock7o8wqt2Rchih4lwIk9TzCKuqtcuqQlauzxJj8MI1IDAtCuvrUHbqkbACAgBvGWQILxaEKDsurF4jZTqoCsvGHmQFJEtUjxdkJZ4vTAeOp0Kgz5khTVu1YrOk47JkNa/ZfuDR0uhnfLs88VehC/rJaRvig3KVCx4lCJMMXZZO9SRl1F9UD/RLYVTjGWl9mW3VVKvQWuVJ+V+GgEjYASMQFMggPcp3jFPpyAK7K7MepLIh1iRSi+eYoS0lIsoAGlZvHhxUX3agdDgWcOblifUI2g7onVx9C1LjKqdbsRTmB0zJHLVqlU1Lf8BO/oeC3bjzXHZ9W7oghNt0aYETGMsld8u6YDCQE6WG8yJEyfSnRzl9FxmBIxAzxHY8vimZMvjjyRMP9rL1XM8baE2BPz7Vxte5bTjdWLtTCKyGODFwtsHEbNURmDAAGhYvtiDlo+Lc42AETACRsAIGIEaEGCNHaffxF6uGqpbNYNA2xA0FjHGR2VkoxvzbYZAgmwL5gPLR9DjPqufwalfbuljb25j7pdBuFEjYASMgBHoCAS2bdsW4qXF05UdMfAGDbJtNwkourEWHWrXS4NwtFkjYASMgBEwAikCrJkqF1Q8VWyjCxOz3n2YbUvQWDypqMRyu+ZBxzy558rzkHGeETACRsAIGAEj0F8ItCVBu+iii5J9+/aF3S18i4GgEYWYHR+DBw9OiNkiKRVHRdt1pRfvMokXf06YMCHhaI14N4nKIYkI8/EcryRvnsop45y0tWvXht043LPDJrsLiPznnnsu+eIXv5jGw8kuOmWMikmDPhLbiuPY3HLLLcmjjz6aRqTO2xItXLATj417S+sj8N0fbE/Wb1mXDuQD5/9BMnfm59J7LlZv+Gryo2f/Kc37t5f9YfKpT3w6ve+Ei2cK41/z8Ork1795M5k1bU7ykQ9eVTTshx99KPl/T347GfzOIcl/mX1L8q6zuorKK92Usv/6G68l/+Ovv5JceO6YjsO8EmYuNwKdgkDbrEGLH9jll18eSIWC3HG0EdeQKYL1VRLISTa2Dfdat6b6ELD43DMCGBJ0jy3VImfo0vb8+fND9GfVJUWH7dKxLqQKG7EQx4aggNIjXbFiRRr1GfJF5Gj0YsFWts+U33HHHUW6xJqRHkSPozvimD20x5iy/Yrb8nVrI/DiL36W/PKVI+kguCbP0vcIgP1f3LcsOWj8+x58t2gEmgiBtiRow4cPDwRN69DkMTv33HMrQo93i6CBCASHc9ZIEUgLZCgWvE/o6EBzjtdAlE8Z15AcIjpDgGKR3saNGxPi0SA7d+6MVcK1+gKhw6MF6YN4IuvXrw/3eOrWrVtX1OcNGzZ0I4a0Q3txm+y8oW979+4N5E068fgVSyc06h9thcCbv34z+eXRX6Rj4po8S2MRGFvwXN7556uSlbfc180719iWbd0IGIFmR+C0Zu9gPf3Dk8UxGhAqCAfkA1JzySWXJM8880xZkzonDYKiYzeYcoSoSNBBsKlo0NzLUwdRItCeRBGQ9+/fnxw6dEjZRfU5tkJRnkUspRj3RceMyJsGYUQfISihplHpO/XwqrFBQhGp0YsjXU+cOLHImyZySL04qjX1mCaGxNFXS3sgcPrbByYD33568qvXf5Xs/enuBMKAcM203qh3vy859tqrya9eOzVdH4+60hRoPP0355obk3WPrEntaLpUOtilLzd+am7aB7UVTwMqLzvdKDtMNU6e8G+SrTtO7dI+e8jw5OVjL+VOQcZ16pmeVF+yadxf+vn0M99Pp4qzY8zqYiueemb6lE92vNk2fW8EjED7IdCWHjQek+KwPPHEEwnEiDPIOGy1ksjbVkmvXDntxCRGpCpbB4JHmaSUnsrLpVlbtN/VVdt6mHL2KYMUipxW0nV56yDwB++/JHT2xy/sT1j7xIdrpOvsd4c0/kH5X35jeUo6VAaRgLRlBXL3tYfuSskZ5eh+4etLQip9COEDm79RNNUKibqnYJOyWCAxpdoSOUN/8sSrAzmjDz9+/q0vZ/EYzymQ0FrXjsV9KXdNP+N1fIyDNW0QM4sRMAJGoBwCbelBY8A6lFVrxCArMWkqBcqoUaNKFVWdn/U0ySuXNSDCI6+X9CBbtYpssSkCwdN15Mhba4pqtcfUq3e31opaa+qfNfjs4L06UpjWfOHQc8m7hr07eM3w9rB54Kc/+3HRwLYWTjpgfVTsDdKmg5+++JNAPuSJU0VtQog9Ri8V1lrJMyRvlqZaIUzoPvGDx4MJ1edGuhAf2s0u3I910f9JgWyiiydLuoyT8SITxn4opI34EW8eUL8habG3Mm6X/l143tjkrx64IxBaeRpjHV8bASPQGQhU9KBVQ2qaEaqsN2rSpElVdVP1mOJjehRhXRpBbvlwXUpGjx4dPHesD2NdmGTr1q3B+4QXL96kAKmiDIFQscYLYXpWpC1klPmBHvoI69+0Rk5rySB7Osi2jJm0SDixDk9jZQOBA+amELXdxciu9yZdBVIGcTh67OXgacLjNPD0gcnZQ99VNN7Y83TBOe9PpyM/eNGlYTpU5COuBJH72IenhKxzR/5+aIsbpk+ph4y74OJA+NQH8jTNCsn5D3/0n8gKMrVwDBZ1EUhXLHFbyhcBizdCxLYhRI2SD33g8tQ7d3VhFyxjsRgBI2AEQID3fjlpWw+aiAtkKTv9Vw4QPFCTJ08O69e0OUD6eJUoF3FRvlLaRIcdn6x/i3dC0ofZs2d38+Ll6cXr2mS7XKo1box1zpw5RaozZ84MfRZxKyrMuYnXrrFzMxatXcPWkiVLAunMhvuI9X3dGggMGjgoGVIgDgcL3Y0JD1N/w8/KErTXg3eNkeGVWnDHTd0G+fOXDhflQfTwymWFNt9xxjuz2em97Ax559CC3jvSfOqov8cKRBLSKMlrCwIGMdI0J7Y0hRsTKNnozXRkV8898r3ZH9syAkagdRCo6EFrnaF076nWoWU9V901i3OY2iPuWSzVTvkRSVk7LVWffqxatSoQJeWRQtogQaS6r4fwQBrxnrEpIBYIZq2RnfGYEtIjz1ZefLa4PV+3LgLyMjFF+eLPXwgDUV7rjupUz5kuhWwiENAXDp2a3sTbhueuWjl0BAprMQJGwAj0DQJt40HDe6VQF4IOcpIlKMuWLVNxSEudJJBXVxUhROWO8KhULjukTIuWspXXh7xxYgdilR0b+ZJS9fLaqMYWgXf5WNoDgWFDTq1DY4qRD+SFvKzgfcKjhTcqu9Yrq9vT+/cMHxG8dOwiff2N11NvGx4zPGdIJS+c+sAUK+STz5u/GyPTpEy5lhM8f3jlwIT1cBA6ra+L18iVs+EyI2AEjEA9CLQNQatn8K5TPwKEFDl+/HjRLtT6rblmfyOgtWEKjsqaNPIgRrEwvUh0e/TiDQHx4n8t/I/r1XMNGYIUQQb/9//9X+lJB9qkgM1qvXzx+A4USBrCOMpNsaITE1JIGjtK86SRO0Hz2nOeETAC7Y+ACVr7P+NeHyFr0B566KFk8eLFVW9m6PVO2GCvIhATLwzLM5UlaJSx2P37P/peIE5ZwhIv/Ee3J4Kn6qMfvDKE4shb78YOR+3KrNROdnzVTm9S75Mfuy497imvnbyNCXl61ebFpNBx0KpFzXpGoP0QaOs1aM36uDQFytQm160mTJdy7mcr9r3VsO7L/sYL2st5pljT9Rd/9pUwxRn3jynP//qZZRW9UnGdStec/TmvcEYoJCgWvHS1nguqnaLYkYcwtlnqGqK4/E//Mt05GutBSCnTtGdcVu81pPDqD32sqLrXvxXB4Rsj0BEIDCiM8mS5kZ48Wba4XFWXGQEjUCMCWx7flGwpxBmbVgglMe3Ka2usbfVyCMTTsI4vlo+Uf//ycXGuEWgEAoTZGDRoUEnT9qCVhMYFRsAItBMCf/+P29INELXs3mwnDDwWI2AEWgcBr0FrnWflnhoBI1AHAtkzQ+MAu3WYcxUjYASMQJ8gUNGDVinSbZ/0spcbITI+H4sRMAKdhQBrxv74k8UxDjsLAY/WCBiBZkGg0klNHedBW716dYjwnw1E2ywPzP0wAkagdxGYW9hkYDECRsAItBoCFT1orTYg99cIGAEjYASMgBEwAq2OQNsRNB3szeHefJ566qnwjJiqXb58eXo+JudlxoefE9tr3rx5oQ71uK72/MpW/yVw/42AETACRsAIGIHmQqCtCBrTlxCvWDiPstJ6Mw4/nz9/fsJh4xKuORDcJE2IODUCRsAIGAEjYAT6CoG2WYMGydqxY0fCweScEUkwVfKWLl0avGZXXXVVOKsyXoOmczrJO3bsWDggnIPCEQKxPvnkk8n27du7nefZVw/H7XQ2AsSkshgBI2AEjEBnItA2BG3Pnj2BZEG05syZ0+1pHj16NPdYIqY+jxw5EvSnT58eDh3nptzB492MO8MI9DICBKu1GAEjYASMQOci0DYErdwjhLRB0PKOJoKgHT58uFx1lxmBPkWAUwQsRsAIGAEj0NkItB1Bu+yyyxKmKSvFF9FjR2/EiBFF689U5tQI9DUCPt6prxF3e0bACBiB5kSgbTYJjB8/PhkyZEhYN7Z3796ANjs4S+3I1IYACFpXV1fQ37x5c6LAvKxLoy6pxQgYASNgBIyAETACfYlAxcPST5w4UbU3qi87nteWNgBkywhKG28I2LJlS6rCLs9hw4aFzQRMhcYC4bvtttvC1Cg7QdkhOm3atGTu3Lmxmq+NgBEwAkbACBgBI1AzAgMGQMPypaIHrdqpwnzzfZsLcYJAxRKTM/JnzZoVdnrGOqxNW7VqVVF+TM5iXV8bASNgBIyAETACRqCnCGjGrpSdih60kydPlqrrfCNgBIyAETACRsAIGIE6EICgDRo0qGTNih60kjVdYASMgBEwAkbACBgBI9AQBEzQGgKrjRoBI2AEjIARMAJGoH4E2i7MRv1QuKYRaA4EdAJGdtOKetfTjSq41TkpY+LEienmGdnuSSq7nMAhya4BVX5eyq5rNu0gpJdeemm4ruVHFrv4ZJFa7PS3rrCMn1E8tnrx6e9xuX0jYASqR8AetOqxsqYRaAoE2IU8b968us6J5WzZRYsWhXA0vTmYUnbZ+dxXoWogNQ888EA4UURjI8ZhK210ot+lsNSYnBoBI9AZCNiD1hnP2aNsMwSI47dy5cqagjI3EoIDBw6kwZ7l3ZFHbPfu3YF0cD5uX0lPvYx91c9a2mG3+YMPPlhLFesaASPQwgiYoLXww3PX2x8BkR2NFO/KkiVLAhnav39/cujQofQIs7hM+vEUnwiTyvBu8VEbleqrXl5KLEFC05Sals2rU01edlpv586dieIYxqFwYj3sosMnnmLN6qCnsXONKN4huF133XXJ3XffHfIhfOSBFymnlTBNrIDXakf1qRT3Lxgp/KiEcblnFMdrzPa7mrHFOtQvhaX66tQIGIH+RcBTnP2Lv1s3AjUhgBdq8eLFKRnas2dPqJ/34qcAAgGho7yc9LT+yJEjkzFjxoQmePnTR1IEctMb3jPsiZxhFzK4dOnSBOJRSSBOCxcu7EYgsZk3BQtuImfYnjRpUtoEZQsWLEjJGQUQN8ZMKqF/K1asSLHvKcaym01rHRv1e4Jltn3fGwEj0BgETNAag6utGoGGIRCTIXlwtm/fHggDZ9Fu3Lgx2bRpU3gJ0wl0mIJk0f26devSgMx4fdAjv5r65QbEOi9IC94lZN++fSGFCOgUj5DRgx/Ypv/0mb4jkCBIKtN/a9asSRg/AilEj7YhcBs2bCjKj21A+vBcZUU2hFFcrjJIHJ4yhDEz3tg2/Tt69Ggorwbjcs8oGMn8qHds5bDMNOFbI2AE+gmB0yq1y8LbVltkW2lMLjcC7YYAREREiL/Z5cuX17QRoKf14+kzYQsJGD16tG57nMaeuKuuuip400RQyxmHwEGU6A8niUimTJmS7Nq1K+DEdF+8axTSNXXqVKkWpXGZyDI7VyGH48aNC7o6G1gEDQLZU4yLOvG7m3rGRtV6sczrg/OMgBGoD4FK3KoiQauvWdcyAkagLxFQWIY4xEUt7fekfkzOICmf+MQnkjvuuCN47tjIMGPGjOSLX/xi6I7Otq2lb9IdNWqULmtKReKyOzr559jV1RVsHTlyJAEDCSSMNV95UqoMW+X+4fYE47x+kFfP2KhXL5bUtRgBI9A3CHiKs29wditGoNcQYGMAGwQQvELI2rVrU4+ZpjmZbqtWelJ/69atqYeKac6PfvSjYaqPtiGMLKjHk8QaNTxOnSo9wbhTMfO4jUAnI2APWic/fY+95RDACxPH+sITQh4eIES7CWsZWE/rq63YQ8V0IX2JF81Pnz69rIdJdno7FYk9fPhwwEpernjclbxfPe1T3FY9z6hU+80wtlJ9c74RMAI9Q8AetJ7h59pGoKEI4AW79tpr0w/ThZrGjNc8qROsqYIM8Nm8ebOyq07rqS+SQL/27t2btqXpN2WwiL/SblLp9maq9WD0Z/369anpbdu2pVjGuzRThQZd1INxqa4029hK9dP5RsAI1I6APWi1Y+YaRqDfEWAd1OzZs1OPFEcCQZD4QOJKCd4jPF2QFbxbfCCB1dbPsxsv2MdWKaFNQn7cfvvtvRJ2o1Q72XwW6M+cOTOMVfHRYh08WvEGgbist67BvVqMSz2jvDVxzTC23sLIdoyAEShGwB60Yjx8ZwSaHgF24BFRnpezhB2C5Evwat17771p2Al2KSK8/JlqjOXgwYNhh2E19eN6uibG2T333FPUvsogbISdIIVUEiusN2KiyX61KfjEITFUj35R1hfS02dUqo/NMLZSfXO+ETAC9SMwoFD1ZLnqJ06cSL+ll9NzmREwAkbACBgBI2AEjED1CAwYAA3LF3vQ8nFxrhEwAkbACBgBI2AE+g0BE7R+g94NGwEjYASMgBEwAkYgHwETtHxcnGsEjIARMAJGwAgYgX5D4LRKLbOo2GIEjIARqAUBzrZkAX4sbFzI28FJSJAvf/nLYZdjXy3Yj/vlayNgBIxAfyDA/75yYg9aOXRcZgSMQM0IrF69uhs5wwhhNubPnx8OL5dR4qItWrQojUemfKdGwAgYgU5HwASt038DPH4j0IsIcC7njh07SlrkyCdOQqj0zbGkARcYASNgBDoEgYpTnB2Cg4dpBIxALyBw9OjRcO4mppjijAPA4lkjUCzniHKeKLroSOLAuaoXH8QuvazdRx55JAShZQr1uuuuC/HO0CWu29y5c8PpBQTIxYMnKTXdqj6ix0kNn/3sZ5Ply5eHutkjmmJd9LPl5FmMgBEwAvUiYA9avci5nhEwAmUR4Kip2FMGWSJobTbIbikjEK+FCxemhE96EDTIUVYgYASjlXB8E1OoWXJGuU410NFT9BMiBoGUcCoDBC0mdpTl6ZIPwczrF2UWI2AEjECtCJig1YqY9Y2AESiJwLhx49LTC3TsFGeJXn/99UVrzzCAl2zdunUJ3iwEDxQEjnw8Zxs2bAj5eMLI54MOApFiI0JWYl3sbN++PRAsvGEbN24MNuS1g3gdOHAgmOAMUfqLqB/oUy8rOsOTkxEghPRLNpnepe8WI2AEjEBPETBB6ymCrm8EjECKALu+FyxYkJIuFbD2DG8YZC2PWElP6Z49e4LnDPI2a9YsZSdTpkxJSZOOr1IhhGnq1Km6DSm7QiFQy5YtC/d4yUSmYkXZoj3OFkUYC+edYleC94zDzpHJkyenx22JmDJO+m4xAkbACPQUgdN6asD1jYARMAIxAjqbEzJD+Ax5pqRz1113JbfddltKbpQfp5pW5GD3ONQP111dXUH1yJEjRVOoEKnsgeKl+hC3FV9n28MediFeCPYOHz4crvMOXqdAfQ9K/mEEjIARqBMBe9DqBM7VjIARKI8AZArPlaYn5bnqSy/T2rVrU4KoaU71o3zvXWoEjIAR6F8E7EHrX/zduhFoGwRib1XeLsnYG1XJy6R1aXirsCsvGtd4zhA8acrPAzHWrXaHZba9eFcqbdAeXjb6r12ieW07zwj0FQLa6TxmzJjk5ptvLvs3oT5pBzJfVrRjWmVOmweBih40/slZjIARMAKVEIC8TJw4MahBYObMmRPWnLHujE+8I5MdluVk/PjxYWoRO+vXr09VtUCfjEo20kqFC9aN8b+MD7tLsyJbtMfGAgRdYrZpepO8eIzxhgBekmyEqHaNHbYsrY8AvyN33nlnzRtD6q3X+oh1HwF/O2AIJp0m5b5ggoU9aJ32G+HxGoEGIsAifshQdt1Z3CRTjSyqR2KPVDYO2syZM0Poiry1XnjEKn3zF5miL3xmzJgRd6PoWov80VM/UBg1alTRGjTy2ERAnyBzkM5Y4rHF+b5uPwQUwgUCT/y9aqXeeqXsn3/++SF0TanyZs7XkXB5u6Wbud991beKHrS+6ojbMQJGoPURgBSx7qzUOi/yKdc3R9Lp06cXDfzgwYPhnh2YhLGId1FSgI1qz+xEj6lICVOn9957b7edoOp3rMv1l770pW7taxNErIt97uOxqU2n9SPAVFzslYTczJs3ryhP3kt+L2699daikC4qi8O8QAqwyQYW8tnZK+8Nsfcoi/OyfWA0IlmQdAgaRB09tRfXV5/p9/PPP5/G5YvrCSG1RR/40B9JbOf+++8P5dj84Q9/2G0c6ofsZG3JZpxm247HIHu0p7axSR0krhvv0gZX7MT9kF2RM+rrC5Tq6hmpXowD+nkS94F6siVd4Seb8e8EOqrP+PQ7Jh2Nn7rqv+w2MrUHrZHo2rYR6FAE8G6xOaAaKadbjXcAElaOsBEgl08sEKk8yeryT72UZHVL6Tm/fgSYesZbSRgUfk+IWwcpQiDy5Gmd4Hve854Q3gUPLqFO+N1RuBb00SNPXwAuvPDCQMx0ssXIkSPTECpai0g91jzm7RCmrLcEIpO34xlvLuONf3+5Fwashxw4cGBRN/idXbFiRdHUPArEFWTpABhkBXICzrFAmthkU6ptdPO822vWrEluv/32hC8y8SYd2cYuSxXwTudJTNxUDg5Iqb/zvP5D2PnwOwLBWrp0aREmIsjSUVsPP/ywLlPynWYULtT/Un2JdXt6bQ9aTxF0fSNgBFoeAXlO+IYcf1sXIeAFzcvN0rcIaGOJQqooXh290LpC5UHm9NKHwEB60JGgpzye54QJE8JGE17UkDeOH4OsIdTn2SuPBfgQOAnkAxKCRxZbeHpjIiO9bDp06NDcegqULFt8uZH3OF7rKHsKpswXjdNPP13ZIZWHV7unFXBZ4yxSztxAVlSPNG9M0pEHGQwIOK2g03E71I/t0W8EfCFO2EK0w5qlBlojqnZkFzKY94UJ8gVGMXayq9+NrVu3BrKlduiT+pI98UQ6wp/+CW/VEUGmrJFyWiON27YRMAJGoBUQ0KYEXi7xGjT1PfuCVr7TxiIAKQJ7iNNzzz0XvFkQAjxHeLn47N69OxCl0aNHh85QTp7Kx44dG/IhedjAlp5n7KHjmud/9dVXJ08//XTwtOFtI4/NL5qWb8SI5dVj3aU8XKQEQ4aY4AlUAGWISDVfFkp55fL6LxxEbNDhGhIVC9jGOFN28cUXB28Z7fFcwCsrfOmRFyxbFt9jg+eGxH3hnnFDpCGgsciDCmEUdvQbEoZgU15QAk/rOWotqTyosqlnrS8H5AtvfQGQbqNTe9AajbDtGwEj0PQI8I991apV3U5AoONeW9Z/j4+XKS9MXvp4OniZQgjIw4sBeSEVSeDlzXVcxouY50tdbMSEC7IhQkcZJODjH/94SNnNy6daQhSjBMmAGCAiEHF5T67pD+ShlGit1aJFi8KpHvKgldInX4QmJkVcV7PeCvxKidZ1QWxir1Up/WbMr4R3I/tsD1oj0bVtI2AEWgYBTQ21TIc7pKPybj722GNhxHh75N2AoCHkSeQNokzkCoLAPTaUh74InYge01tMs0HyZJu8eHpT7UAeS3mMIIHy9mgdHO0iefXkmYnXicVTd/LgqO1yqc6f5YsF44OwyStVrh5lImrUWbJkSSC1TPPWI+p/7HXLTg3qOcq+sEEPgpj14EkvTmWDaU6OeoOMax0bz47YcMRMZO0YYXMUK044lXq+cRv9dW2C1l/Iu10jYASMgBGoiICmOXnBypsR58UEAGPyivGSlz4vcfTI0/SmGhah417Bj+M8TXlpmg7iE6/Ngoyxi5N8zo2lTdrJhmBRe0rjejfccENYh8UYs/WwC+nIW38lW3EqsgfBFMmMy7PXePryNiigJ/JSD0kTcQILYiKWE8ZNGBxIGbu6uec6FpEt+gt5BD8dGaep4Cx2enYQNwic2ont0h7EsBnFU5zN+FTcJyNgBIyAEQgI8PLkRYuIXJGnM1k1vRkUCj/kFeNeZfLMkKeXNteICB3X8sSJXEC2Snmv4n5Rl3VO5C1evDiQNPIQSEM8DZhXDz0W/EPGYmFRekwG47JS13idYjtci+xo0Xxcl/7ktU2fFyxYUDd54TnceOONaVPYW7lyZTqlDOEU0ZaSduaqv8oXOaOveQJG8ZjRATvttMxbwsCzZSNANV66vDb7Im9AoZGT5Ro6ceJE3Q+onF2XGQEjYASMgBEwAkagkxEYMAAali8VPWilGGu+OecaASNgBIyAETACRsAIVEJAG0lK6VUkaKUqOt8IGAEjYASMgBEwAkagMQiYoDUGV1s1AkbACBgBI2AEjEDdCJig1Q2dKxoBI2AEjIARMAJGoDEImKA1BldbNQJGwAgYASNgBIxA3QiYoNUNnSsaASNgBIyAETACRqAxCJigNQZXWzUCRsAIGAEjYASMQN0ImKDVDZ0rGgEjYASMgBEwAkagMQiYoDUGV1s1AkbACBgBI2AEjEDdCJig1Q2dKxoBI2AEjIARMAJGoDEIVCRolSLdNqZbtmoEjIARMAJGwAgYgfZFoNJJTRUJWvtC45EZASNgBIyAETACRqA5ETBBa87n4l4ZASNgBIyAETACHYzAadWMvZppzkquuridauyhb5sxaqWvjWdpbFTi3yUhUT7171J5fCj171JljNDw71JlnPy7VBmjTv5d+v+PlXLxZLMUAwAAAABJRU5ErkJggg==;" parent="1" vertex="1">
          <mxGeometry x="124" y="710" width="616" height="363" as="geometry" />
        </mxCell>
        <mxCell id="ZYfU5RlasqrC-Ns5ZQEX-17" style="edgeStyle=orthogonalEdgeStyle;curved=1;rounded=0;orthogonalLoop=1;jettySize=auto;html=1;exitX=1;exitY=0.5;exitDx=0;exitDy=0;entryX=0;entryY=0.5;entryDx=0;entryDy=0;fontSize=15;fontColor=#000000;strokeColor=#999999;" parent="1" source="ZYfU5RlasqrC-Ns5ZQEX-5" target="ZYfU5RlasqrC-Ns5ZQEX-11" edge="1">
          <mxGeometry relative="1" as="geometry" />
        </mxCell>
        <mxCell id="ZYfU5RlasqrC-Ns5ZQEX-5" value="INPUT UNIT" style="rounded=1;whiteSpace=wrap;html=1;shadow=0;glass=0;sketch=0;fontSize=13;strokeColor=none;fillColor=#67AB9F;fontColor=#FFFFFF;" parent="1" vertex="1">
          <mxGeometry x="130" y="278" width="125" height="51" as="geometry" />
        </mxCell>
        <mxCell id="ZYfU5RlasqrC-Ns5ZQEX-8" value="OUTPUT UNIT" style="rounded=1;whiteSpace=wrap;html=1;shadow=0;glass=0;sketch=0;fontSize=13;strokeColor=none;fillColor=#67AB9F;fontColor=#FFFFFF;" parent="1" vertex="1">
          <mxGeometry x="601" y="278" width="123" height="51" as="geometry" />
        </mxCell>
        <mxCell id="1WfK1Uy6FLx2MTizPKOZ-7" style="edgeStyle=orthogonalEdgeStyle;curved=1;rounded=0;orthogonalLoop=1;jettySize=auto;html=1;exitX=0.75;exitY=1;exitDx=0;exitDy=0;entryX=0.75;entryY=0;entryDx=0;entryDy=0;fontSize=15;fontColor=#2496ED;strokeColor=#999999;" parent="1" source="ZYfU5RlasqrC-Ns5ZQEX-9" target="ZYfU5RlasqrC-Ns5ZQEX-10" edge="1">
          <mxGeometry relative="1" as="geometry" />
        </mxCell>
        <mxCell id="ZYfU5RlasqrC-Ns5ZQEX-9" value="control unit" style="rounded=1;whiteSpace=wrap;html=1;shadow=0;glass=0;sketch=0;fontSize=15;fontColor=#FFFFFF;strokeColor=none;fillColor=#2496ED;" parent="1" vertex="1">
          <mxGeometry x="349" y="129" width="148" height="51" as="geometry" />
        </mxCell>
        <mxCell id="1WfK1Uy6FLx2MTizPKOZ-5" style="edgeStyle=orthogonalEdgeStyle;curved=1;rounded=0;orthogonalLoop=1;jettySize=auto;html=1;exitX=0.75;exitY=1;exitDx=0;exitDy=0;entryX=0.75;entryY=0;entryDx=0;entryDy=0;fontSize=15;fontColor=#2496ED;strokeColor=#999999;" parent="1" source="ZYfU5RlasqrC-Ns5ZQEX-10" target="ZYfU5RlasqrC-Ns5ZQEX-11" edge="1">
          <mxGeometry relative="1" as="geometry" />
        </mxCell>
        <mxCell id="1WfK1Uy6FLx2MTizPKOZ-6" style="edgeStyle=orthogonalEdgeStyle;curved=1;rounded=0;orthogonalLoop=1;jettySize=auto;html=1;exitX=0.25;exitY=0;exitDx=0;exitDy=0;entryX=0.25;entryY=1;entryDx=0;entryDy=0;fontSize=15;fontColor=#2496ED;strokeColor=#999999;" parent="1" source="ZYfU5RlasqrC-Ns5ZQEX-10" target="ZYfU5RlasqrC-Ns5ZQEX-9" edge="1">
          <mxGeometry relative="1" as="geometry" />
        </mxCell>
        <mxCell id="ZYfU5RlasqrC-Ns5ZQEX-10" value="arithmetic logic unit" style="rounded=1;whiteSpace=wrap;html=1;shadow=0;glass=0;sketch=0;fontSize=15;fontColor=#FFFFFF;strokeColor=none;fillColor=#2496ED;" parent="1" vertex="1">
          <mxGeometry x="348" y="196" width="150" height="51" as="geometry" />
        </mxCell>
        <mxCell id="ZYfU5RlasqrC-Ns5ZQEX-18" style="edgeStyle=orthogonalEdgeStyle;curved=1;rounded=0;orthogonalLoop=1;jettySize=auto;html=1;exitX=1;exitY=0.5;exitDx=0;exitDy=0;entryX=0;entryY=0.5;entryDx=0;entryDy=0;fontSize=15;fontColor=#000000;strokeColor=#999999;" parent="1" source="ZYfU5RlasqrC-Ns5ZQEX-11" target="ZYfU5RlasqrC-Ns5ZQEX-8" edge="1">
          <mxGeometry relative="1" as="geometry" />
        </mxCell>
        <mxCell id="1WfK1Uy6FLx2MTizPKOZ-2" style="edgeStyle=orthogonalEdgeStyle;curved=1;rounded=0;orthogonalLoop=1;jettySize=auto;html=1;exitX=0.75;exitY=1;exitDx=0;exitDy=0;entryX=0.75;entryY=0;entryDx=0;entryDy=0;fontSize=15;fontColor=#2496ED;strokeColor=#999999;" parent="1" source="ZYfU5RlasqrC-Ns5ZQEX-11" target="ZYfU5RlasqrC-Ns5ZQEX-12" edge="1">
          <mxGeometry relative="1" as="geometry" />
        </mxCell>
        <mxCell id="1WfK1Uy6FLx2MTizPKOZ-3" style="edgeStyle=orthogonalEdgeStyle;curved=1;rounded=0;orthogonalLoop=1;jettySize=auto;html=1;exitX=0.25;exitY=0;exitDx=0;exitDy=0;entryX=0.25;entryY=1;entryDx=0;entryDy=0;fontSize=15;fontColor=#2496ED;strokeColor=#999999;" parent="1" source="ZYfU5RlasqrC-Ns5ZQEX-11" target="ZYfU5RlasqrC-Ns5ZQEX-10" edge="1">
          <mxGeometry relative="1" as="geometry" />
        </mxCell>
        <mxCell id="ZYfU5RlasqrC-Ns5ZQEX-11" value="memory&lt;br style=&quot;font-size: 15px;&quot;&gt;(temporary)" style="rounded=1;whiteSpace=wrap;html=1;shadow=0;glass=0;sketch=0;fontSize=15;strokeColor=none;fillColor=#E05243;fontColor=#FFFFFF;" parent="1" vertex="1">
          <mxGeometry x="348.5" y="278" width="149" height="51" as="geometry" />
        </mxCell>
        <mxCell id="1WfK1Uy6FLx2MTizPKOZ-1" style="edgeStyle=orthogonalEdgeStyle;curved=1;rounded=0;orthogonalLoop=1;jettySize=auto;html=1;exitX=0.25;exitY=0;exitDx=0;exitDy=0;entryX=0.25;entryY=1;entryDx=0;entryDy=0;fontSize=15;fontColor=#2496ED;strokeColor=#999999;" parent="1" source="ZYfU5RlasqrC-Ns5ZQEX-12" target="ZYfU5RlasqrC-Ns5ZQEX-11" edge="1">
          <mxGeometry relative="1" as="geometry" />
        </mxCell>
        <mxCell id="ZYfU5RlasqrC-Ns5ZQEX-12" value="storage&lt;br style=&quot;font-size: 15px;&quot;&gt;(permanent)" style="rounded=1;whiteSpace=wrap;html=1;shadow=0;glass=0;sketch=0;fontSize=15;strokeColor=none;fillColor=#E05243;fontColor=#FFFFFF;" parent="1" vertex="1">
          <mxGeometry x="349" y="356" width="148" height="51" as="geometry" />
        </mxCell>
        <mxCell id="ZYfU5RlasqrC-Ns5ZQEX-15" value="&lt;div style=&quot;font-size: 13px;&quot;&gt;&lt;font color=&quot;#e05243&quot;&gt;&lt;b&gt;MEMORY UNIT&lt;/b&gt;&lt;/font&gt;&lt;/div&gt;" style="text;whiteSpace=wrap;html=1;fontSize=13;fontColor=#000000;align=center;" parent="1" vertex="1">
          <mxGeometry x="352.5" y="421" width="141" height="41" as="geometry" />
        </mxCell>
        <mxCell id="ZYfU5RlasqrC-Ns5ZQEX-16" value="&lt;div style=&quot;font-size: 13px;&quot;&gt;&lt;font color=&quot;#2496ed&quot;&gt;&lt;b&gt;CENTRAL PROCESSING UNIT&lt;/b&gt;&lt;/font&gt;&lt;/div&gt;" style="text;whiteSpace=wrap;html=1;fontSize=13;fontColor=#000000;align=center;" parent="1" vertex="1">
          <mxGeometry x="286.5" y="86" width="273" height="41" as="geometry" />
        </mxCell>
        <mxCell id="FC-5Y2qTnmBgBHcNAJVQ-1" value="&lt;font color=&quot;#333333&quot;&gt;mouse, keyboard, &lt;br&gt;microphone, etc.&lt;/font&gt;" style="text;html=1;align=left;verticalAlign=middle;resizable=0;points=[];autosize=1;strokeColor=none;fillColor=none;fontSize=15;fontColor=#FFFFFF;" parent="1" vertex="1">
          <mxGeometry x="130" y="329" width="137" height="48" as="geometry" />
        </mxCell>
        <mxCell id="FC-5Y2qTnmBgBHcNAJVQ-2" value="&lt;font color=&quot;#333333&quot;&gt;monitor, printer, &lt;br&gt;speakers, etc.&lt;/font&gt;" style="text;html=1;align=left;verticalAlign=middle;resizable=0;points=[];autosize=1;strokeColor=none;fillColor=none;fontSize=15;fontColor=#FFFFFF;" parent="1" vertex="1">
          <mxGeometry x="601" y="329" width="121" height="48" as="geometry" />
        </mxCell>
      </root>
    </mxGraphModel>
  </diagram>
  <diagram id="mCllGrF1OWlA_dbh28Ln" name="cache">
    <mxGraphModel dx="1434" dy="907" grid="0" gridSize="10" guides="1" tooltips="1" connect="1" arrows="1" fold="1" page="1" pageScale="1" pageWidth="850" pageHeight="1100" math="0" shadow="0">
      <root>
        <mxCell id="0" />
        <mxCell id="1" parent="0" />
        <mxCell id="gy7rH8V8GWxHK3g9xBlq-1" value="" style="shape=image;verticalLabelPosition=bottom;labelBackgroundColor=#ffffff;verticalAlign=top;aspect=fixed;imageAspect=0;image=https://sagemaker.readthedocs.io/en/stable/_images/amazon_sagemaker_processing_image1.png;" parent="1" vertex="1">
          <mxGeometry x="154" y="101" width="520" height="205" as="geometry" />
        </mxCell>
        <mxCell id="vIEMaF6dN3Ze_FNc7Cbu-1" value="" style="shape=image;verticalLabelPosition=bottom;labelBackgroundColor=default;verticalAlign=top;aspect=fixed;imageAspect=0;image=https://d2908q01vomqb2.cloudfront.net/f1f836cb4ea6efb2a0b1b99f41ad8b103eff4b59/2020/03/04/api-gateway-sagemaker-1.gif;" vertex="1" parent="1">
          <mxGeometry x="158" y="522" width="569" height="188" as="geometry" />
        </mxCell>
      </root>
    </mxGraphModel>
  </diagram>
</mxfile>
